<?xml version="1.0" encoding="utf-8"?>
<!-- Generator: Adobe Illustrator 16.0.0, SVG Export Plug-In . SVG Version: 6.00 Build 0)  -->
<!DOCTYPE svg PUBLIC "-//W3C//DTD SVG 1.1//EN" "http://www.w3.org/Graphics/SVG/1.1/DTD/svg11.dtd">
<svg version="1.1" id="Layer_1" xmlns="http://www.w3.org/2000/svg" xmlns:xlink="http://www.w3.org/1999/xlink" x="0px" y="0px"
	 width="98.975px" height="124.197px" viewBox="0 0 98.975 124.197" enable-background="new 0 0 98.975 124.197"
	 xml:space="preserve">
<path fill="#F8F8F8" d="M0,84.51c0,14.345,3.574,27.855,9.88,39.688l70.752-0.084c0.133-0.01,0.27-0.008,0.4-0.021
	c-27.201,0-43.848,0-43.848,0c-0.678-4.055-1.031-8.221-1.031-12.467c0-37.24,27.133-68.18,62.821-74.352V1.971
	C94.146,1.114,89.585,0,84.51,0C37.836,0,0,37.836,0,84.51z"/>
<path fill="#F5F5F5" d="M36.154,111.625c0,4.246,0.353,8.412,1.031,12.467c0,0,16.647,0,43.848,0
	c10.079-1.03,17.941-9.543,17.941-19.895V37.273C63.287,43.445,36.154,74.385,36.154,111.625z"/>
</svg>
