<svg id="Layer_1" data-name="Layer 1" xmlns="http://www.w3.org/2000/svg" width="4.444in" height="0.833in" viewBox="0 0 320 60"><defs><style>.cls-1{fill:none;}.cls-2{fill:#0069e3;}.cls-3{isolation:isolate;}</style></defs><title>logo</title><rect class="cls-1" width="320" height="60"/><g id="Group_2795" data-name="Group 2795"><path id="Path_6548" data-name="Path 6548" class="cls-2" d="M25.538,29.582H14.408L12.564,35H5L15.878,5.516h8.274L35.03,35H27.386Zm-1.848-5.46L19.994,13.2,16.256,24.12ZM46.37,4.97a3.506,3.506,0,0,1,1.176-2.709,5.048,5.048,0,0,1,6.218,0A3.506,3.506,0,0,1,54.94,4.97a3.457,3.457,0,0,1-1.176,2.667,5.045,5.045,0,0,1-6.216,0A3.462,3.462,0,0,1,46.37,4.97Zm7.854,6.594V35H47.042V11.564Zm28.182,8.274L94.376,35H85.682L75.6,21.686V35H68.42V5.306H75.6V18.368L85.764,5.306h8.61Zm58.506-8.274L134.906,35h-8.022l-4.242-15.708L118.358,35h-8.022L104.33,11.564h7.182l3.108,16.884,4.368-16.884h7.644l4.494,16.926,3.108-16.926Zm20.752-.294a8.486,8.486,0,0,1,4.62,1.218,7.323,7.323,0,0,1,2.856,3.318V11.564h7.14V35h-7.14V30.758a7.323,7.323,0,0,1-2.856,3.318,8.486,8.486,0,0,1-4.62,1.218,9.488,9.488,0,0,1-5.187-1.449,9.917,9.917,0,0,1-3.613-4.179,14.489,14.489,0,0,1-1.323-6.384,14.451,14.451,0,0,1,1.323-6.405,9.932,9.932,0,0,1,3.612-4.158A9.491,9.491,0,0,1,161.664,11.27Zm2.31,6.3a4.839,4.839,0,0,0-3.717,1.512,5.931,5.931,0,0,0-1.407,4.2,5.931,5.931,0,0,0,1.407,4.2,5.273,5.273,0,0,0,7.434-.042,5.851,5.851,0,0,0,1.449-4.158,5.835,5.835,0,0,0-1.449-4.179,4.887,4.887,0,0,0-3.721-1.533Zm33.684-1.6a10.191,10.191,0,0,1,3.465-3.4,8.848,8.848,0,0,1,4.6-1.26V19h-2.059a7.1,7.1,0,0,0-4.431,1.218q-1.575,1.218-1.575,4.116V35h-7.182V11.564h7.182Zm19.656-11a3.506,3.506,0,0,1,1.176-2.709,5.045,5.045,0,0,1,6.216,0,3.506,3.506,0,0,1,1.176,2.709,3.457,3.457,0,0,1-1.176,2.667,5.045,5.045,0,0,1-6.216,0,3.461,3.461,0,0,1-1.18-2.667Zm7.854,6.594V35h-7.182V11.564Zm37.506,0V35H255.45V30.758a7.791,7.791,0,0,1-3,3.276,8.725,8.725,0,0,1-4.648,1.218,8.112,8.112,0,0,1-6.4-2.688,10.781,10.781,0,0,1-2.373-7.392V11.564h7.14V24.29a5.231,5.231,0,0,0,1.239,3.717,4.355,4.355,0,0,0,3.339,1.323,4.42,4.42,0,0,0,3.444-1.386A5.664,5.664,0,0,0,255.446,24V11.564Zm44.562-.252a8.831,8.831,0,0,1,6.8,2.667,10.47,10.47,0,0,1,2.478,7.413V35h-7.14V22.232a4.781,4.781,0,0,0-1.2-3.465,4.314,4.314,0,0,0-3.255-1.239,4.409,4.409,0,0,0-3.381,1.323,5.231,5.231,0,0,0-1.239,3.717V35h-7.182V22.232a4.835,4.835,0,0,0-1.176-3.465,4.243,4.243,0,0,0-3.234-1.239,4.515,4.515,0,0,0-3.4,1.3,5.156,5.156,0,0,0-1.26,3.738V35h-7.183V11.564h7.182v3.99a6.993,6.993,0,0,1,2.835-3.108,8.6,8.6,0,0,1,4.473-1.134,9.027,9.027,0,0,1,4.746,1.239,7.785,7.785,0,0,1,3.108,3.549,9.386,9.386,0,0,1,3.339-3.486,8.773,8.773,0,0,1,4.685-1.3Z"/><g id="Technologies" class="cls-3"><g class="cls-3"><path class="cls-2" d="M16.975,42.73v.963H14.388v8.2H13.205v-8.2H10.618V42.73Z"/><path class="cls-2" d="M44.158,48.58H38.451a2.5,2.5,0,0,0,.7,1.834,2.268,2.268,0,0,0,1.606.611,2.313,2.313,0,0,0,1.436-.435,1.8,1.8,0,0,0,.709-1.164h1.261a2.983,2.983,0,0,1-1.742,2.236,3.849,3.849,0,0,1-1.612.324,3.668,3.668,0,0,1-1.82-.441,3.128,3.128,0,0,1-1.242-1.268,4.45,4.45,0,0,1,0-3.892,3.124,3.124,0,0,1,1.242-1.276,3.69,3.69,0,0,1,1.82-.441,3.607,3.607,0,0,1,1.813.441A3.046,3.046,0,0,1,43.8,46.293a3.328,3.328,0,0,1,.41,1.639A3.569,3.569,0,0,1,44.158,48.58Zm-1.4-1.9a1.9,1.9,0,0,0-.819-.793,2.487,2.487,0,0,0-1.131-.26,2.344,2.344,0,0,0-1.638.6,2.436,2.436,0,0,0-.715,1.776h4.563A2.428,2.428,0,0,0,42.754,46.684Z"/><path class="cls-2" d="M70.678,45.4a3.079,3.079,0,0,1,1.105,1.95H70.535a1.829,1.829,0,0,0-.708-1.2,2.331,2.331,0,0,0-1.437-.436,2.3,2.3,0,0,0-1.138.287,2.09,2.09,0,0,0-.825.877,3.586,3.586,0,0,0,0,2.926,2.078,2.078,0,0,0,.825.877,2.484,2.484,0,0,0,2.575-.156,1.854,1.854,0,0,0,.708-1.209h1.248a3.063,3.063,0,0,1-1.105,1.957,3.5,3.5,0,0,1-2.262.72,3.671,3.671,0,0,1-1.82-.441,3.128,3.128,0,0,1-1.242-1.268,4.45,4.45,0,0,1,0-3.892A3.124,3.124,0,0,1,66.6,45.109a3.692,3.692,0,0,1,1.82-.441A3.47,3.47,0,0,1,70.678,45.4Z"/><path class="cls-2" d="M98.6,45.441a3.208,3.208,0,0,1,.767,2.307V51.9H98.186V47.854a2.282,2.282,0,0,0-.546-1.639,1.953,1.953,0,0,0-1.482-.572,2.03,2.03,0,0,0-1.56.63,2.612,2.612,0,0,0-.585,1.84V51.9H92.83V42.275h1.183v4.174a2.442,2.442,0,0,1,.968-1.34,2.823,2.823,0,0,1,1.606-.466A2.665,2.665,0,0,1,98.6,45.441Z"/><path class="cls-2" d="M126.461,45.441a3.208,3.208,0,0,1,.767,2.307V51.9h-1.183V47.854a2.282,2.282,0,0,0-.546-1.639,1.953,1.953,0,0,0-1.482-.572,2.03,2.03,0,0,0-1.56.63,2.612,2.612,0,0,0-.585,1.84V51.9h-1.183V44.76h1.183v1.689a2.437,2.437,0,0,1,.968-1.34,2.823,2.823,0,0,1,1.606-.466A2.665,2.665,0,0,1,126.461,45.441Z"/><path class="cls-2" d="M153.624,45.109a3.168,3.168,0,0,1,1.274,1.276,4.329,4.329,0,0,1,0,3.892,3.173,3.173,0,0,1-1.274,1.268,4.057,4.057,0,0,1-3.679,0,3.212,3.212,0,0,1-1.28-1.268,4.28,4.28,0,0,1,0-3.892,3.207,3.207,0,0,1,1.28-1.276,4.057,4.057,0,0,1,3.679,0Zm-3.016.885a2.163,2.163,0,0,0-.871.877,2.961,2.961,0,0,0-.331,1.463,2.924,2.924,0,0,0,.331,1.449,2.139,2.139,0,0,0,.871.877,2.555,2.555,0,0,0,2.353,0,2.133,2.133,0,0,0,.871-.877,2.924,2.924,0,0,0,.332-1.449,2.961,2.961,0,0,0-.332-1.463,2.157,2.157,0,0,0-.871-.877,2.555,2.555,0,0,0-2.353,0Z"/><path class="cls-2" d="M177.589,42.275V51.9h-1.183V42.275Z"/><path class="cls-2" d="M204.063,45.109a3.17,3.17,0,0,1,1.275,1.276,4.329,4.329,0,0,1,0,3.892,3.175,3.175,0,0,1-1.275,1.268,4.055,4.055,0,0,1-3.678,0,3.215,3.215,0,0,1-1.281-1.268,4.288,4.288,0,0,1,0-3.892,3.209,3.209,0,0,1,1.281-1.276,4.055,4.055,0,0,1,3.678,0Zm-3.015.885a2.151,2.151,0,0,0-.871.877,2.961,2.961,0,0,0-.331,1.463,2.924,2.924,0,0,0,.331,1.449,2.127,2.127,0,0,0,.871.877,2.553,2.553,0,0,0,2.352,0,2.121,2.121,0,0,0,.871-.877,2.913,2.913,0,0,0,.333-1.449,2.95,2.95,0,0,0-.333-1.463,2.145,2.145,0,0,0-.871-.877,2.553,2.553,0,0,0-2.352,0Z"/><path class="cls-2" d="M231.533,45.188a2.707,2.707,0,0,1,1.007,1.39V44.76h1.184v7.254a3.626,3.626,0,0,1-.416,1.754,3.014,3.014,0,0,1-1.17,1.2,3.5,3.5,0,0,1-1.756.428,3.773,3.773,0,0,1-2.353-.7,3.072,3.072,0,0,1-1.157-1.879h1.17a2.027,2.027,0,0,0,.787,1.125,2.509,2.509,0,0,0,1.488.411,2.193,2.193,0,0,0,1.593-.618,2.3,2.3,0,0,0,.63-1.722V50.076a2.706,2.706,0,0,1-1.007,1.391,2.93,2.93,0,0,1-1.762.519,3.233,3.233,0,0,1-1.69-.441,3.051,3.051,0,0,1-1.163-1.268,4.688,4.688,0,0,1,0-3.892,3.049,3.049,0,0,1,1.163-1.276,3.252,3.252,0,0,1,1.69-.441A2.937,2.937,0,0,1,231.533,45.188Zm-3.173,1.228a3.132,3.132,0,0,0,0,3.836,2.3,2.3,0,0,0,1.749.7,2.422,2.422,0,0,0,1.254-.326,2.246,2.246,0,0,0,.866-.916,2.894,2.894,0,0,0,.311-1.371,2.944,2.944,0,0,0-.311-1.379,2.215,2.215,0,0,0-.866-.916,2.476,2.476,0,0,0-1.254-.318A2.3,2.3,0,0,0,228.36,46.416Z"/><path class="cls-2" d="M255.121,42.139a.952.952,0,0,1,1.17,0,.739.739,0,0,1,0,1.054.948.948,0,0,1-1.17,0,.739.739,0,0,1,0-1.054Zm1.17,2.621V51.9h-1.183V44.76Z"/><path class="cls-2" d="M284.2,48.58H278.5a2.505,2.505,0,0,0,.695,1.834,2.268,2.268,0,0,0,1.606.611,2.313,2.313,0,0,0,1.436-.435,1.8,1.8,0,0,0,.709-1.164H284.2a2.983,2.983,0,0,1-1.742,2.236,3.849,3.849,0,0,1-1.612.324,3.671,3.671,0,0,1-1.82-.441,3.128,3.128,0,0,1-1.242-1.268,4.45,4.45,0,0,1,0-3.892,3.124,3.124,0,0,1,1.242-1.276,3.692,3.692,0,0,1,1.82-.441,3.607,3.607,0,0,1,1.813.441,3.055,3.055,0,0,1,1.184,1.184,3.338,3.338,0,0,1,.409,1.639A3.569,3.569,0,0,1,284.2,48.58Zm-1.4-1.9a1.891,1.891,0,0,0-.819-.793,2.487,2.487,0,0,0-1.131-.26,2.344,2.344,0,0,0-1.638.6,2.436,2.436,0,0,0-.715,1.776h4.563A2.428,2.428,0,0,0,282.8,46.684Z"/><path class="cls-2" d="M309.48,45.3a2.654,2.654,0,0,1,.891,1.7H309.24a1.629,1.629,0,0,0-.527-1.045,1.713,1.713,0,0,0-1.2-.41,1.484,1.484,0,0,0-.994.3,1.032,1.032,0,0,0-.358.826.854.854,0,0,0,.24.631,1.549,1.549,0,0,0,.6.363q.357.123.982.268a9.715,9.715,0,0,1,1.281.369,2.027,2.027,0,0,1,.831.6,1.7,1.7,0,0,1,.345,1.117,1.758,1.758,0,0,1-.657,1.418,2.644,2.644,0,0,1-1.748.545,3.357,3.357,0,0,1-2.08-.609,2.439,2.439,0,0,1-.949-1.7h1.144a1.493,1.493,0,0,0,.565,1.053,2.05,2.05,0,0,0,1.32.4,1.365,1.365,0,0,0,.955-.313,1.048,1.048,0,0,0,.345-.818.9.9,0,0,0-.247-.662,1.624,1.624,0,0,0-.611-.379,9.139,9.139,0,0,0-1-.271,9.6,9.6,0,0,1-1.268-.366,1.926,1.926,0,0,1-.806-.578,1.621,1.621,0,0,1-.332-1.072,1.8,1.8,0,0,1,.663-1.449,2.737,2.737,0,0,1,1.808-.553A2.882,2.882,0,0,1,309.48,45.3Z"/></g></g></g></svg>