<svg id="BACKGROUND" xmlns="http://www.w3.org/2000/svg" width="24.3" height="24.3" viewBox="0 0 24.3 24.3"><circle cx="12.15" cy="12.15" r="11.9" fill="#ffc300" stroke="#000" stroke-miterlimit="10" stroke-width="0.5"/><path d="M6.46,9.54H4.78a1.59,1.59,0,0,1-.06-.3c0-1-.12-.84.82-1a12.41,12.41,0,0,0,2-.5l.91-.21v6.67c0,.92,0,1,.94,1H10v1.17H4.77V15.15h1c.41,0,.66-.17.66-.59C6.46,12.92,6.46,11.27,6.46,9.54Z" transform="translate(0.15 0.15)"/><path d="M19.29,12.07a5.2,5.2,0,0,1-.81,3,3.77,3.77,0,0,1-4.13,1.31,3.41,3.41,0,0,1-2.54-3,10.08,10.08,0,0,1,.1-2.9,3.43,3.43,0,0,1,3.76-2.78,3.46,3.46,0,0,1,3.45,2.91C19.21,11.05,19.23,11.56,19.29,12.07Zm-2.22,0a8.69,8.69,0,0,0-.26-2A1.39,1.39,0,0,0,14.13,10a6.85,6.85,0,0,0,0,4.06,1.38,1.38,0,0,0,2.71,0c.14-.6.13-1.29.25-2Z" transform="translate(0.15 0.15)"/></svg>