<svg id="Layer_1" data-name="Layer 1" xmlns="http://www.w3.org/2000/svg" width="24.25" height="24.25" viewBox="0 0 24.25 24.25"><path d="M3.23,7A.57.57,0,0,1,3.5,7c.76.44,1.52.85,2.26,1.31a1.63,1.63,0,0,1,.73.83,4.64,4.64,0,0,0,1.5,2c.85.67,1.69,1.36,2.52,2.06l.6.5c.07.06.11,0,.17,0,.25-.25.51-.51.8-.75a.62.62,0,0,1,.86,0A3.88,3.88,0,0,1,14,14c.19.29.34.59.55.87a2.63,2.63,0,0,0,1,.82,16.19,16.19,0,0,1,1.95,1.12c.45.3.88.61,1.29.94s.75.64,1.12,1c.53.44,1.06.88,1.6,1.31.26.22.53.43.78.66s.25.4,0,.63l-.1.1c-.75.62-1.5,1.25-2.25,1.86a3.45,3.45,0,0,1-.68.51c-.19.08-.27.09-.43,0-.46-.35-.91-.7-1.35-1.07s-1.1-.91-1.66-1.35a18.63,18.63,0,0,1-3-3c-.15-.19-.29-.4-.46-.58a3.17,3.17,0,0,0-1-.66c-.34-.17-.7-.32-1.05-.49a3.84,3.84,0,0,1-1-.73c-.23-.25-.22-.43,0-.66s.58-.5.9-.73c.07-.05.06-.09,0-.15-.46-.4-.94-.78-1.41-1.17s-.77-.66-1.17-1-.81-.72-1.29-1a3.1,3.1,0,0,0-1-.41,3.19,3.19,0,0,1-1.33-.57,2.93,2.93,0,0,1-.57-.6A15.63,15.63,0,0,0,2.35,8.14L2.23,8a.26.26,0,0,1,0-.34L3,7.09A.31.31,0,0,1,3.23,7Z" transform="translate(0.03 -0.06)" fill="#109ca6" stroke="#000" stroke-miterlimit="10" stroke-width="0.25"/><path d="M18.44,7H19c.19,0,.28.14.19.28a.45.45,0,0,1-.1.09c-.51.43-1,.87-1.54,1.28a1.59,1.59,0,0,0-.29,2.3,2,2,0,0,0,1.29.61,2.39,2.39,0,0,0,1.47-.24,3,3,0,0,0,.63-.47l1.26-1a1.15,1.15,0,0,1,.32-.14c.07,0,.09,0,.11.06a.75.75,0,0,1,.05.49c-.07.5-.11,1-.22,1.51a3.36,3.36,0,0,1-1.69,2.21,4.8,4.8,0,0,1-2.65.66,4.33,4.33,0,0,1-1-.15.56.56,0,0,0-.56.12l-.68.6c-.11.1-.1.09-.2,0a6.38,6.38,0,0,1-1-1.3,4.59,4.59,0,0,0-1.37-1.37c-.09-.07-.1-.12,0-.17a.79.79,0,0,0,.36-.94,3.09,3.09,0,0,1-.12-.74,3,3,0,0,1,.94-2.21,4.32,4.32,0,0,1,2.23-1.19c.41-.09.82-.16,1.24-.23A6.09,6.09,0,0,1,18.44,7Z" transform="translate(0.03 -0.06)" fill="#bdcd31" stroke="#000" stroke-miterlimit="10" stroke-width="0.25"/><path d="M2.19,22a1.29,1.29,0,0,1,.48-1,16.59,16.59,0,0,1,1.41-1.21l1.1-.92L6,18.12l1.08-.9,1-.85a2.68,2.68,0,0,0,.45-.44c.05-.07.11-.08.18,0a5.65,5.65,0,0,0,1.92,1.29,9.11,9.11,0,0,1,1,.47l.35.23a.36.36,0,0,1,.11.16s0,.06,0,.07a2.72,2.72,0,0,0-.91.64c-.44.34-.87.7-1.3,1.05L8.38,21.1,6.93,22.31c-.36.3-.72.62-1.09.92a2.44,2.44,0,0,1-1.52.53,2.28,2.28,0,0,1-1.38-.4,1.77,1.77,0,0,1-.7-.93A2.14,2.14,0,0,1,2.19,22Zm3,0a.65.65,0,0,0-.71-.62.72.72,0,0,0-.78.61.76.76,0,0,0,.76.63A.69.69,0,0,0,5.15,21.94Z" transform="translate(0.03 -0.06)" fill="#bdcd31" stroke="#000" stroke-miterlimit="10" stroke-width="0.25"/><path d="M15.06,5.14v.65a.37.37,0,0,1-.4.39h-.38a.53.53,0,0,0-.51.29.46.46,0,0,0,.09.57c.09.1.2.19.3.29a.31.31,0,0,1,0,.5l-1,1a.38.38,0,0,1-.54,0c-.12-.1-.22-.21-.35-.3a.57.57,0,0,0-.88.25.78.78,0,0,0,0,.22,2.44,2.44,0,0,1,0,.38.35.35,0,0,1-.35.28c-.51,0-1,0-1.52,0a.34.34,0,0,1-.36-.34V8.91a.51.51,0,0,0-.35-.49.57.57,0,0,0-.62.11l-.29.26a.37.37,0,0,1-.53,0l-1-1a.31.31,0,0,1,0-.49l.29-.27a.48.48,0,0,0,.12-.57.54.54,0,0,0-.52-.31H5.77c-.27,0-.42-.14-.42-.39q0-.64,0-1.29c0-.27.14-.39.43-.39h.37a.53.53,0,0,0,.5-.31.47.47,0,0,0-.1-.56c-.1-.1-.2-.18-.29-.28a.31.31,0,0,1,0-.51l1-.95a.38.38,0,0,1,.55,0l.27.25a.58.58,0,0,0,.63.12.53.53,0,0,0,.35-.52V1A.33.33,0,0,1,9.4.66h1.54a.37.37,0,0,1,.39.38V1.4a.49.49,0,0,0,.34.46.57.57,0,0,0,.59-.09l.31-.28a.38.38,0,0,1,.55,0l1,1a.32.32,0,0,1,0,.52l-.27.25a.48.48,0,0,0-.12.58.54.54,0,0,0,.53.31c.12,0,.25,0,.37,0s.4.14.4.37ZM10.2,7.76a2.75,2.75,0,0,0,2.85-2.62,2.74,2.74,0,0,0-2.84-2.63A2.75,2.75,0,0,0,7.36,5.13,2.74,2.74,0,0,0,10.2,7.76Z" transform="translate(0.03 -0.06)" fill="#c70039" stroke="#000" stroke-miterlimit="10" stroke-width="0.25"/><path d="M10.21,7.15A2.11,2.11,0,0,1,8,5.18a2.1,2.1,0,0,1,2.15-2,2.13,2.13,0,0,1,2.2,2A2.1,2.1,0,0,1,10.21,7.15ZM9,5.13a1.14,1.14,0,0,0,1.18,1.12,1.15,1.15,0,0,0,1.22-1.09,1.2,1.2,0,0,0-2.4,0Z" transform="translate(0.03 -0.06)" fill="#c70039" stroke="#000" stroke-miterlimit="10" stroke-width="0.25"/><rect x="0.13" y="0.13" width="24" height="24" fill="none" stroke="#000" stroke-miterlimit="10" stroke-width="0.25"/></svg>