<svg id="Layer_1" data-name="Layer 1" xmlns="http://www.w3.org/2000/svg" width="23.84" height="23.89" viewBox="0 0 23.84 23.89"><polygon points="4.1 10.45 3.34 9.68 8.21 4.74 8.98 5.51 4.1 10.45" fill="#109ca6" stroke="#000" stroke-miterlimit="10" stroke-width="0.25"/><polygon points="16.38 10.84 15.62 10.07 20.5 5.13 21.26 5.9 16.38 10.84" fill="#109ca6" stroke="#000" stroke-miterlimit="10" stroke-width="0.25"/><polygon points="9.76 5.48 10.58 4.78 15.04 10.1 14.22 10.81 9.76 5.48" fill="#109ca6" stroke="#000" stroke-miterlimit="10" stroke-width="0.25"/><polyline points="3.37 23.64 3.37 19.66 5.84 19.66 5.84 23.57" fill="#f77f00" stroke="#000" stroke-miterlimit="10" stroke-width="0.25"/><polyline points="11.16 23.63 11.16 16.55 13.64 16.55 13.64 23.49" fill="#f77f00" stroke="#000" stroke-miterlimit="10" stroke-width="0.25"/><path d="M15.55,12.64a1.58,1.58,0,0,0,1.62-1.51,1.63,1.63,0,0,0-3.26,0A1.59,1.59,0,0,0,15.55,12.64Z" transform="translate(-0.27)" fill="#c70039" stroke="#000" stroke-miterlimit="10" stroke-width="0.25"/><path d="M3.65,12.1a1.59,1.59,0,0,0,1.63-1.51A1.59,1.59,0,0,0,3.65,9.07,1.58,1.58,0,0,0,2,10.59,1.57,1.57,0,0,0,3.65,12.1Z" transform="translate(-0.27)" fill="#c70039" stroke="#000" stroke-miterlimit="10" stroke-width="0.25"/><path d="M9.35,6.23A1.56,1.56,0,0,0,11,4.77,1.57,1.57,0,0,0,9.4,3.2h0A1.59,1.59,0,0,0,7.71,4.68v.09h0A1.59,1.59,0,0,0,9.35,6.23Z" transform="translate(-0.27)" fill="#ffc300" stroke="#000" stroke-miterlimit="10" stroke-width="0.25"/><path d="M21.52,6.31a1.59,1.59,0,0,0,1.64-1.53h0a1.63,1.63,0,0,0-3.26,0,1.57,1.57,0,0,0,1.62,1.51Z" transform="translate(-0.27)" fill="#ffc300" stroke="#000" stroke-miterlimit="10" stroke-width="0.25"/><polyline points="18.78 23.63 18.78 13.35 21.26 13.35 21.26 23.43" fill="#f77f00" stroke="#000" stroke-miterlimit="10" stroke-width="0.25"/><polyline points="0.25 0 0.25 23.64 23.84 23.64" fill="none" stroke="#000" stroke-miterlimit="10" stroke-width="0.5"/></svg>