<svg id="BACKGROUND" xmlns="http://www.w3.org/2000/svg" width="23.3" height="23.87" viewBox="0 0 23.3 23.87"><path d="M5.18,2.71C.26,1.2-1.71,10.8,5.45,10.09Z" transform="translate(-0.51 -0.2)" fill="#ffc300" stroke="#000" stroke-miterlimit="10" stroke-width="0.5"/><path d="M18.88,10.09c7.16.71,5.19-8.89.27-7.38Z" transform="translate(-0.51 -0.2)" fill="#ffc300" stroke="#000" stroke-miterlimit="10" stroke-width="0.5"/><path d="M5.18,7.14C5.23,18,15.9,19.4,18.88,10.58V2.82c0-.95-.34-1.44-1-1.51h-1.6c-.41,0-.61-.67-1.08-.67H12.08c-.36,0-.57.63-.88.69H6.36A1.42,1.42,0,0,0,5.18,2.54v4.6Z" transform="translate(-0.51 -0.2)" fill="#ffc300" stroke="#000" stroke-miterlimit="10" stroke-width="0.5"/><path d="M18.88,4.36h2c.51.06.75.46.83,1V7.19c0,.69-.2,1.1-.81,1.14h-2Z" transform="translate(-0.51 -0.2)" fill="#fff" stroke="#000" stroke-miterlimit="10" stroke-width="0.5"/><path d="M5.18,4.56H3.8a1.14,1.14,0,0,0-1.27,1,.28.28,0,0,0,0,.09V7.07a1.24,1.24,0,0,0,1.17,1.3H5.22Z" transform="translate(-0.51 -0.2)" fill="#fff" stroke="#000" stroke-miterlimit="10" stroke-width="0.5"/><polygon points="12.96 18.54 12.96 15.89 10.26 15.94 10.26 18.55 12.96 18.54" fill="#ffc300" stroke="#000" stroke-miterlimit="10" stroke-width="0.5"/><path d="M10.82,18.74h2.6a1,1,0,0,1,.94,1h0a1,1,0,0,1-.94,1h-2.6a1,1,0,0,1-.94-1h0A1,1,0,0,1,10.82,18.74Z" transform="translate(-0.51 -0.2)" fill="#ffc300" stroke="#000" stroke-miterlimit="10" stroke-width="0.5"/><path d="M7.21,22.08h9.65a.85.85,0,0,1,.85.85h0a.88.88,0,0,1-.85.88H7.21a.88.88,0,0,1-.85-.88h0a.84.84,0,0,1,.84-.86Z" transform="translate(-0.51 -0.2)" fill="#ffc300" stroke="#000" stroke-miterlimit="10" stroke-width="0.5"/><path d="M15.34,21.86c0-1.28-.34-1.82-1.14-1.6l-4.08.07c-.95-.17-1.22.74-1.12,1.75Z" transform="translate(-0.51 -0.2)" fill="#ffc300" stroke="#000" stroke-miterlimit="10" stroke-width="0.5"/><path d="M13.7,12.73a3.1,3.1,0,0,0,3.14-3,3.14,3.14,0,1,0-6.28,0h0A3.1,3.1,0,0,0,13.7,12.73Z" transform="translate(-0.51 -0.2)" fill="#f77f00" stroke="#000" stroke-miterlimit="10" stroke-width="0.5"/><path d="M13.71,11a1.36,1.36,0,1,0-1.3-1.39v.05A1.32,1.32,0,0,0,13.71,11Z" transform="translate(-0.51 -0.2)" fill="#109ca6" stroke="#000" stroke-miterlimit="10" stroke-width="0.5"/><path d="M12.85,6.12V.63c-1-.63-1.66.64-1.66.64V5.33a.89.89,0,0,0,.68.85H15a1.33,1.33,0,0,0,1-.74V1.19c-.49-1-1.8-.56-1.8-.56V6.18" transform="translate(-0.51 -0.2)" fill="#d62828" stroke="#000" stroke-miterlimit="10" stroke-width="0.5"/></svg>