<svg id="Layer_1" data-name="Layer 1" xmlns="http://www.w3.org/2000/svg" xmlns:xlink="http://www.w3.org/1999/xlink" width="24.01" height="23.99" viewBox="0 0 24.01 23.99"><defs><radialGradient id="radial-gradient" cx="10.74" cy="8.91" r="7.43" gradientTransform="translate(-1.14 -0.28) scale(1.22 1.01)" gradientUnits="userSpaceOnUse"><stop offset="0" stop-color="#fff"/><stop offset="0.19" stop-color="#fff0be"/><stop offset="0.41" stop-color="#ffe07b"/><stop offset="0.61" stop-color="#ffd446"/><stop offset="0.78" stop-color="#ffcb20"/><stop offset="0.91" stop-color="#ffc509"/><stop offset="1" stop-color="#ffc300"/></radialGradient></defs><rect y="9.59" width="24.01" height="3.15" fill="#bdcd31"/><path d="M7.2,17.07,4.33,8.61l0-.13a5.38,5.38,0,0,1-.24-1.56c0-3.6,3.57-6.53,8-6.53s8,2.93,8,6.53a5.43,5.43,0,0,1-.24,1.56l-.06.18c0,.1-.06.2-.1.3l-2.93,8.12Z" transform="translate(0 -0.14)" fill="url(#radial-gradient)"/><path d="M12,.64c4.25,0,7.71,2.81,7.71,6.28a5.3,5.3,0,0,1-.23,1.49l0,.12,0,.05-.11.3-2.87,7.95H7.38l-2.73-8h0l0-.08h0l0-.08-.07-.22A5.3,5.3,0,0,1,4.3,6.92C4.3,3.45,7.76.64,12,.64m0-.5c-4.53,0-8.2,3-8.2,6.78a5.67,5.67,0,0,0,.25,1.64H4l.11.31,0,.08L7,17.32H16.8l3-8.28c0-.1.07-.2.11-.31L20,8.56h0a5.67,5.67,0,0,0,.25-1.64C20.21,3.17,16.54.14,12,.14Z" transform="translate(0 -0.14)"/><rect x="6.08" y="17" width="11.59" height="1.63" rx="0.6" fill="#69d2e7"/><path d="M17.07,17.39a.35.35,0,0,1,.35.35v.43a.35.35,0,0,1-.35.35H6.68a.35.35,0,0,1-.35-.35v-.43a.35.35,0,0,1,.35-.35H17.07m0-.5H6.68a.85.85,0,0,0-.85.85v.43a.85.85,0,0,0,.85.85H17.07a.85.85,0,0,0,.85-.85v-.43a.85.85,0,0,0-.85-.85Z" transform="translate(0 -0.14)"/><rect x="6.21" y="18.96" width="11.59" height="1.63" rx="0.6" fill="#69d2e7"/><path d="M17.2,19.34a.35.35,0,0,1,.35.35v.44a.35.35,0,0,1-.35.35H6.81a.35.35,0,0,1-.35-.35v-.44a.35.35,0,0,1,.35-.35H17.2m0-.5H6.81a.85.85,0,0,0-.85.85v.44a.86.86,0,0,0,.85.85H17.2a.86.86,0,0,0,.85-.85v-.44a.85.85,0,0,0-.85-.85Z" transform="translate(0 -0.14)"/><rect x="6.21" y="20.58" width="11.59" height="1.63" rx="0.6" fill="#69d2e7"/><path d="M17.2,21a.35.35,0,0,1,.35.35v.44a.35.35,0,0,1-.35.35H6.81a.35.35,0,0,1-.35-.35v-.44A.35.35,0,0,1,6.81,21H17.2m0-.5H6.81a.85.85,0,0,0-.85.85v.44a.86.86,0,0,0,.85.85H17.2a.86.86,0,0,0,.85-.85v-.44a.85.85,0,0,0-.85-.85Z" transform="translate(0 -0.14)"/><path d="M12,22.31l1.9,0A1.77,1.77,0,0,1,12,23.87a1.76,1.76,0,0,1-1.89-1.56Z" transform="translate(0 -0.14)" fill="#69d2e7" stroke="#000" stroke-miterlimit="10" stroke-width="0.5"/><text transform="translate(7.58 15.7) scale(1.21 1)" font-size="18.16" font-family="MyriadPro-Regular, Myriad Pro">?</text></svg>