<svg id="Layer_1" data-name="Layer 1" xmlns="http://www.w3.org/2000/svg" width="23.83" height="23.73" viewBox="0 0 23.83 23.73"><path d="M19.16,4.24A1.91,1.91,0,0,0,21,2.31,1.85,1.85,0,0,0,19.18.39h0A1.91,1.91,0,0,0,17.4,2.31a1.86,1.86,0,0,0,1.76,1.93Z" transform="translate(-0.09 -0.14)" fill="#c70039" stroke="#000" stroke-miterlimit="10" stroke-width="0.5"/><path d="M16.65,8.09h5.57A3.26,3.26,0,0,0,19.35,4.9a3,3,0,0,0-3,2.92Z" transform="translate(-0.09 -0.14)" fill="#c70039" stroke="#000" stroke-miterlimit="10" stroke-width="0.5"/><path d="M17.42,17.44h5.2V10.63h1V8.28l-9,0a4.65,4.65,0,0,1,1.07,2.82H18v2.55h-.71v3.83Z" transform="translate(-0.09 -0.14)" fill="#bdcd31" stroke="#000" stroke-miterlimit="10" stroke-width="0.5"/><path d="M6.19,9.74A2.17,2.17,0,0,0,8.34,7.55V7.43a2.15,2.15,0,1,0-4.3,0A2.36,2.36,0,0,0,6.19,9.74Z" transform="translate(-0.09 -0.14)" fill="#109ca6" stroke="#000" stroke-miterlimit="10" stroke-width="0.5"/><path d="M12,6.55a2.28,2.28,0,0,0,2.15-2.31,2.18,2.18,0,0,0-2-2.31H12A2.27,2.27,0,0,0,9.85,4.24a2.17,2.17,0,0,0,2,2.3Z" transform="translate(-0.09 -0.14)" fill="#109ca6" stroke="#000" stroke-miterlimit="10" stroke-width="0.5"/><path d="M9.14,11.33H15.8a3.89,3.89,0,0,0-3.44-3.84A3.59,3.59,0,0,0,8.81,11Z" transform="translate(-0.09 -0.14)" fill="#109ca6" stroke="#000" stroke-miterlimit="10" stroke-width="0.5"/><path d="M11.45,20.42H17V13.61h1V11.27l-9.69.1a5,5,0,0,1,1.5,3l2.46.1,0,2.74-1,0v3.18Z" transform="translate(-0.09 -0.14)" fill="#bdcd31" stroke="#000" stroke-miterlimit="10" stroke-width="0.5"/><path d="M2.65,14.36H9.84a4,4,0,0,0-3.65-3.85C4,10.62,3,12.05,2.65,14.36Z" transform="translate(-0.09 -0.14)" fill="#109ca6" stroke="#000" stroke-miterlimit="10" stroke-width="0.5"/><polygon points="0.25 14.32 12.22 14.32 12.22 16.77 11.28 16.77 11.28 23.48 1.29 23.48 1.19 16.77 0.25 16.77 0.25 14.32" fill="#bdcd31" stroke="#000" stroke-miterlimit="10" stroke-width="0.5"/></svg>