<svg id="Layer_1" data-name="Layer 1" xmlns="http://www.w3.org/2000/svg" width="23.36" height="23.69" viewBox="0 0 23.36 23.69"><rect x="5.81" y="4.06" width="17.3" height="19.39" rx="1.25" fill="#109ca6" stroke="#000" stroke-miterlimit="10" stroke-width="0.5"/><rect x="3" y="2.01" width="17.3" height="19.39" rx="1.25" fill="#69d2e7" stroke="#000" stroke-miterlimit="10" stroke-width="0.5"/><rect x="0.25" y="0.25" width="17.3" height="19.39" rx="1.25" fill="#a7dbd8" stroke="#000" stroke-miterlimit="10" stroke-width="0.5"/><path d="M5,7.81h1a.55.55,0,0,1,.55.55V18.54a0,0,0,0,1,0,0H4.49a0,0,0,0,1,0,0V8.36A.55.55,0,0,1,5,7.81Z" fill="#ffc300" stroke="#000" stroke-miterlimit="10" stroke-width="0.25"/><path d="M7.29,9.18h.94a.6.6,0,0,1,.6.6v8.75a0,0,0,0,1,0,0H6.68a0,0,0,0,1,0,0V9.79A.6.6,0,0,1,7.29,9.18Z" fill="#ff5733" stroke="#000" stroke-miterlimit="10" stroke-width="0.25"/><path d="M9.51,10.61h.92a.62.62,0,0,1,.62.62v7.31a0,0,0,0,1,0,0H8.89a0,0,0,0,1,0,0V11.23A.62.62,0,0,1,9.51,10.61Z" fill="#c70039" stroke="#000" stroke-miterlimit="10" stroke-width="0.25"/><path d="M11.69,12.16h1a.59.59,0,0,1,.59.59v5.79a0,0,0,0,1,0,0H11.1a0,0,0,0,1,0,0V12.75A.59.59,0,0,1,11.69,12.16Z" fill="#900c3f" stroke="#000" stroke-miterlimit="10" stroke-width="0.25"/><path d="M7.61,5.31a.37.37,0,0,0-.37.37A.38.38,0,0,0,7.37,6l4.22,2.93-.94-.08h0a.36.36,0,0,0-.37.37.38.38,0,0,0,.33.37L13,9.79a.37.37,0,0,0,.39-.33V9.41a.46.46,0,0,0,0-.2l-1-2.07a.37.37,0,0,0-.5-.18h0a.36.36,0,0,0-.18.48l.4.88L7.82,5.41A.35.35,0,0,0,7.61,5.31Z" transform="translate(-0.32 -0.15)" fill="#d62828" stroke="#000" stroke-miterlimit="10" stroke-width="0.15"/><path d="M13.12,2.19h-6a.36.36,0,0,0-.31.43.38.38,0,0,0,.31.32h6a.38.38,0,0,0,.31-.44A.36.36,0,0,0,13.12,2.19Z" transform="translate(-0.32 -0.15)" fill="#d62828" stroke="#000" stroke-miterlimit="10" stroke-width="0.15"/><path d="M14.06,3.5H6.21a.36.36,0,0,0-.31.43.38.38,0,0,0,.31.32H14a.38.38,0,0,0,0-.75Z" transform="translate(-0.32 -0.15)" fill="#d62828" stroke="#000" stroke-miterlimit="10" stroke-width="0.15"/></svg>