<svg id="Layer_1" data-name="Layer 1" xmlns="http://www.w3.org/2000/svg" width="24.01" height="24.01" viewBox="0 0 24.01 24.01"><rect width="24.01" height="24.01" fill="#a7dbd8"/><path d="M12.86,6.18a.82.82,0,1,1,.82-.82A.82.82,0,0,1,12.86,6.18Z" fill="#fff"/><path d="M12.86,4.79a.57.57,0,0,1,.57.57.56.56,0,0,1-.57.57.57.57,0,0,1-.57-.57.58.58,0,0,1,.57-.57m0-.5a1.07,1.07,0,1,0,1.07,1.07,1.07,1.07,0,0,0-1.07-1.07Z"/><polygon points="7.95 3.88 15.32 1.25 21.73 20.72 17.3 19.16 14.34 23.3 7.95 3.88" fill="#ffc300"/><path d="M15.17,1.58l6.16,18.74L17.56,19l-.35-.12-.22.3-2.57,3.59L8.26,4l6.91-2.46m.31-.65L7.63,3.73l6.62,20.11,3.15-4.39,4.71,1.67h0L15.48.93Z"/><path d="M11.87,4.91s.21.85.93.55c0,0,.87-.49.43-1.24A5.21,5.21,0,0,0,7,.93C5,1.38,1.67,2.6,1.9,7.23c0,0,0,4,4.57,6.94,0,0,3.21,2,.26,4.88L3.4,22l2.14-.11.32,1.36,3.5-3.56a3.7,3.7,0,0,0-.12-5.61c-1.7-1.57-6-3.68-5.75-7.26.15-1.9,1.15-5.52,6.16-4.48A2.61,2.61,0,0,1,11.87,4.91Z" fill="#fa6900" stroke="#000" stroke-linecap="round" stroke-linejoin="round" stroke-width="0.5"/><path d="M9.65,2.34a8,8,0,0,0-3.3.07A4.92,4.92,0,0,0,3.49,6.82a6,6,0,0,0,1.4,3.64A27.64,27.64,0,0,0,9,13.89a4.91,4.91,0,0,1,1.37,1.77s0-2.33-1.64-3.26A8.7,8.7,0,0,1,5.69,8.73,4.75,4.75,0,0,1,6.52,4,5.56,5.56,0,0,1,9.65,2.34Z" fill="#f38630" stroke="#000" stroke-linecap="round" stroke-linejoin="round" stroke-width="0.5"/><text transform="translate(10.22 7.11) rotate(69.91)" font-size="8.34" font-family="MyriadPro-Regular, Myriad Pro">BM</text></svg>