<svg id="Layer_1" data-name="Layer 1" xmlns="http://www.w3.org/2000/svg" width="23.97" height="23.97" viewBox="0 0 23.97 23.97"><rect width="23.97" height="23.97" fill="#b9e4cc"/><path d="M1.1,6.62V19.15a.69.69,0,0,0,.69.69h19a.69.69,0,0,0,.69-.69V7.31a.69.69,0,0,0-.69-.69H8.45a.69.69,0,0,1-.64-.43l-.13-.32a2,2,0,0,0-1.91-1.3H3.15a2.05,2.05,0,0,0-2,2.05Z" fill="#fa6900" stroke="#000" stroke-miterlimit="10" stroke-width="0.5"/><path d="M2.63,9.35V22.57H23V10a.65.65,0,0,0-.65-.65H9.51L9,8A1.07,1.07,0,0,0,8,7.3H3.71A1.08,1.08,0,0,0,2.63,8.38Z" fill="#f38630" stroke="#000" stroke-miterlimit="10" stroke-width="0.5"/><path d="M6.27,15.83S11.82,10,20,15.83C20,15.83,13.05,22.11,6.27,15.83Z" fill="#fff6f0" stroke="#000" stroke-miterlimit="10" stroke-width="0.5"/><path d="M10.15,13.63s-2,4.14,2.64,5c0,0,5-.57,2.71-5C15.5,13.63,12,12.89,10.15,13.63Z" fill="#109ca6" stroke="#000" stroke-miterlimit="10" stroke-width="0.5"/><line x1="5.85" y1="12.29" x2="7.33" y2="13.57" fill="#109ca6" stroke="#000" stroke-linecap="round" stroke-miterlimit="10" stroke-width="0.5"/><line x1="4.6" y1="13.56" x2="6.35" y2="14.43" fill="#109ca6" stroke="#000" stroke-linecap="round" stroke-miterlimit="10" stroke-width="0.5"/><line x1="7.52" y1="11.43" x2="8.71" y2="12.98" fill="#109ca6" stroke="#000" stroke-linecap="round" stroke-miterlimit="10" stroke-width="0.5"/><line x1="9.27" y1="11" x2="10.39" y2="12.59" fill="#109ca6" stroke="#000" stroke-linecap="round" stroke-miterlimit="10" stroke-width="0.5"/><line x1="11.26" y1="10.56" x2="11.95" y2="12.39" fill="#109ca6" stroke="#000" stroke-linecap="round" stroke-miterlimit="10" stroke-width="0.5"/><line x1="13.26" y1="10.26" x2="13.36" y2="12.2" fill="#109ca6" stroke="#000" stroke-linecap="round" stroke-miterlimit="10" stroke-width="0.5"/><line x1="15.26" y1="10.52" x2="14.92" y2="12.44" fill="#109ca6" stroke="#000" stroke-linecap="round" stroke-miterlimit="10" stroke-width="0.5"/><line x1="17.53" y1="11.23" x2="16.57" y2="12.93" fill="#109ca6" stroke="#000" stroke-linecap="round" stroke-miterlimit="10" stroke-width="0.5"/><line x1="19.46" y1="12.03" x2="18.27" y2="13.57" fill="#109ca6" stroke="#000" stroke-linecap="round" stroke-miterlimit="10" stroke-width="0.5"/><line x1="21.24" y1="13.2" x2="19.65" y2="14.33" fill="#109ca6" stroke="#000" stroke-linecap="round" stroke-miterlimit="10" stroke-width="0.5"/></svg>