<svg id="Layer_1" data-name="Layer 1" xmlns="http://www.w3.org/2000/svg" width="24.01" height="20.84" viewBox="0 0 24.01 20.84"><rect x="12.39" y="14.02" width="10.66" height="4.25" rx="2.1" fill="#f7c116"/><path d="M20.09,13.6l-1.4-.2a8.56,8.56,0,0,0-2.8-7.7A7.78,7.78,0,0,0,10,3.4a8.77,8.77,0,0,0-8.5,8.9h0a8.1,8.1,0,0,0,3.1,6.4,8.47,8.47,0,0,0,6.8,2l.2,1.4h-.4a10,10,0,0,1-11-8.3V10.5a6.39,6.39,0,0,1,.2-1.3,9.88,9.88,0,0,1,7.1-7,10,10,0,0,1,8.2,1.3A9.75,9.75,0,0,1,20,10a11.77,11.77,0,0,1,.1,3.3Z" transform="translate(0.06 -1.58)" fill="#109ca6" stroke="#000" stroke-linecap="round" stroke-linejoin="round" stroke-width="0.5"/><path d="M11.5,17.3a3.12,3.12,0,0,1,.2-1H7.2V12h5.6v3.1a1.82,1.82,0,0,1,1-.2h.4V11.3a.67.67,0,0,0-.66-.7H12.8V9.2a2.8,2.8,0,0,0-5.6,0h0v1.4H6.5a.67.67,0,0,0-.7.66V16.9a.67.67,0,0,0,.66.7h5ZM8.6,9.2a1.4,1.4,0,0,1,2.8,0v1.4H8.6Z" transform="translate(0.06 -1.58)" fill="#c70039" stroke="#000" stroke-miterlimit="10" stroke-width="0.25"/><rect x="7.35" y="10.48" width="5.4" height="4.14" fill="#c70039"/><path d="M20.4,21H14.2a3.3,3.3,0,1,1,0-6.6h6.2a3.33,3.33,0,0,1,3.3,3.3A3.4,3.4,0,0,1,20.4,21Zm-6.2-5.4a2.11,2.11,0,0,0-2.1,2.1,2.18,2.18,0,0,0,2.1,2.1h6.2a2.11,2.11,0,0,0,2.1-2.1,2.18,2.18,0,0,0-2.1-2.1Z" transform="translate(0.06 -1.58)" fill="#bdcd31" stroke="#000" stroke-miterlimit="10" stroke-width="0.5"/><path d="M14.9,17.6l-.8.1.5.1h.1a.09.09,0,0,1,.1.1h0V18q0,.15-.3.3l-.5-.6.2.8a.3.3,0,0,1-.2.1h-.2l-.1-.1v-.2l.2-.5-.5.6c-.1,0-.1-.1-.2-.1s-.1-.1-.1-.2,0-.1.1-.1.1-.1.2-.1l.5-.1-.7-.1v-.2c0-.1,0-.1.1-.2a.09.09,0,0,1,.1-.1h.1l.1.1.4.4-.1-.7a.3.3,0,0,1,.2-.1h.2l.1.1c0,.1,0,.2-.1.2l-.2.4.4-.4c.1-.1.1-.1.2-.1s.1,0,.2.1.1.1.1.2A.3.3,0,0,0,14.9,17.6Z" transform="translate(0.06 -1.58)" fill="#000309"/><path d="M17.1,17.6l-.8.1.5.1h.1a.09.09,0,0,1,.1.1h0V18q0,.15-.3.3l-.5-.6.2.8a.3.3,0,0,1-.2.1H16l-.1-.1v-.2l.2-.5-.5.6c-.1,0-.1-.1-.2-.1s-.1-.1-.1-.2,0-.1.1-.1.1-.1.2-.1l.5-.1-.7-.1v-.2c0-.1,0-.1.1-.2a.09.09,0,0,1,.1-.1h.1l.1.1.4.4L16,17a.3.3,0,0,1,.2-.1h.2l.1.1c0,.1,0,.2-.1.2l-.2.4.4-.4c.1-.1.1-.1.2-.1s.1,0,.2.1.1.1.1.2Z" transform="translate(0.06 -1.58)" fill="#000309"/><path d="M19.2,17.6l-.8.1.5.1H19a.09.09,0,0,1,.1.1h0V18q0,.15-.3.3l-.5-.6.2.8a.3.3,0,0,1-.2.1h-.2l-.1-.1v-.2l.2-.5-.5.6c-.1,0-.1-.1-.2-.1s-.1-.1-.1-.2,0-.1.1-.1.1-.1.2-.1l.5-.1-.7-.1v-.2c0-.1,0-.1.1-.2a.09.09,0,0,1,.1-.1h.1l.1.1.4.4-.1-.7a.3.3,0,0,1,.2-.1h.2l.1.1c0,.1,0,.2-.1.2l-.2.4.4-.4c.1-.1.1-.1.2-.1s.1,0,.2.1.1.1.1.2A.35.35,0,0,1,19.2,17.6Z" transform="translate(0.06 -1.58)" fill="#000309"/><path d="M21.4,17.6l-.8.1.5.1h.1a.09.09,0,0,1,.1.1h0V18q0,.15-.3.3l-.5-.6.2.8a.3.3,0,0,1-.2.1h-.2l-.1-.1v-.2l.2-.5-.5.6c-.1,0-.1-.1-.2-.1s-.1-.1-.1-.2,0-.1.1-.1.1-.1.2-.1l.5-.1-.6-.2v-.2c0-.1,0-.1.1-.2a.09.09,0,0,1,.1-.1h.1l.1.1.4.4-.2-.6a.3.3,0,0,1,.2-.1h.2l.1.1c0,.1,0,.2-.1.2l-.2.4.4-.4c.1-.1.1-.1.2-.1s.1,0,.2.1.1.1.1.2A.3.3,0,0,0,21.4,17.6Z" transform="translate(0.06 -1.58)" fill="#000309"/></svg>