<svg id="Layer_1" data-name="Layer 1" xmlns="http://www.w3.org/2000/svg" width="24.01" height="24.01" viewBox="0 0 24.01 24.01"><path d="M2,23.49V.52H22V20a3.52,3.52,0,0,1-3.51,3.51Z" fill="#a7dbdb"/><path d="M21.76.77V20a3.27,3.27,0,0,1-3.26,3.26H2.25V.77H21.76m.5-.5H1.75V23.74H18.5A3.76,3.76,0,0,0,22.26,20V.27Z"/><path d="M21.87,20.11l-3.15-1.25-.28,4.53S21.87,22.8,21.87,20.11Z" fill="#e0e4cc" stroke="#000" stroke-linecap="round" stroke-linejoin="round" stroke-width="0.5"/><text transform="translate(4.08 8.32)" font-size="7.18" stroke="#000" stroke-miterlimit="10" stroke-width="0.25" font-family="MyriadPro-Regular, Myriad Pro"><tspan letter-spacing="0.03em">C</tspan><tspan x="4.36" y="0">T</tspan></text><polygon points="16.11 0.64 16.11 9.2 18.44 6.21 20.76 9.2 20.76 0.64 16.11 0.64" fill="#fa6900" stroke="#000" stroke-miterlimit="10" stroke-width="0.25"/><line x1="3.63" y1="11.19" x2="13.73" y2="11.19" fill="#fa6900" stroke="#000" stroke-miterlimit="10" stroke-width="0.25"/><line x1="3.63" y1="12.58" x2="18.44" y2="12.58" fill="#fa6900" stroke="#000" stroke-miterlimit="10" stroke-width="0.25"/><line x1="3.63" y1="13.8" x2="13.73" y2="13.8" fill="#fa6900" stroke="#000" stroke-miterlimit="10" stroke-width="0.25"/><line x1="14.86" y1="13.8" x2="19.91" y2="13.8" fill="#fa6900" stroke="#000" stroke-miterlimit="10" stroke-width="0.25"/><line x1="14.86" y1="11.19" x2="19.91" y2="11.19" fill="#fa6900" stroke="#000" stroke-miterlimit="10" stroke-width="0.25"/><line x1="3.88" y1="15.22" x2="16.12" y2="15.22" fill="#fa6900" stroke="#000" stroke-miterlimit="10" stroke-width="0.25"/><line x1="16.83" y1="15.22" x2="20.16" y2="15.22" fill="#fa6900" stroke="#000" stroke-miterlimit="10" stroke-width="0.25"/><line x1="3.95" y1="16.64" x2="7.27" y2="16.64" fill="#fa6900" stroke="#000" stroke-miterlimit="10" stroke-width="0.25"/><line x1="7.82" y1="16.64" x2="11.15" y2="16.64" fill="#fa6900" stroke="#000" stroke-miterlimit="10" stroke-width="0.25"/><line x1="11.7" y1="16.64" x2="15.03" y2="16.64" fill="#fa6900" stroke="#000" stroke-miterlimit="10" stroke-width="0.25"/><line x1="15.57" y1="16.64" x2="20.16" y2="16.64" fill="#fa6900" stroke="#000" stroke-miterlimit="10" stroke-width="0.25"/><line x1="3.91" y1="18.26" x2="8.5" y2="18.26" fill="#fa6900" stroke="#000" stroke-miterlimit="10" stroke-width="0.25"/></svg>