<svg id="Layer_1" data-name="Layer 1" xmlns="http://www.w3.org/2000/svg" width="22.89" height="23.79" viewBox="0 0 22.89 23.79"><rect x="0.25" y="0.25" width="22.39" height="18.01" fill="#f4f4f2" stroke="#000" stroke-miterlimit="10" stroke-width="0.5"/><line x1="0.18" y1="19.54" x2="22.72" y2="19.54" fill="none" stroke="#000" stroke-miterlimit="10"/><polygon points="9.85 19.54 6.54 23.54 17.2 23.54 13.48 19.54 9.85 19.54" stroke="#000" stroke-miterlimit="10" stroke-width="0.5"/><path d="M22.23,7.75,20.54,9a.8.8,0,0,1-1.12-.17l-.05-.08L17.15,5.15a1,1,0,0,1,.23-1.3l1.69-1.21Z" transform="translate(0 0)" fill="#69d2e7" stroke="#000" stroke-miterlimit="10" stroke-width="0.25"/><path d="M.66,7.93,2.44,9.12A.64.64,0,0,0,3.35,9a.46.46,0,0,0,.09-.15L5.6,5a.75.75,0,0,0-.23-1L3.55,2.85Z" transform="translate(0 0)" fill="#bdcd31" stroke="#000" stroke-miterlimit="10" stroke-width="0.25"/><path d="M16.85,5.32,19,9.06l-1.76,2.25L12.44,6.77,10.37,9.19a1.1,1.1,0,0,1-1.3.27,1.23,1.23,0,0,1-.27-1.7,1.27,1.27,0,0,1,.1-.12l1.82-2.19s.88-1.1,2.47-.06A7.68,7.68,0,0,0,16.85,5.32Z" transform="translate(0 0)" fill="#69d2e7" stroke="#000" stroke-miterlimit="10" stroke-width="0.25"/><path d="M7.7,11.75,6.19,13.58a.55.55,0,0,1-.78.05l0-.05L5,13.28a.65.65,0,0,1,0-.9l1.5-1.83a.56.56,0,0,1,.8-.09l0,0,.32.31a.66.66,0,0,1,0,.93Z" transform="translate(0 0)" fill="#69d2e7" stroke="#000" stroke-miterlimit="10" stroke-width="0.25"/><path d="M9.28,12.85,7.84,14.63a.56.56,0,0,1-.8.09l0,0-.26-.25a.67.67,0,0,1,0-.9l1.44-1.75A.56.56,0,0,1,9,11.7l0,0,.26.25A.66.66,0,0,1,9.28,12.85Z" transform="translate(0 0)" fill="#69d2e7" stroke="#000" stroke-miterlimit="10" stroke-width="0.25"/><path d="M10.7,14,9.44,15.48a.57.57,0,0,1-.79,0l-.05,0-.06-.06a.67.67,0,0,1,0-.9L9.8,13a.57.57,0,0,1,.81,0l0,0,.06.06A.65.65,0,0,1,10.7,14Z" transform="translate(0 0)" fill="#69d2e7" stroke="#000" stroke-miterlimit="10" stroke-width="0.25"/><path d="M12,14.85l-1,1.26a.47.47,0,0,1-.66.08l0,0-.09-.08a.56.56,0,0,1,0-.75l1-1.26a.47.47,0,0,1,.66-.08l0,0,.09.08A.56.56,0,0,1,12,14.85Z" transform="translate(0 0)" fill="#69d2e7" stroke="#000" stroke-miterlimit="10" stroke-width="0.25"/><path d="M5.89,5.23,3.69,9.07l1.75,2.11,1-1.15A1.22,1.22,0,0,1,8,10.67a1.28,1.28,0,0,1,.09.51A1.29,1.29,0,0,1,9.77,12.5s1.13-.47,1.41,1c0,0,1.71-.25,1.19,1.52l-1,1.19a1.1,1.1,0,0,0,1.41.22,1,1,0,0,0,.41-.94s.68,0,.87-.33c0,0,.26-.14.21-.86,0,0,.58.2.85-.23,0,0,.35-.13.28-.9,0,0,1,.23,1.3-.56a1.14,1.14,0,0,0-.18-1.26l-4.18-4-1.9,2.34S8,10.9,8,8L9.89,5.62S6.12,5.65,5.89,5.23Z" transform="translate(0 0)" fill="#bdcd31" stroke="#000" stroke-miterlimit="10" stroke-width="0.25"/></svg>