<svg id="Layer_1" data-name="Layer 1" xmlns="http://www.w3.org/2000/svg" width="23.38" height="23.87" viewBox="0 0 23.38 23.87"><path d="M12,16.47.57,16.36C.74,9.58,5.82,4.1,12,4.1S23.32,9.63,23.44,16.47Z" transform="translate(-0.31 -0.07)" fill="#fff"/><path d="M12,4.35c6,0,11,5.28,11.19,11.87H12L.83,16.11C1.11,9.59,6,4.35,12,4.35m0-.5C5.63,3.85.37,9.59.31,16.61L12,16.72H23.7C23.7,9.66,18.42,3.85,12,3.85Z" transform="translate(-0.31 -0.07)"/><path d="M12.26,16.47l-5.1,0a5.39,5.39,0,0,1,5.1-5.35,5.38,5.38,0,0,1,5.11,5.4Z" transform="translate(-0.31 -0.07)" fill="#fff"/><path d="M12.26,11.32a5.09,5.09,0,0,1,4.84,4.9H12.27l-4.84,0a5.1,5.1,0,0,1,4.83-4.85m0-.5a5.66,5.66,0,0,0-5.35,5.85l5.35,0h5.36a5.67,5.67,0,0,0-5.36-5.9Z" transform="translate(-0.31 -0.07)"/><path d="M12,20.15a3.81,3.81,0,0,1-3.6-4,3.81,3.81,0,0,1,3.6-4,3.81,3.81,0,0,1,3.59,4A3.8,3.8,0,0,1,12,20.15Z" transform="translate(-0.31 -0.07)" fill="#109ca6"/><path d="M12,12.44a3.56,3.56,0,0,1,3.34,3.73A3.55,3.55,0,0,1,12,19.9a3.56,3.56,0,0,1-3.35-3.73A3.56,3.56,0,0,1,12,12.44m0-.5a4.05,4.05,0,0,0-3.85,4.23A4,4,0,0,0,12,20.4a4,4,0,0,0,3.84-4.23A4.05,4.05,0,0,0,12,11.94Z" transform="translate(-0.31 -0.07)"/><path d="M.66,16.32S.8,11,3.78,8.14l5.38,4a5.74,5.74,0,0,0-2,4.16Z" transform="translate(-0.31 -0.07)" fill="#c70039" stroke="#000" stroke-miterlimit="10" stroke-width="0.5"/><path d="M23.41,16.32s-.63-6-3.3-8.18l-5.19,3.8a6.69,6.69,0,0,1,1.81,4.38Z" transform="translate(-0.31 -0.07)" fill="#bdcd31" stroke="#000" stroke-miterlimit="10" stroke-width="0.5"/><path d="M3.78,8.14l5.38,4A6.57,6.57,0,0,1,12,11V4.19A10.05,10.05,0,0,0,3.78,8.14Z" transform="translate(-0.31 -0.07)" fill="#ed8622" stroke="#000" stroke-miterlimit="10" stroke-width="0.5"/><path d="M12,4.19V11s2.34.2,2.92.91l5.19-3.8A9.64,9.64,0,0,0,12,4.19Z" transform="translate(-0.31 -0.07)" fill="#f7c116" stroke="#000" stroke-miterlimit="10" stroke-width="0.5"/><path d="M11.73.42,9.81,16.3a.08.08,0,0,0,0,0l2,7.27a.1.1,0,0,0,.19,0l2.24-7.41v-.05L11.94.42A.11.11,0,0,0,11.73.42Z" transform="translate(-0.31 -0.07)" fill="#581845" stroke="#000" stroke-miterlimit="10" stroke-width="0.5"/></svg>