<svg id="BACKGROUND" xmlns="http://www.w3.org/2000/svg" width="23.68" height="23.78" viewBox="0 0 23.68 23.78"><rect x="6.67" y="0.25" width="15.88" height="19.44" rx="0.61" fill="#bdcd31" stroke="#000" stroke-miterlimit="10" stroke-width="0.5"/><rect x="4.61" y="1.98" width="15.88" height="19.44" rx="0.61" fill="#f7c116" stroke="#000" stroke-miterlimit="10" stroke-width="0.5"/><rect x="0.25" y="4.09" width="17.88" height="19.44" rx="0.61" fill="#fdffff" stroke="#000" stroke-miterlimit="10" stroke-width="0.5"/><circle cx="18.55" cy="18.89" r="4.11" fill="#fdffff"/><path d="M18.84,13.58a5,5,0,1,0,.15,0Zm.27,7.92H17.83V20.26h1.28Zm1.12-2.88A1.82,1.82,0,0,1,19,19v.64H17.88V18.22h.48a1.88,1.88,0,0,0,.81-.15.55.55,0,0,0,.29-.53.51.51,0,0,0-.14-.39A.48.48,0,0,0,19,17a.54.54,0,0,0-.42.16.51.51,0,0,0-.14.39H17.23a1.48,1.48,0,0,1,.19-.8,1.41,1.41,0,0,1,.6-.56A2.07,2.07,0,0,1,19,16a1.8,1.8,0,0,1,1.22.4,1.59,1.59,0,0,1,0,2.22Z" transform="translate(-0.36 0.05)" fill="#d62828" stroke="#000" stroke-miterlimit="10" stroke-width="0.25"/><rect x="1.87" y="6.39" width="1.58" height="1.53" rx="0.37" fill="#109ca6" stroke="#000" stroke-miterlimit="10" stroke-width="0.25"/><rect x="4.1" y="6.39" width="9.5" height="1.46" rx="0.51" fill="#d62828" stroke="#000" stroke-miterlimit="10" stroke-width="0.25"/><rect x="1.87" y="12.7" width="1.58" height="1.53" rx="0.37" fill="#109ca6" stroke="#000" stroke-miterlimit="10" stroke-width="0.25"/><rect x="4.1" y="12.73" width="8.97" height="1.46" rx="0.51" fill="#d62828" stroke="#000" stroke-miterlimit="10" stroke-width="0.25"/><rect x="1.87" y="18.54" width="1.58" height="1.53" rx="0.37" fill="#109ca6" stroke="#000" stroke-miterlimit="10" stroke-width="0.25"/><rect x="4.1" y="18.6" width="8.16" height="1.46" rx="0.51" fill="#d62828" stroke="#000" stroke-miterlimit="10" stroke-width="0.25"/></svg>