<svg id="Layer_1" data-name="Layer 1" xmlns="http://www.w3.org/2000/svg" width="23.78" height="23.65" viewBox="0 0 23.78 23.65"><path d="M9.92,5.86,5.09,8.08.69,6c-.44-.23-.41-.43,0-.59L10.34.77a1.32,1.32,0,0,1,1.33,0L21.54,5.3c.38.25.36.49-.14.7l-9.47,4.53a1.7,1.7,0,0,1-1.49,0L6.6,8.63l3.87-2.3C14,6.76,11,3.2,9.92,5.86Z" transform="translate(-0.12 -0.34)" fill="#900c3f" stroke="#000" stroke-miterlimit="10" stroke-width="0.5"/><path d="M5,15.09l.78-4.79.82,4.79A1.24,1.24,0,0,1,5,15.09Z" transform="translate(-0.12 -0.34)" fill="#ffc300" stroke="#000" stroke-miterlimit="10" stroke-width="0.5"/><path d="M5.24,9.16,4.74,12a1.29,1.29,0,0,1-.47-.88V8.78Z" transform="translate(-0.12 -0.34)" fill="#ffc300" stroke="#000" stroke-miterlimit="10" stroke-width="0.5"/><path d="M7.12,13.65,6.66,9.91l4,2.06a3.22,3.22,0,0,0,1.57-.09L17.86,9v2.76c-3.11,2.68-6.58,3.93-10.74,1.9Z" transform="translate(-0.12 -0.34)" fill="#900c3f" stroke="#000" stroke-miterlimit="10" stroke-width="0.5"/><path d="M2.87,21.9c-.15-2.3.65-3.68,2.91-3.61,4.49,1.26.84,7.94-1.75,3.58a1.47,1.47,0,0,1,2.69-1.18" transform="translate(-0.12 -0.34)" fill="none" stroke="#000" stroke-linecap="round" stroke-linejoin="round" stroke-width="0.75"/><path d="M5.24,20.82a.87.87,0,1,0,1.62.65" transform="translate(-0.12 -0.34)" fill="none" stroke="#000" stroke-linecap="round" stroke-linejoin="round" stroke-width="0.75"/><path d="M8.19,23.08c1.37-2.4.74-4.23-1.82-5.52l6.68-1.21c.77-.29,1.52-.09,2.23,1-.48.32-.68.91-.53,1.85l-.87,1.9Z" transform="translate(-0.12 -0.34)" fill="#eae2b7" stroke="#000" stroke-miterlimit="10"/><path d="M16.06,17.25A2.37,2.37,0,0,0,14.73,16l5.89-1.63c1.21-.54,2.15,0,2.77,2A2.74,2.74,0,0,1,21.93,19l-4.16.86-.77-.8A1.37,1.37,0,0,0,16.06,17.25Z" transform="translate(-0.12 -0.34)" fill="#eae2b7" stroke="#000" stroke-miterlimit="10"/><polygon points="14.06 21.43 14.96 19.21 15.73 19.59 15.59 21.45 15.04 20.92 14.06 21.43" fill="#f77f00" stroke="#050505" stroke-miterlimit="10" stroke-width="0.25"/><polygon points="16.65 21.25 16.05 19.52 16.71 19.16 17.74 20.55 17.12 20.55 16.65 21.25" fill="#f77f00" stroke="#050505" stroke-miterlimit="10" stroke-width="0.25"/><path d="M15.89,19.86a1.38,1.38,0,1,0-1.29-1.47v.11a1.33,1.33,0,0,0,1.29,1.36Z" transform="translate(-0.12 -0.34)" fill="#ffc300" stroke="#000" stroke-miterlimit="10" stroke-width="0.25"/><circle cx="15.86" cy="18.14" r="0.72" fill="#fff"/></svg>