<svg id="Layer_1" data-name="Layer 1" xmlns="http://www.w3.org/2000/svg" width="24.37" height="23.99" viewBox="0 0 24.37 23.99"><path d="M16.65,5.83c2.94,2.62,3.49,5.34,0,8.39l-1.09,1.42,2.72,1,1.21-.87,2.29.76,2-2.84-2-1.2A6.91,6.91,0,0,0,21.89,8l2-1.34-2-2.83-2.3.76a11,11,0,0,0-5-2.3l-.44-2H10.07L9.78,2.23A12.93,12.93,0,0,0,4.65,4.52L2.36,3.76l-2,2.83,1.92,1.2a5.76,5.76,0,0,0-.11,4.48l-2,1.2,2,2.83,2.4-.76,1.31,1.09,2.62-.88L7.38,14.34C.73,8.34,9.78,2,16.65,5.83Z" transform="translate(0.18 -0.05)" fill="#ffc300" stroke="#000" stroke-miterlimit="10" stroke-width="0.5"/><path d="M9.59,14.86,12.22,22c-1.19-1-4.69-4-5.28-5.87.37-.24.75-.44,1.09-.62A11.06,11.06,0,0,1,9.59,14.86Z" transform="translate(0.18 -0.05)" fill="#fff"/><path d="M15.17,14.86a10.47,10.47,0,0,1,2.51,1.34,11.13,11.13,0,0,1-2.58,3.32c-.83.82-1.68,1.56-2.63,2.43Z" transform="translate(0.18 -0.05)" fill="#fff"/><path d="M19.8,20.81a10.92,10.92,0,0,1-7.46,3h0V22.3l.14-.35c.93-.87,1.85-1.61,2.64-2.43A11.13,11.13,0,0,0,17.7,16.2,3.71,3.71,0,0,1,19.46,18Z" transform="translate(0.18 -0.05)" fill="#109ca6"/><path d="M12.31,23.8a10.89,10.89,0,0,1-7.39-3L5.26,18A4.11,4.11,0,0,1,7,16.1c.56,1.84,4.09,4.83,5.27,5.86l.12.32Z" transform="translate(0.18 -0.05)" fill="#109ca6"/><path d="M6.94,16.11C7.51,18,11,20.94,12.22,22l.12.1.14-.13c.93-.87,1.85-1.61,2.64-2.43A11.13,11.13,0,0,0,17.7,16.2v-.09l-1.27-.64-.93-.63-3,.24-2.83-.24" transform="translate(0.18 -0.05)" fill="none" stroke="#000" stroke-linecap="round" stroke-linejoin="round" stroke-width="0.5"/><path d="M17.68,16.2A3.71,3.71,0,0,1,19.44,18l.34,2.77a10.92,10.92,0,0,1-7.46,3h0a10.89,10.89,0,0,1-7.39-3L5.27,18A4.11,4.11,0,0,1,7,16.1c.37-.24.75-.45,1.09-.63a10.94,10.94,0,0,1,1.55-.63L12.26,22l.12.32.15-.35,2.64-6.75A10.34,10.34,0,0,1,17.68,16.2Z" transform="translate(0.18 -0.05)" fill="none" stroke="#000" stroke-linecap="round" stroke-linejoin="round" stroke-width="0.5"/><circle cx="12.53" cy="9.94" r="4.16" fill="#f38630" stroke="#000" stroke-miterlimit="10" stroke-width="0.5"/><polygon points="9.81 14.79 12.56 22.23 15.35 14.81 9.81 14.79" fill="#f38630" stroke="#000" stroke-linecap="round" stroke-linejoin="round" stroke-width="0.5"/></svg>