<svg id="Layer_1" data-name="Layer 1" xmlns="http://www.w3.org/2000/svg" width="23.84" height="23.64" viewBox="0 0 23.84 23.64"><path d="M19.47,10.8v1.35h-1.8v5.62a1.22,1.22,0,0,0,.91,1.44h.89v1.36a2.55,2.55,0,0,1-3.09-2v0c0-.21-.1-.42-.1-.62V5.07a2.69,2.69,0,0,1,2.5-2.7h.6V3.72h-.6a1.22,1.22,0,0,0-1.2,1.14v5.83h1.9Z" transform="translate(-0.09 -0.34)" fill="#bdcd31" stroke="#000" stroke-miterlimit="10" stroke-width="0.5"/><path d="M21.27,5.59a2.48,2.48,0,0,1-1.8-.83,2.5,2.5,0,0,1-.7-1.67A2.5,2.5,0,0,1,21.27.6h0a2.12,2.12,0,0,1,1.7.73,2.51,2.51,0,0,1,.7,1.87h0A2.47,2.47,0,0,1,21.27,5.59Zm0-3.74h0A1.17,1.17,0,0,0,20.07,3v.08a1.31,1.31,0,0,0,.4.94,1.2,1.2,0,0,0,2.1-.91v0a1.21,1.21,0,0,0-.3-.83A1.57,1.57,0,0,0,21.27,1.85Z" transform="translate(-0.09 -0.34)" fill="#bdcd31" stroke="#000" stroke-miterlimit="10" stroke-width="0.5"/><path d="M21.27,22.45a2.83,2.83,0,0,1-1.8-.73,2.54,2.54,0,0,1,0-3.5l0,0,.1-.1a2.31,2.31,0,0,1,1.7-.73h0a2.43,2.43,0,0,1,2.4,2.48V20A2.48,2.48,0,0,1,21.27,22.45Zm0-3.85a1.18,1.18,0,0,0-.9.42A1.34,1.34,0,0,0,20,20a1,1,0,0,0,.4.84,1.47,1.47,0,0,0,.9.41h0A1.18,1.18,0,0,0,22.47,20V20h0a1.27,1.27,0,0,0-1.18-1.35Z" transform="translate(-0.09 -0.34)" fill="#bdcd31" stroke="#000" stroke-miterlimit="10" stroke-width="0.5"/><path d="M21.27,14a2.83,2.83,0,0,1-1.8-.73A2.52,2.52,0,0,1,21.27,9h0a2.59,2.59,0,0,1,1.7.72,2.55,2.55,0,0,1,.7,1.88A2.39,2.39,0,0,1,21.27,14Zm0-3.85h0a1.24,1.24,0,0,0-1.2,1.25,1.18,1.18,0,0,0,.3.83,1.48,1.48,0,0,0,.9.42,1.18,1.18,0,0,0,1.2-1.17v-.18a1.15,1.15,0,0,0-.4-.94A1.87,1.87,0,0,0,21.27,10.17Z" transform="translate(-0.09 -0.34)" fill="#bdcd31" stroke="#000" stroke-miterlimit="10" stroke-width="0.5"/><ellipse cx="7.88" cy="6.07" rx="5.13" ry="5.34" fill="#ec8f71" stroke="#000" stroke-miterlimit="10" stroke-width="0.5"/><path d="M5.09,12.12H10.8A4.84,4.84,0,0,1,15.63,17v6.43a0,0,0,0,1,0,0H.25a0,0,0,0,1,0,0V17A4.84,4.84,0,0,1,5.09,12.12Z" fill="#109ca6" stroke="#000" stroke-miterlimit="10" stroke-width="0.5"/><polygon points="6.15 12.94 10.29 12.94 8.22 16.42 6.15 12.94" fill="#ec8f71" stroke="#000" stroke-miterlimit="10" stroke-width="0.5"/></svg>