<svg id="Layer_1" data-name="Layer 1" xmlns="http://www.w3.org/2000/svg" width="22.84" height="23.78" viewBox="0 0 22.84 23.78"><path d="M6.16,15l3.4-.11H12l-.1,8.4a2,2,0,0,1-2.3,0l.1-6.78h-.8v6.68a2.67,2.67,0,0,1-2.6,0V15Z" transform="translate(-0.21 -0.15)" fill="#109ca6" stroke="#000" stroke-miterlimit="10" stroke-width="0.5"/><rect x="5.95" y="7.68" width="5.7" height="6.68" fill="#109ca6" stroke="#000" stroke-miterlimit="10" stroke-width="0.5"/><path d="M7,7.94S2.06,3.89,1.36.65c0,0-.9-.6-.9.61s3.2,6.37,5.8,7.59Z" transform="translate(-0.21 -0.15)" fill="#109ca6" stroke="#000" stroke-miterlimit="10" stroke-width="0.5"/><path d="M11.16,7.83s4.9-4,5.6-7.28c0,0,.9-.61.9.61s-3.1,6.37-5.8,7.58Z" transform="translate(-0.21 -0.15)" fill="#109ca6" stroke="#000" stroke-miterlimit="10" stroke-width="0.5"/><ellipse cx="8.65" cy="3.84" rx="2.7" ry="2.63" fill="#109ca6" stroke="#000" stroke-miterlimit="10" stroke-width="0.5"/><path d="M9.9,6a2.76,2.76,0,0,1-2.5-.1S8.7,7.7,9.9,6Z" transform="translate(-0.21 -0.15)" fill="none"/><polygon points="15.57 1.69 17.18 9.15 22.04 8.07 22.76 6.63 21.32 0.25 15.57 1.33 15.57 1.69" fill="#eae2b7" stroke="#000" stroke-miterlimit="10" stroke-width="0.15"/><path d="M17.66,7.86S18.83,3.1,18.47,2s1.71,3.24,4.05,4.85" transform="translate(-0.21 -0.15)" fill="none" stroke="#d62828" stroke-miterlimit="10" stroke-width="0.5"/><path d="M17.93,6.06A26.92,26.92,0,0,0,21,5.44" transform="translate(-0.21 -0.15)" fill="none" stroke="#d62828" stroke-miterlimit="10" stroke-width="0.5"/><path d="M20,1.57a4.68,4.68,0,0,1,.45,1.8" transform="translate(-0.21 -0.15)" fill="none" stroke="#d62828" stroke-miterlimit="10" stroke-width="0.5"/><path d="M19.19,2.56a14.46,14.46,0,0,0,2.25-.45" transform="translate(-0.21 -0.15)" fill="none" stroke="#d62828" stroke-miterlimit="10" stroke-width="0.5"/></svg>