<svg id="Layer_1" data-name="Layer 1" xmlns="http://www.w3.org/2000/svg" width="23.99" height="24.11" viewBox="0 0 23.99 24.11"><path d="M4.78,2.33H23a.73.73,0,0,1,.75.74V23a.73.73,0,0,1-.75.75H4.78A.73.73,0,0,1,4,23V3.18a.82.82,0,0,1,.75-.85Z" transform="translate(0.03 0.16)" fill="#69d2e7" stroke="#000" stroke-miterlimit="10" stroke-width="0.5"/><line x1="10.5" y1="8.03" x2="22.32" y2="8.03" fill="none" stroke="#000" stroke-miterlimit="10" stroke-width="0.5"/><line x1="10.5" y1="12.79" x2="22.32" y2="12.79" fill="none" stroke="#000" stroke-miterlimit="10" stroke-width="0.5"/><line x1="10.89" y1="17.93" x2="22.06" y2="17.93" fill="none" stroke="#000" stroke-miterlimit="10" stroke-width="0.5"/><polyline points="6.46 8.43 7.41 9.25 9.32 7.48" fill="none" stroke="#c70039" stroke-miterlimit="10" stroke-width="0.75"/><path d="M.47,12c-.92-.79.92-2.38,1.71-1.59l4.88,4.35L6.92,15,14,21.23l.66,2-2.11-.66-7-6.2-.13.14Z" transform="translate(0.03 0.16)" fill="#ff5733" stroke="#000" stroke-miterlimit="10" stroke-width="0.5"/><line x1="5.64" y1="16.51" x2="6.96" y2="14.93" fill="#ff5733" stroke="#000" stroke-miterlimit="10" stroke-width="0.5"/><line x1="6.3" y1="15.72" x2="0.77" y2="10.84" fill="#ff5733" stroke="#000" stroke-miterlimit="10" stroke-width="0.5"/><polyline points="7.07 13.41 7.96 14.3 9.76 12.51" fill="none" stroke="#c70039" stroke-miterlimit="10" stroke-width="0.75"/><path d="M13.82.09a2.49,2.49,0,0,0-2.56,2.34,2.48,2.48,0,0,0,2.56,2.34,2.41,2.41,0,0,0,2.55-2.34A2.35,2.35,0,0,0,13.82.09Z" transform="translate(0.03 0.16)" fill="#ffc300" stroke="#000" stroke-miterlimit="10" stroke-width="0.5"/></svg>