<svg id="Layer_1" data-name="Layer 1" xmlns="http://www.w3.org/2000/svg" width="23.85" height="27.92" viewBox="0 0 23.85 27.92"><path d="M.52.23H23.6v26.4H.29S2.85,7.2.52.23Z" transform="translate(0 0.02)" fill="#fffdfd" stroke="#000" stroke-miterlimit="10" stroke-width="0.5"/><path d="M.52.23H23.6V9.88h-22S1.43,3.23.52.23Z" transform="translate(0 0.02)" fill="#f7c116" stroke="#000" stroke-miterlimit="10" stroke-width="0.5"/><polygon points="20.9 1.22 17.83 3.49 18.94 5.23 21.47 2.14 20.9 1.22" fill="#d62828" stroke="#000" stroke-miterlimit="10" stroke-width="0.25"/><polygon points="20.32 0.81 20.89 0.25 22.4 2.16 21.84 2.7 20.32 0.81" fill="#d62828" stroke="#000" stroke-miterlimit="10" stroke-width="0.25"/><polygon points="16.87 4.29 13.58 7.77 17.9 5.53 16.87 4.29" fill="#f7f5f5" stroke="#000" stroke-miterlimit="10" stroke-width="0.25"/><path d="M17.59,5.11,16,3.39l.08,0a2,2,0,0,1,2.8.19,1,1,0,0,1,.13.16A2.55,2.55,0,0,1,19,7Z" transform="translate(0 0.02)" fill="#d62828" stroke="#000" stroke-miterlimit="10" stroke-width="0.25"/><path d="M11.21,6.94A6.21,6.21,0,0,0,14.94,9" transform="translate(0 0.02)" fill="none" stroke="#000" stroke-miterlimit="10" stroke-width="0.25"/><text transform="translate(3.18 23.52)" font-size="17.59" font-family="MyriadPro-Regular, Myriad Pro">25</text></svg>