<?xml version="1.0" encoding="utf-8"?>
<!-- Generator: Adobe Illustrator 24.3.0, SVG Export Plug-In . SVG Version: 6.00 Build 0)  -->
<svg version="1.1" id="Layer_1" xmlns="http://www.w3.org/2000/svg" xmlns:xlink="http://www.w3.org/1999/xlink" x="0px" y="0px"
	 viewBox="0 0 21.9 24.1" style="enable-background:new 0 0 21.9 24.1;" xml:space="preserve">
<style type="text/css">
	.st0{fill:#F77F00;stroke:#000000;stroke-width:0.25;stroke-miterlimit:10;}
	.st1{fill:#BDCD31;stroke:#000000;stroke-width:0.25;stroke-miterlimit:10;}
	.st2{fill:#D62828;stroke:#000000;stroke-width:0.25;stroke-miterlimit:10;}
	.st3{fill:#FCBF49;stroke:#000000;stroke-width:0.25;stroke-miterlimit:10;}
	.st4{fill:none;stroke:#003049;stroke-width:0.75;stroke-miterlimit:10;}
	.st5{fill:none;stroke:#003049;stroke-width:0.15;stroke-miterlimit:10;}
	.st6{fill:#003049;stroke:#003049;stroke-width:0.15;stroke-miterlimit:10;}
	.st7{opacity:0.61;fill:#FFFFFF;stroke:#000000;stroke-width:0.25;stroke-miterlimit:10;enable-background:new    ;}
</style>
<g>
	<rect x="0.1" y="0.1" class="st0" width="21.6" height="2.8"/>
	<path class="st1" d="M0.8,13.6l3.4-3c0.3-0.2,0.6-0.2,0.8-0.1l4.1,1.3c0.2,0.1,0.5,0,0.7-0.1l7.3-6.2l-1-1.3h4.1l-1.2,3.1l-1-0.9
		l-8.2,6.7c-0.2,0.2-0.5,0.3-0.7,0.2l-3.8-0.7c-0.3-0.1-0.6,0-0.7,0.2l-3.9,3.5V13.6z"/>
	<rect x="1.8" y="19.7" class="st2" width="1.7" height="4.4"/>
	<rect x="4.4" y="15.4" class="st3" width="1.9" height="8.6"/>
	<rect x="7.5" y="17.6" class="st2" width="2.2" height="6.3"/>
	<rect x="10.6" y="14.1" class="st3" width="1.7" height="9.8"/>
	<rect x="13.3" y="10.7" class="st2" width="1.8" height="13.3"/>
	<rect x="16.5" y="9.4" class="st3" width="2.2" height="14.5"/>
	<circle class="st4" cx="9.7" cy="13.9" r="5.1"/>
	<circle class="st5" cx="9.7" cy="13.9" r="4.6"/>
	<path class="st6" d="M13.6,17.3c0.3-0.3,0.6-0.7,0.8-1.1l7.2,3.6c0.2,0.7-0.2,1.5-0.9,1.7l0,0l-0.3,0.1L13.6,17.3z"/>
	<path class="st7" d="M8.7,10.1c1.6-0.2,3.1,0.5,4,1.8c0,0-4.6-2.1-6.6,1C6.3,11.5,7.3,10.4,8.7,10.1z"/>
	<path class="st7" d="M8.2,16.9c1.3,0.2,2.6,0.1,3.7-0.5c-0.6,1.1-2,1.5-3.1,0.9l0,0C8.6,17.3,8.4,17.1,8.2,16.9z"/>
</g>
</svg>
