<svg id="Layer_1" data-name="Layer 1" xmlns="http://www.w3.org/2000/svg" width="24.27" height="24.27" viewBox="0 0 24.27 24.27"><rect x="0.25" y="0.25" width="23.77" height="23.77" fill="#ffc300" stroke="#000" stroke-miterlimit="10" stroke-width="0.5"/><path d="M21.8,6.3H17.57a.64.64,0,0,0-.63.62h0V7.7a.63.63,0,0,0,.63.63H21.8a.64.64,0,0,0,.62-.63h0V6.92a.62.62,0,0,0-.62-.62Z" transform="translate(0.19 0.1)" fill="#109ca6" stroke="#000" stroke-miterlimit="10" stroke-width="0.25"/><path d="M15.58,6.3H13a.62.62,0,0,0-.62.62h0V7.7a.64.64,0,0,0,.62.63h2.63a.64.64,0,0,0,.62-.63h0V6.92a.62.62,0,0,0-.62-.62Z" transform="translate(0.19 0.1)" fill="#109ca6" stroke="#000" stroke-miterlimit="10" stroke-width="0.25"/><path d="M4.07,6.3H2.2a.62.62,0,0,0-.62.62h0V7.7a.62.62,0,0,0,.61.63H4.07a.64.64,0,0,0,.62-.63h0V6.92A.62.62,0,0,0,4.07,6.3Z" transform="translate(0.19 0.1)" fill="#109ca6" stroke="#000" stroke-miterlimit="10" stroke-width="0.25"/><path d="M20.94,15.19H19.08a.64.64,0,0,0-.63.62h0v.78a.64.64,0,0,0,.63.62h1.86a.62.62,0,0,0,.62-.62h0v-.78a.62.62,0,0,0-.61-.63h0Z" transform="translate(0.19 0.1)" fill="#109ca6" stroke="#000" stroke-miterlimit="10" stroke-width="0.25"/><rect x="5.28" y="8.88" width="6.93" height="0.25" fill="#d62828"/><rect x="13.75" y="17.55" width="4.39" height="0.25" fill="#d62828"/><rect x="2.93" y="15.13" width="10.28" height="2.06" rx="0.54" fill="#109ca6" stroke="#000" stroke-miterlimit="10" stroke-width="0.25"/></svg>