<svg id="Layer_1" data-name="Layer 1" xmlns="http://www.w3.org/2000/svg" width="24.14" height="23.97" viewBox="0 0 24.14 23.97"><path d="M11.26,13.14H11a.92.92,0,0,1-.33-.06.48.48,0,0,1-.22-.62l0-.06a.51.51,0,0,1,.35-.22h4.76c.25,0,.28,0,.28-.3V10.49c0-.17,0-.22.21-.22h3.6a.36.36,0,0,1,.35.22c.08.14.17.29.24.44a.67.67,0,0,1,0,.52A5.6,5.6,0,0,1,20,12v.07c0,.09,0,.12.09.12h1.54c.14,0,.16,0,.16-.17V1.61c0-.32-.06-.38-.37-.38H6.58a3.53,3.53,0,0,0-.46,0,.21.21,0,0,0-.21.22v.29a.48.48,0,0,1-.28.41.4.4,0,0,1-.47-.1A.62.62,0,0,1,5,1.58V.82A.6.6,0,0,1,5.2.38V.3H22.53a.43.43,0,0,1,.23.32,1.6,1.6,0,0,1,0,.31V11.68c0,.28.11.38.34.39a.47.47,0,0,1,.44.28h0V14.2a.75.75,0,0,1-.48.3H10.76a.44.44,0,0,1-.31-.44.42.42,0,0,1,.31-.43H22.54c.09,0,.13,0,.15-.13s0-.37-.29-.37H11.26Z" transform="translate(0.08 -0.05)" fill="#900c3f" stroke="#000" stroke-miterlimit="10" stroke-width="0.5" fill-rule="evenodd"/><circle cx="5.53" cy="5.63" r="2.78" fill="#f77f00" stroke="#000" stroke-miterlimit="10" stroke-width="0.5"/><path d="M4.17,8.9s-2.53-.4-2.53,2.52v8.93A1.34,1.34,0,0,0,3,21.69H7.26A1.35,1.35,0,0,0,8.6,20.37l.13-7.2A1.34,1.34,0,0,1,9.44,12l1.6-.84a1.42,1.42,0,0,0,.48-.43l2.64-3.86s.63-1.51-.12-2-1.29-.76-2.1.39L10.35,7.52a1.27,1.27,0,0,1-.44.39,5.64,5.64,0,0,1-2.72.77Z" transform="translate(0.08 -0.05)" fill="#f77f00" stroke="#000" stroke-miterlimit="10" stroke-width="0.5" fill-rule="evenodd"/><circle cx="21.02" cy="17.77" r="2.41" fill="#bdcd31" stroke="#000" stroke-miterlimit="10" stroke-width="0.5"/><path d="M21,20.07h0a2.87,2.87,0,0,1,2.87,2.87v.78a0,0,0,0,1,0,0H18.15a0,0,0,0,1,0,0v-.78A2.87,2.87,0,0,1,21,20.07Z" fill="#bdcd31" stroke="#000" stroke-miterlimit="10" stroke-width="0.5"/><circle cx="14.95" cy="17.77" r="2.41" fill="#bdcd31" stroke="#000" stroke-miterlimit="10" stroke-width="0.5"/><path d="M15,20.07h0a2.87,2.87,0,0,1,2.87,2.87v.78a0,0,0,0,1,0,0H12.08a0,0,0,0,1,0,0v-.78A2.87,2.87,0,0,1,15,20.07Z" fill="#bdcd31" stroke="#000" stroke-miterlimit="10" stroke-width="0.5"/><circle cx="8.97" cy="17.77" r="2.41" fill="#bdcd31" stroke="#000" stroke-miterlimit="10" stroke-width="0.5"/><path d="M9,20.07H9a2.87,2.87,0,0,1,2.87,2.87v.78a0,0,0,0,1,0,0H6.09a0,0,0,0,1,0,0v-.78A2.87,2.87,0,0,1,9,20.07Z" fill="#bdcd31" stroke="#000" stroke-miterlimit="10" stroke-width="0.5"/><circle cx="3.12" cy="17.77" r="2.41" fill="#bdcd31" stroke="#000" stroke-miterlimit="10" stroke-width="0.5"/><path d="M3.12,20.07h0A2.87,2.87,0,0,1,6,22.94v.78a0,0,0,0,1,0,0H.25a0,0,0,0,1,0,0v-.78A2.87,2.87,0,0,1,3.12,20.07Z" fill="#bdcd31" stroke="#000" stroke-miterlimit="10" stroke-width="0.5"/></svg>