<svg id="Layer_1" data-name="Layer 1" xmlns="http://www.w3.org/2000/svg" width="24" height="24.28" viewBox="0 0 24 24.28"><path d="M2.44,8H21.56c1.15,0,2.19.52,2.19,1V22.75c0,.62-.94,1-2.19,1H2.44c-1.15,0-2.19-.52-2.19-1V9.1C.35,8.48,1.29,8,2.44,8Z" transform="translate(0 0.25)" fill="#f38630" stroke="#000" stroke-miterlimit="10" stroke-width="0.5"/><path d="M10,6.51h2.72c.73,0,1.25.31,1.25.62V8.79c0,.31-.52.62-1.25.62H10c-.62,0-1.15-.31-1.15-.62V7.13c0-.31.53-.62,1.15-.62Z" transform="translate(0 0.25)" fill="#c70039" stroke="#000" stroke-miterlimit="10" stroke-width="0.5" fill-rule="evenodd"/><polygon points="9.37 6.6 10.63 3.67 13.41 6.77 9.37 6.6" fill="#ffc300"/><path d="M11.22,17.58c3.44,0,6.26-1.45,6.26-3.1s-2.71-3.11-6.26-3.11S5,12.82,5,14.48s2.92,3.1,6.27,3.1Z" transform="translate(0 0.25)" fill="#f7c116" stroke="#000" stroke-miterlimit="10" stroke-width="0.5"/><polyline points="10.9 3.98 14.77 0.25 19.26 0.36 13.31 6.56 7.87 0.36 3.07 0.36 9.44 6.87" fill="#ffc300" stroke="#000" stroke-miterlimit="10" stroke-width="0.5"/><line x1="4.11" y1="19.48" x2="9.75" y2="19.48" fill="none" stroke="#000" stroke-miterlimit="10" stroke-width="0.5"/><line x1="10.9" y1="19.48" x2="14.56" y2="19.48" fill="none" stroke="#000" stroke-miterlimit="10" stroke-width="0.5"/><line x1="19.36" y1="21.45" x2="11.01" y2="21.45" fill="none" stroke="#000" stroke-miterlimit="10" stroke-width="0.5"/><line x1="10.17" y1="21.45" x2="8.19" y2="21.45" fill="none" stroke="#000" stroke-miterlimit="10" stroke-width="0.5"/><line x1="7.35" y1="21.45" x2="4.32" y2="21.45" fill="none" stroke="#000" stroke-miterlimit="10" stroke-width="0.5"/><path d="M13.1,15.51a6,6,0,0,1,2.19,1.34,12,12,0,0,1-7.73,0,3.49,3.49,0,0,1,2.09-1.34Z" transform="translate(0 0.25)" fill="#109ca6"/><path d="M11.11,12.93c1.05,0,1.88.41,1.88.93s-.83,1-1.88,1-2-.41-2-1S10,12.93,11.11,12.93Z" transform="translate(0 0.25)" fill="#109ca6"/><path d="M11.11,14.89c1.05,0,1.88-.41,1.88-1s-.83-.93-1.88-.93-2,.41-2,.93S10,14.89,11.11,14.89Z" transform="translate(0 0.25)" fill="none" stroke="#000" stroke-miterlimit="10" stroke-width="0.5"/><path d="M7.56,16.85a3.49,3.49,0,0,1,2.09-1.34H13.1a6,6,0,0,1,2.19,1.34A12,12,0,0,1,7.56,16.85Z" transform="translate(0 0.25)" fill="none" stroke="#000" stroke-miterlimit="10" stroke-width="0.5"/><path d="M3.28,9.82c.63,0,1-.2,1-.41S3.91,9,3.28,9s-.94.2-.94.41.42.41.94.41Z" transform="translate(0 0.25)" fill="#bdcd31" stroke="#000" stroke-miterlimit="10" stroke-width="0.5"/><path d="M19.57,9.82c.52,0,.94-.2.94-.41S20.09,9,19.57,9s-1,.2-1,.41.42.41,1,.41Z" transform="translate(0 0.25)" fill="#bdcd31" stroke="#000" stroke-miterlimit="10" stroke-width="0.5"/></svg>