<svg id="BACKGROUND" xmlns="http://www.w3.org/2000/svg" width="24" height="23.96" viewBox="0 0 24 23.96"><path d="M20.36,1a.73.73,0,0,0-.09.35V7.14l-3-2.67V1.27a.41.41,0,0,0,0-.22h3.12" transform="translate(-0.02 -0.04)" fill="#006ae3"/><path d="M22.49.29h-7v1h1.08V4.8L21,8.8V1.38h1.49Z" transform="translate(-0.02 -0.04)" fill="#109ca6" stroke="#000" stroke-miterlimit="10" stroke-width="0.5"/><polygon points="0.61 10.95 12.3 0.89 23.35 10.98 20.54 10.98 20.57 23.7 3.3 23.7 3.21 11.2 0.61 10.95" fill="#69d2e7" stroke="#000" stroke-miterlimit="10" stroke-width="0.5"/><path d="M18.21,21.15H5.8A1.14,1.14,0,0,1,4.67,20h0v-1.7H19.33V20A1.15,1.15,0,0,1,18.21,21.15ZM5.41,19v1a.38.38,0,0,0,.38.38H18.21A.4.4,0,0,0,18.6,20V19Z" transform="translate(-0.02 -0.04)" fill="#bdcd31" stroke="#000" stroke-miterlimit="10" stroke-width="0.25"/><path d="M6,10H17.84A1.16,1.16,0,0,1,19,11.17v6.67H4.87V11.16A1.14,1.14,0,0,1,6,10Z" transform="translate(-0.02 -0.04)" fill="#d62828" stroke="#000" stroke-miterlimit="10" stroke-width="0.5"/><rect x="11.72" y="19.05" width="0.73" height="1.34" fill="#bdcd31" stroke="#000" stroke-miterlimit="10" stroke-width="0.25"/><rect x="6.37" y="11.28" width="1.88" height="1.88" fill="#fcbf49" stroke="#000" stroke-miterlimit="10" stroke-width="0.25"/><rect x="9.54" y="11.28" width="1.88" height="1.88" fill="#fcbf49" stroke="#000" stroke-miterlimit="10" stroke-width="0.25"/><rect x="12.96" y="11.35" width="1.88" height="1.88" fill="#fcbf49" stroke="#000" stroke-miterlimit="10" stroke-width="0.25"/><rect x="10.97" y="14.47" width="1.88" height="1.88" fill="#fcbf49" stroke="#000" stroke-miterlimit="10" stroke-width="0.25"/><rect x="7.89" y="14.47" width="1.88" height="1.88" fill="#fcbf49" stroke="#000" stroke-miterlimit="10" stroke-width="0.25"/><rect x="16" y="11.35" width="1.88" height="1.88" fill="#fcbf49" stroke="#000" stroke-miterlimit="10" stroke-width="0.25"/><rect x="14.53" y="14.47" width="1.88" height="1.88" fill="#fcbf49" stroke="#000" stroke-miterlimit="10" stroke-width="0.25"/></svg>