<svg id="Layer_1" data-name="Layer 1" xmlns="http://www.w3.org/2000/svg" width="24.15" height="24" viewBox="0 0 24.15 24"><polygon points="6.43 6.45 0.07 19.06 0.07 23.93 22.29 23.75 11.18 6.72 6.43 6.45" fill="#e0ef1b" opacity="0.2"/><line x1="10.47" y1="4.82" x2="10.47" y2="4.81" fill="none" stroke="#0066e3" stroke-miterlimit="10"/><path d="M10.23,1.46H23.82V23.82H.18V21.35H21V4.08H10S10.14,1.54,10.23,1.46Z" transform="translate(0.07 -0.07)" fill="#c70039" stroke="#000" stroke-miterlimit="10" stroke-width="0.5"/><path d="M2,21.31V19.16s7.62-.4,7.83,2.06c0,0-.42-2.5,9.36-1.9v2Z" transform="translate(0.07 -0.07)" fill="#f7c116" stroke="#000" stroke-miterlimit="10" stroke-width="0.5"/><path d="M18,17.35c-3.53-1-8.77,2.87-8.77,2.87" transform="translate(0.07 -0.07)" fill="none" stroke="#000" stroke-linejoin="round"/><path d="M9.46,19.69c-.29.07-4.6-2.87-7.44-2.52" transform="translate(0.07 -0.07)" fill="none" stroke="#000" stroke-linejoin="round"/><path d="M17,14.58c-2.21-.64-7.42,5.3-7.42,5.3" transform="translate(0.07 -0.07)" fill="none" stroke="#000" stroke-linejoin="round"/><path d="M9.46,19.28s-4.39-5-6.88-4.83" transform="translate(0.07 -0.07)" fill="none" stroke="#000" stroke-linejoin="round"/><path d="M2.88,8.3l9.85-.21C13,8.2,8.21-.46,2.88,8.3Z" transform="translate(0.07 -0.07)" fill="#003049" stroke="#000" stroke-linecap="round" stroke-linejoin="round" stroke-width="0.5"/><polygon points="6.43 4.65 7.07 0.25 10.31 0.25 10.31 5.09 6.43 4.65" fill="#003049" stroke="#000" stroke-linecap="round" stroke-linejoin="round" stroke-width="0.5"/><path d="M8.29,8.31H9.63A1.34,1.34,0,0,1,7,8.31Z" transform="translate(0.07 -0.07)" fill="#e0ef1b" stroke="#000" stroke-linecap="round" stroke-linejoin="round" stroke-width="0.5"/><line x1="6.4" y1="9.47" x2="5.79" y2="10.27" fill="#e0ef1b" stroke="#000" stroke-linecap="round" stroke-linejoin="round" stroke-width="0.5"/><line x1="9.86" y1="9.87" x2="10.47" y2="10.67" fill="#e0ef1b" stroke="#000" stroke-linecap="round" stroke-linejoin="round" stroke-width="0.5"/><line x1="8.2" y1="10.27" x2="8.21" y2="11.93" fill="#e0ef1b" stroke="#000" stroke-linecap="round" stroke-linejoin="round" stroke-width="0.5"/></svg>