<svg id="Layer_1" data-name="Layer 1" xmlns="http://www.w3.org/2000/svg" width="24.06" height="23.74" viewBox="0 0 24.06 23.74"><path d="M21.17,16.74c.65,3.54,2.71,4.55,2.61,5.07,0,2.28-20.41,2.59-20.93-.1,0-.82,1.53-.53,2.48-5.09h0c0,.11-.31,1.56-.31,1.56,7.57,3,16.61.62,16.4,0a8.86,8.86,0,0,1-.31-1.45Z" transform="translate(0.03 -0.13)" fill="#ffc300"/><path d="M14.53,2.72c3.41.93,6.47,5,6.61,12.77h-.31a3.73,3.73,0,0,1-.1-.72,45.12,45.12,0,0,1-14.81-.21H5.55c0-1.47-.15-2.6-.07-3.71a12.5,12.5,0,0,1,.32-1.7A4,4,0,0,0,9.05,5.35a3.29,3.29,0,0,0-.24-1.26,6.67,6.67,0,0,1,2.77-1.42,5.94,5.94,0,0,1,2.93,0Z" transform="translate(0.03 -0.13)" fill="#ffc300"/><path d="M11.58,2.66c1.25-2.88,2-3.21,2.93,0a5.94,5.94,0,0,0-2.93,0Z" transform="translate(0.03 -0.13)" fill="#ffc300"/><path d="M9.05,5.35A4,4,0,0,1,5.8,9.14a9.07,9.07,0,0,1,.34-1.08,9,9,0,0,1,2.67-4A3.29,3.29,0,0,1,9.05,5.35Z" transform="translate(0.03 -0.13)" fill="#c70039"/><path d="M20.73,14.77a3.73,3.73,0,0,0,.1.72c-6.1,1.35-14.93-.1-14.93-.1a4.76,4.76,0,0,0,0-.83A45.12,45.12,0,0,0,20.73,14.77Z" transform="translate(0.03 -0.13)" fill="#900c3f"/><path d="M5.9,14.56h0Z" transform="translate(0.03 -0.13)" fill="#396bb4"/><path d="M21.15,16.63s0,.08,0,.11h0c-7.47,2.17-15.78-.11-15.78-.11h0c0-.06,0-.12,0-.19a12.22,12.22,0,0,0,.18-1.88h.37a4.76,4.76,0,0,1,0,.83s8.83,1.45,14.93.1h.31C21.16,15.87,21.16,16.25,21.15,16.63Z" transform="translate(0.03 -0.13)" fill="#ffc300"/><path d="M21.15,16.74a8.86,8.86,0,0,0,.31,1.45c.21.62-8.83,3-16.4,0,0,0,.31-1.45.31-1.56S13.68,18.91,21.15,16.74Z" transform="translate(0.03 -0.13)" fill="#900c3f"/><path d="M8.81,4.09a9,9,0,0,0-2.67,4l-.91-.32s0-.07,0-.11a.59.59,0,0,0-.63-.52V6.59H5l.21-4.24.13-.88A4.27,4.27,0,0,1,8.81,4.09Z" transform="translate(0.03 -0.13)" fill="#c70039"/><path d="M6.14,8.06A9.07,9.07,0,0,0,5.8,9.14a4.85,4.85,0,0,1-1.16.14,4.22,4.22,0,0,1-4.42-4c0-2.18,2-3.83,4.42-3.83a3.49,3.49,0,0,1,.65.05l-.13.88H4.22l.1,4.24h.32v.52c-.42,0-.63.21-.63.52a.6.6,0,0,0,.63.62c.27,0,.47-.24.59-.51Z" transform="translate(0.03 -0.13)" fill="#c70039"/><path d="M21.14,15.49c0,.38,0,.76,0,1.14,0,0,0,.08,0,.11.65,3.54,2.71,4.55,2.61,5.07,0,2.28-20.41,2.59-20.93-.1,0-.82,1.53-.53,2.48-5.09,0-.06,0-.12,0-.19a12.22,12.22,0,0,0,.18-1.88c0-1.47-.15-2.6-.07-3.71a12.5,12.5,0,0,1,.32-1.7,9.07,9.07,0,0,1,.34-1.08,9,9,0,0,1,2.67-4,6.67,6.67,0,0,1,2.77-1.42,5.94,5.94,0,0,1,2.93,0h0C17.94,3.65,21,7.68,21.14,15.49Z" transform="translate(0.03 -0.13)" fill="none" stroke="#000" stroke-miterlimit="10" stroke-width="0.5"/><path d="M11.58,2.66c1.25-2.88,2-3.21,2.93,0a.43.43,0,0,1,0,0" transform="translate(0.03 -0.13)" fill="none" stroke="#000" stroke-miterlimit="10" stroke-width="0.5"/><path d="M5.92,14.56a4.76,4.76,0,0,1,0,.83s8.83,1.45,14.93.1a3.73,3.73,0,0,1-.1-.72,45.12,45.12,0,0,1-14.81-.21h0Z" transform="translate(0.03 -0.13)" fill="none" stroke="#000" stroke-miterlimit="10" stroke-width="0.5"/><path d="M5.37,16.63s8.31,2.28,15.78.11a8.86,8.86,0,0,0,.31,1.45c.21.62-8.83,3-16.4,0C5.06,18.19,5.37,16.74,5.37,16.63Z" transform="translate(0.03 -0.13)" fill="none" stroke="#000" stroke-miterlimit="10" stroke-width="0.5"/><path d="M5.23,7.74c-.12.27-.32.51-.59.51A.6.6,0,0,1,4,7.63c0-.31.21-.52.63-.52a.59.59,0,0,1,.63.52S5.24,7.71,5.23,7.74Z" transform="translate(0.03 -0.13)" fill="none" stroke="#000" stroke-miterlimit="10" stroke-width="0.5"/><polygon points="5.19 2.22 4.25 2.22 4.35 6.46 4.67 6.46 4.98 6.46 5.19 2.22" fill="none" stroke="#000" stroke-miterlimit="10" stroke-width="0.5"/><path d="M5.29,1.47a3.49,3.49,0,0,0-.65-.05C2.22,1.42.22,3.07.22,5.25a4.22,4.22,0,0,0,4.42,4A4.85,4.85,0,0,0,5.8,9.14,4,4,0,0,0,9.05,5.35a3.29,3.29,0,0,0-.24-1.26A4.27,4.27,0,0,0,5.29,1.47Z" transform="translate(0.03 -0.13)" fill="none" stroke="#000" stroke-miterlimit="10" stroke-width="0.5"/><path d="M11.58,2.67a10.11,10.11,0,0,1,2.95.05" transform="translate(0.03 -0.13)" fill="#ffc300" stroke="#000" stroke-miterlimit="10" stroke-width="0.5"/><ellipse cx="4.67" cy="5.22" rx="4.29" ry="4.23" fill="#c70039" stroke="#000" stroke-miterlimit="10" stroke-width="0.5"/><polygon points="3.43 1.91 5.76 1.91 4.72 6.15 3.43 1.91" fill="#fff" stroke="#000" stroke-linecap="round" stroke-linejoin="round" stroke-width="0.25"/><ellipse cx="4.72" cy="7.55" rx="0.73" ry="0.72" fill="#fff" stroke="#000" stroke-linecap="round" stroke-linejoin="round" stroke-width="0.25"/></svg>