<?xml version="1.0" encoding="utf-8"?>
<!-- Generator: Adobe Illustrator 24.3.0, SVG Export Plug-In . SVG Version: 6.00 Build 0)  -->
<svg version="1.1" id="BACKGROUND" xmlns="http://www.w3.org/2000/svg" xmlns:xlink="http://www.w3.org/1999/xlink" x="0px" y="0px"
	 viewBox="0 0 23.8 23.5" style="enable-background:new 0 0 23.8 23.5;" xml:space="preserve">
<style type="text/css">
	.st0{fill:#BDCD31;stroke:#000000;stroke-width:0.5;stroke-miterlimit:10;}
</style>
<path class="st0" d="M12.1,0.4c-6,0-11,4.7-11.3,10.7h7.4V9.3c0-0.2,0.1-0.5,0.2-0.7c0.4-0.5,1-0.6,1.5-0.2l4.1,2.9
	c0.2,0,0.4,0.2,0.5,0.4c0,0,0,0,0,0c0.2,0.5,0,1.2-0.5,1.4L10,16c-0.2,0.1-0.4,0.2-0.6,0.2c-0.6,0-1.1-0.5-1.1-1.1v-1.8H0.9
	c0.8,5.5,5.5,9.8,11.2,9.8c6.3,0,11.3-5.1,11.3-11.3S18.4,0.4,12.1,0.4z"/>
</svg>
