<svg id="Layer_1" data-name="Layer 1" xmlns="http://www.w3.org/2000/svg" width="23.62" height="24.01" viewBox="0 0 23.62 24.01"><path d="M3.83,22a2.12,2.12,0,0,0,2.23,2H21.54a2.13,2.13,0,0,0,2.27-2V20H20.17V2a2.12,2.12,0,0,0-2.23-2H2.46A2.13,2.13,0,0,0,.19,2V4H3.83Z" transform="translate(-0.19 0)" fill="#030405"/><path d="M19.73,20.81H22.9V22a1.27,1.27,0,0,1-1.33,1.2H7.91A1.78,1.78,0,0,0,8.37,22V20.8Z" transform="translate(-0.19 0)" fill="#e0e4cc"/><path d="M17.9.79A1.27,1.27,0,0,1,19.26,2V20H7.46v2a1.27,1.27,0,0,1-1.33,1.2h0a1.27,1.27,0,0,1-1.39-1.14V2A2,2,0,0,0,4.28.79Z" transform="translate(-0.19 0)" fill="#f7c116"/><path d="M1.1,3.19V2A1.26,1.26,0,0,1,2.41.79h0A1.26,1.26,0,0,1,3.81,1.92a.22.22,0,0,1,0,.08V3.19Z" transform="translate(-0.19 0)" fill="#ffc300"/><path d="M9.5,2.39H12v13.7h4.12v2.27H9.5Z" transform="translate(-0.19 0)" fill="#ff5733" stroke="#000" stroke-miterlimit="10" stroke-width="0.5"/></svg>