<svg id="Layer_1" data-name="Layer 1" xmlns="http://www.w3.org/2000/svg" width="23.98" height="23.67" viewBox="0 0 23.98 23.67"><path d="M2.28.7H21.69c1,0,1.79,1.14,1.79,2.47V16.35c0,1.34-.76,2.52-1.75,2.52H7.37l-2.43,3.5-.16-3.5H2.32c-1,0-1.82-1.18-1.82-2.52V3.17C.5,1.84,1.3.7,2.28.7Z" transform="translate(0 -0.2)" fill="#bdcd31" stroke="#000" stroke-miterlimit="10"/><rect x="7.89" y="2.67" width="12.8" height="1.44" fill="#ed8622" stroke="#000" stroke-miterlimit="10" stroke-width="0.5"/><rect x="1.84" y="5.98" width="19.13" height="1.39" fill="#ed8622" stroke="#000" stroke-miterlimit="10" stroke-width="0.5"/><rect x="1.84" y="9.3" width="19.36" height="1.43" fill="#ed8622" stroke="#000" stroke-miterlimit="10" stroke-width="0.5"/><rect x="1.66" y="12.83" width="12.46" height="1.4" fill="#ed8622" stroke="#000" stroke-miterlimit="10" stroke-width="0.5"/><ellipse cx="15.86" cy="13.53" rx="0.79" ry="0.88" fill="#ed8622" stroke="#000" stroke-miterlimit="10" stroke-width="0.5"/><ellipse cx="18.41" cy="13.54" rx="0.79" ry="0.88" fill="#ed8622" stroke="#000" stroke-miterlimit="10" stroke-width="0.5"/><ellipse cx="20.96" cy="13.53" rx="0.79" ry="0.88" fill="#ed8622" stroke="#000" stroke-miterlimit="10" stroke-width="0.5"/></svg>