<svg id="Layer_1" data-name="Layer 1" xmlns="http://www.w3.org/2000/svg" width="24.24" height="24.24" viewBox="0 0 24.24 24.24"><rect x="0.44" y="0.44" width="23.56" height="23.23" fill="#f7c39f" opacity="0.56"/><path d="M3,4A4.74,4.74,0,0,1,4.4,2.32H5.53v.12A5.13,5.13,0,0,0,4.12,4.2a5,5,0,0,0-.47,2.18,4.93,4.93,0,0,0,1.88,4v.11H4.4A4.74,4.74,0,0,1,3,8.75a5.25,5.25,0,0,1-.51-2.37A5.29,5.29,0,0,1,3,4Z" transform="translate(-0.01 -0.01)" fill="#f77f00" stroke="#000" stroke-miterlimit="10" stroke-width="0.5"/><path d="M8.42,9.6l-.63-.86H7.26A2.65,2.65,0,0,1,6,8.42a2.34,2.34,0,0,1-.89-.82A2.48,2.48,0,0,1,4.8,6.3,2.58,2.58,0,0,1,5.12,5,2.3,2.3,0,0,1,6,4.13a2.58,2.58,0,0,1,2.5,0A2.26,2.26,0,0,1,9.39,5a2.58,2.58,0,0,1,.32,1.3,2.42,2.42,0,0,1-1,2L9.84,9.6ZM6.36,7.32a1.14,1.14,0,0,0,.92.38,1.22,1.22,0,0,0,.92-.38,1.52,1.52,0,0,0,.34-1,1.46,1.46,0,0,0-.35-1,1.11,1.11,0,0,0-.93-.42,1.11,1.11,0,0,0-.9.38,1.4,1.4,0,0,0-.34,1A1.41,1.41,0,0,0,6.36,7.32Z" transform="translate(-0.01 -0.01)" fill="#c70039" stroke="#000" stroke-miterlimit="10" stroke-width="0.5"/><path d="M12.77,8.74a4.6,4.6,0,0,1-1.36,1.7H10.26v-.11a4.92,4.92,0,0,0,1.89-3.94,5,5,0,0,0-.47-2.19,5.2,5.2,0,0,0-1.42-1.77V2.32h1.15A4.72,4.72,0,0,1,12.77,4a5.16,5.16,0,0,1,.51,2.35A5.17,5.17,0,0,1,12.77,8.74Z" transform="translate(-0.01 -0.01)" fill="#f77f00" stroke="#000" stroke-miterlimit="10" stroke-width="0.5"/><path d="M13.12,16.67l-.45-.6a1.15,1.15,0,0,1-.37,0,1.79,1.79,0,0,1-.87-.22,1.68,1.68,0,0,1-.62-.62,1.86,1.86,0,0,1,0-1.8,1.68,1.68,0,0,1,.62-.62,1.81,1.81,0,0,1,1.75,0,1.52,1.52,0,0,1,.61.62,1.66,1.66,0,0,1,.23.9,1.84,1.84,0,0,1-.18.8,1.46,1.46,0,0,1-.5.6l.76.9Zm-1.46-1.6a.91.91,0,0,0,1.26,0h0a1.17,1.17,0,0,0,0-1.42.91.91,0,0,0-1.28,0,1.19,1.19,0,0,0,0,1.43Z" transform="translate(-0.01 -0.01)" fill="#c70039" stroke="#000" stroke-miterlimit="10" stroke-width="0.25"/><path d="M15.22,13.44v-.77h1.37v3.4h-.86V13.44Z" transform="translate(-0.01 -0.01)" fill="#69d2e7" stroke="#000" stroke-miterlimit="10" stroke-width="0.25"/><path d="M17.87,15.25v.83H17v-.83Z" transform="translate(-0.01 -0.01)" fill="#69d2e7" stroke="#000" stroke-miterlimit="10" stroke-width="0.25"/><path d="M18.06,13.44v-.77h1.38v3.4h-.86V13.44Z" transform="translate(-0.01 -0.01)" fill="#69d2e7" stroke="#000" stroke-miterlimit="10" stroke-width="0.25"/><path d="M13.12,22.14l-.45-.6a2.29,2.29,0,0,1-.37,0,1.66,1.66,0,0,1-.87-.22,1.68,1.68,0,0,1-.62-.62,1.86,1.86,0,0,1,0-1.8,1.68,1.68,0,0,1,.62-.62,1.81,1.81,0,0,1,1.75,0,1.52,1.52,0,0,1,.61.62,1.66,1.66,0,0,1,.23.9,1.75,1.75,0,0,1-.18.81,1.71,1.71,0,0,1-.5.6l.76.9Zm-1.46-1.6a.91.91,0,0,0,1.28,0,1.19,1.19,0,0,0,0-1.43.91.91,0,0,0-1.28,0A1.19,1.19,0,0,0,11.66,20.54Z" transform="translate(-0.01 -0.01)" fill="#c70039" stroke="#000" stroke-miterlimit="10" stroke-width="0.25"/><path d="M15.22,18.91v-.77h1.37v3.4h-.86V18.91Z" transform="translate(-0.01 -0.01)" fill="#69d2e7" stroke="#000" stroke-miterlimit="10" stroke-width="0.25"/><path d="M17.87,20.72v.82H17v-.82Z" transform="translate(-0.01 -0.01)" fill="#69d2e7" stroke="#000" stroke-miterlimit="10" stroke-width="0.25"/><path d="M19.7,19.15c0-.27-.11-.4-.34-.4a.31.31,0,0,0-.28.14.77.77,0,0,0-.1.42h-.81a1.28,1.28,0,0,1,.38-.94,1.26,1.26,0,0,1,.87-.31,1.16,1.16,0,0,1,.84.28,1,1,0,0,1,.28.73,1.54,1.54,0,0,1-.38,1,3.47,3.47,0,0,1-.91.8H20.6v.66H18.17v-.62C19.19,20.16,19.7,19.58,19.7,19.15Z" transform="translate(-0.01 -0.01)" fill="#69d2e7" stroke="#000" stroke-miterlimit="10" stroke-width="0.25"/><rect x="0.25" y="0.25" width="23.74" height="23.74" fill="none" stroke="#000" stroke-miterlimit="10" stroke-width="0.5"/></svg>