<svg id="Layer_1" data-name="Layer 1" xmlns="http://www.w3.org/2000/svg" width="24" height="24" viewBox="0 0 24 24"><rect width="24" height="24" fill="#f7c116" opacity="0.65"/><polygon points="23.47 3.61 9.09 3.61 9.09 4.8 23.47 4.8 23.47 3.61 23.47 3.61" fill="#fa6900" stroke="#000" stroke-miterlimit="10" stroke-width="0.5"/><polygon points="23.59 12 8.97 12 8.97 13.2 23.59 13.2 23.59 12 23.59 12" fill="#fa6900" stroke="#000" stroke-miterlimit="10" stroke-width="0.5"/><polygon points="23.59 19.96 8.97 19.96 8.97 21.13 23.59 21.13 23.59 19.96 23.59 19.96" fill="#fa6900" stroke="#000" stroke-miterlimit="10" stroke-width="0.5"/><polygon points="5.47 1.84 3.4 3.9 2.59 3.1 1.7 3.98 3.4 5.67 6.35 2.72 5.47 1.84 5.47 1.84" fill="#38ad27" stroke="#000" stroke-miterlimit="10" stroke-width="0.25"/><path d="M6.68,1.42V6H1.31V1.42H6.68M7.34.76H.64v5.9h6.7Z"/><polygon points="5.54 10.12 3.38 12.27 2.53 11.42 1.61 12.35 3.38 14.12 6.46 11.04 5.54 10.12 5.54 10.12" fill="#38ad27" stroke="#000" stroke-miterlimit="10" stroke-width="0.25"/><path d="M6.8,9.85v4.73H1.21V9.85H6.8m.69-.69h-7v6.15h7Z"/><polygon points="4.97 18.35 4.06 19.26 3.15 18.35 2.15 19.35 3.06 20.26 2.15 21.16 3.15 22.15 4.06 21.24 4.97 22.15 5.96 21.16 5.05 20.26 5.96 19.35 4.97 18.35 4.97 18.35" fill="#d62828" stroke="#000" stroke-miterlimit="10" stroke-width="0.25"/><path d="M6.68,18v4.59H1.31V18H6.68m.66-.65H.64v5.9h6.7Z"/></svg>