<svg id="Layer_1" data-name="Layer 1" xmlns="http://www.w3.org/2000/svg" width="23.69" height="23.71" viewBox="0 0 23.69 23.71"><path d="M13,18.14a3.27,3.27,0,0,1,1.33,2.75A3.07,3.07,0,0,1,13.42,23a3.11,3.11,0,0,1-2.63.84,3.82,3.82,0,0,1-2.33-1.46l-.23.21A4.78,4.78,0,0,1,.16,19a4.62,4.62,0,0,1,1.37-3.25q1.77-1.82,3.6-3.63a3.12,3.12,0,0,0,1-2.31V2.23A1.94,1.94,0,0,1,7.87.15h.26a5.47,5.47,0,0,1,2.28.56,20.59,20.59,0,0,1,4.69,3,30.36,30.36,0,0,1,7.66,8.84,7.18,7.18,0,0,1,1.09,3.24,3.08,3.08,0,0,1-.15,1A1.84,1.84,0,0,1,21.9,18H14.18a8.52,8.52,0,0,0-1.12.12Z" transform="translate(-0.16 -0.15)"/><path d="M7.27,5.86v4a4.16,4.16,0,0,1-1.27,3L3.88,15a.43.43,0,0,0-.16.31,4.17,4.17,0,0,0,0,.79,4.72,4.72,0,0,0,4.86,4.14A.69.69,0,0,0,9,20.11c.68-.68,1.35-1.36,2.07-2.06a4.15,4.15,0,0,1,3.17-1.35h4A33.25,33.25,0,0,1,7.27,5.86Z" transform="translate(-0.16 -0.15)" fill="#109ca6"/><path d="M11.33,7.87a2,2,0,0,1,.69.07,4.67,4.67,0,0,1,4.11,5.18,2.46,2.46,0,0,1-.08.46.3.3,0,0,0,.15.37c.49.35,1,.73,1.46,1a9.7,9.7,0,0,0,4,1.66.74.74,0,0,0,.94-.45v0a.81.81,0,0,0,0-.31,4.17,4.17,0,0,0,0-.5,7,7,0,0,0-.86-2.3,29.09,29.09,0,0,0-11.17-11,6.08,6.08,0,0,0-2.31-.74c-.72-.09-1.1.28-1,1,.08.4.17.81.28,1.21A12.54,12.54,0,0,0,10,8a.31.31,0,0,0,.23,0Z" transform="translate(-0.16 -0.15)" fill="#bdcd31"/><path d="M2.58,16.36A3.55,3.55,0,0,0,4.4,22.58a3.63,3.63,0,0,0,3.26-1.15A6,6,0,0,1,2.58,16.36Z" transform="translate(-0.16 -0.15)" fill="#c70039"/><path d="M9.34,21.51a9.13,9.13,0,0,0,.7.69A1.91,1.91,0,0,0,12.73,22v0a1.73,1.73,0,0,0,.4-.8A2.17,2.17,0,0,0,12,18.8Z" transform="translate(-0.16 -0.15)" fill="#fff"/><path d="M11.08,9A23.29,23.29,0,0,0,15,12.91a3.48,3.48,0,0,0-3-3.87A4,4,0,0,0,11.08,9Z" transform="translate(-0.16 -0.15)" fill="#f7c116"/><path d="M20.94,2.47a2.44,2.44,0,0,1,.46.39.47.47,0,0,1-.06.61c-.42.45-.84.88-1.29,1.29a.53.53,0,0,1-.75,0A.55.55,0,0,1,19.2,4l0,0h0c.41-.44.84-.86,1.28-1.27A1.68,1.68,0,0,1,20.94,2.47Z" transform="translate(-0.16 -0.15)" fill="#010202"/><path d="M16.73,1.35V2a.58.58,0,0,1-1.16,0V.69A.59.59,0,0,1,16.2.15a.6.6,0,0,1,.53.55C16.74.93,16.73,1.15,16.73,1.35Z" transform="translate(-0.16 -0.15)" fill="#010202"/><path d="M22.68,7.27h.61a.56.56,0,0,1,.56.56h0a.59.59,0,0,1-.55.6H22.06a.56.56,0,0,1-.57-.56h0A.56.56,0,0,1,22,7.29h.64Z" transform="translate(-0.16 -0.15)" fill="#010202"/></svg>