<svg id="Layer_1" data-name="Layer 1" xmlns="http://www.w3.org/2000/svg" width="51.12" height="29.85" viewBox="0 0 51.12 29.85"><path d="M0,0H51.12V.51H0Z" transform="translate(0 0)" fill="#006ae3"/><path d="M0,4.79H51.12v.52H0Z" transform="translate(0 0)" fill="#006ae3"/><path d="M0,9.58H51.12v.52H0Z" transform="translate(0 0)" fill="#006ae3"/><path d="M0,14.38H51.12v.51H0Z" transform="translate(0 0)" fill="#006ae3"/><path d="M0,19.17H51.12v.51H0Z" transform="translate(0 0)" fill="#006ae3"/><path d="M0,24H51.12v.52H0Z" transform="translate(0 0)" fill="#006ae3"/><path d="M0,28.75H51.12v.52H0Z" transform="translate(0 0)" fill="#006ae3"/><path d="M38.87,29.67s-3.24-7-3.91-10.52S32.33,9.08,32.33,9.08a9.9,9.9,0,0,0-2.85,7s-3.71,11.36-5.73,13.58Z" transform="translate(0 0)" fill="#ec8f71"/><path d="M13.82,29.7l-.54-.4c4-5.49,5.56-11.3,6.81-16,1.55-5.71,2.65-9.84,7.24-9.68s5.21,3.71,6.34,9.07a54.71,54.71,0,0,0,5.78,16.66l-.58.33A54.82,54.82,0,0,1,33,12.88c-1.11-5.24-1.77-8.4-5.71-8.54s-5,3.56-6.55,9.17c-1.3,4.72-2.85,10.59-6.93,16.19Z" transform="translate(0 0)" fill="#fcbf49" stroke="#000" stroke-linecap="round" stroke-linejoin="round" stroke-width="0.25"/><path d="M23.75,29.7l-.55-.4c3.22-4.42,4.47-9.07,5.49-12.85,1.25-4.64,2.15-8,5.89-7.85s4.26,3,5.17,7.37a44.11,44.11,0,0,0,4.67,13.41l-.59.34A44.38,44.38,0,0,1,39.1,16.16c-.91-4.39-1.42-6.78-4.55-6.91s-4,2.86-5.23,7.35C28.32,20.44,27,25.18,23.75,29.7Z" transform="translate(0 0)" fill="#d62828" stroke="#000" stroke-linecap="round" stroke-linejoin="round" stroke-width="0.25"/></svg>