<svg id="Layer_1" data-name="Layer 1" xmlns="http://www.w3.org/2000/svg" width="30.54" height="30.16" viewBox="0 0 30.54 30.16"><path d="M5.83,13.91a.26.26,0,0,0-.27.25h0a.28.28,0,0,0,.27.3h0a.27.27,0,0,0,.26-.27h0A.29.29,0,0,0,5.83,13.91Z" transform="translate(0.29 -0.09)" fill="#bdcd31" stroke="#000" stroke-miterlimit="10" stroke-width="0.15"/><path d="M19,13.89h0a.26.26,0,0,0-.25.28.29.29,0,0,0,.08.23.26.26,0,0,0,.19.07h0c.07,0,.22,0,.26-.29a.27.27,0,0,0-.25-.29Z" transform="translate(0.29 -0.09)" fill="#bdcd31" stroke="#000" stroke-miterlimit="10" stroke-width="0.15"/><path d="M22.83,13.89h0a.26.26,0,0,0-.25.28.29.29,0,0,0,.08.23.26.26,0,0,0,.19.07h0a.28.28,0,0,0,.26-.26h0C23.09,13.92,22.92,13.89,22.83,13.89Z" transform="translate(0.29 -0.09)" fill="#bdcd31" stroke="#000" stroke-miterlimit="10" stroke-width="0.15"/><path d="M15.09,13.89h0a.29.29,0,0,0-.2.34.25.25,0,0,0,.25.23h0a.27.27,0,0,0,.19-.11.31.31,0,0,0,0-.23A.27.27,0,0,0,15.09,13.89Z" transform="translate(0.29 -0.09)" fill="#bdcd31" stroke="#000" stroke-miterlimit="10" stroke-width="0.15"/><path d="M5.05,13.89a.27.27,0,0,0-.26.27.32.32,0,0,0,.07.23.3.3,0,0,0,.2.08h0c.14,0,.23-.09.26-.28a.28.28,0,0,0-.26-.3Z" transform="translate(0.29 -0.09)" fill="#bdcd31" stroke="#000" stroke-miterlimit="10" stroke-width="0.15"/><path d="M1.2,13.89H1L.93,14v.42H1a.42.42,0,0,0,.19.06.24.24,0,0,0,.21-.12.3.3,0,0,0,0-.36A.26.26,0,0,0,1.2,13.89Z" transform="translate(0.29 -0.09)" fill="#bdcd31" stroke="#000" stroke-miterlimit="10" stroke-width="0.15"/><path d="M16.63,13.89h0a.26.26,0,0,0-.25.28.29.29,0,0,0,.08.23.26.26,0,0,0,.19.07h0c.13,0,.23-.11.25-.29a.29.29,0,0,0-.27-.29Z" transform="translate(0.29 -0.09)" fill="#bdcd31" stroke="#000" stroke-miterlimit="10" stroke-width="0.15"/><path d="M9.73,13.91a.25.25,0,0,0-.3.19v0a.28.28,0,0,0,.21.34h.1c.11,0,.2-.07.25-.25a.27.27,0,0,0-.24-.3Z" transform="translate(0.29 -0.09)" fill="#bdcd31" stroke="#000" stroke-miterlimit="10" stroke-width="0.15"/><path d="M3.52,13.89h0a.27.27,0,0,0-.23.32v0a.27.27,0,0,0,.25.24h0a.31.31,0,0,0,.2-.11.31.31,0,0,0,0-.23A.27.27,0,0,0,3.52,13.89Z" transform="translate(0.29 -0.09)" fill="#bdcd31" stroke="#000" stroke-miterlimit="10" stroke-width="0.15"/><path d="M17.47,13.91h0a.31.31,0,0,0-.22.09.26.26,0,0,0-.07.19.3.3,0,0,0,.31.28h0a.27.27,0,0,0,.27-.25A.35.35,0,0,0,17.47,13.91Z" transform="translate(0.29 -0.09)" fill="#bdcd31" stroke="#000" stroke-miterlimit="10" stroke-width="0.15"/><path d="M2,13.91a.26.26,0,0,0-.28.25.31.31,0,0,0,.28.31H2c.13,0,.23-.1.26-.27h0A.29.29,0,0,0,2,13.91Z" transform="translate(0.29 -0.09)" fill="#bdcd31" stroke="#000" stroke-miterlimit="10" stroke-width="0.15"/><path d="M7.39,13.89a.27.27,0,0,0-.27.27v0a.26.26,0,0,0,.25.28h0c.07,0,.24,0,.27-.31A.27.27,0,0,0,7.39,13.89Z" transform="translate(0.29 -0.09)" fill="#bdcd31" stroke="#000" stroke-miterlimit="10" stroke-width="0.15"/><path d="M9,13.89H9a.28.28,0,0,0-.26.26.29.29,0,0,0,.07.22.26.26,0,0,0,.19.1H9a.26.26,0,0,0,.26-.25A.28.28,0,0,0,9,13.89Z" transform="translate(0.29 -0.09)" fill="#bdcd31" stroke="#000" stroke-miterlimit="10" stroke-width="0.15"/><path d="M20.49,14.48h0a.29.29,0,0,0,.18-.46.27.27,0,0,0-.19-.11.28.28,0,0,0-.3.23.31.31,0,0,0,.28.34Z" transform="translate(0.29 -0.09)" fill="#bdcd31" stroke="#000" stroke-miterlimit="10" stroke-width="0.15"/><path d="M21.27,13.9h0a.28.28,0,0,0,.09.55h.06a.27.27,0,0,0,.22-.29A.58.58,0,0,0,21.27,13.9Z" transform="translate(0.29 -0.09)" fill="#bdcd31" stroke="#000" stroke-miterlimit="10" stroke-width="0.15"/><path d="M26.7,13.89h0a.27.27,0,0,0-.23.32v0a.26.26,0,0,0,.25.24h0a.31.31,0,0,0,.2-.11.31.31,0,0,0,0-.23A.27.27,0,0,0,26.7,13.89Z" transform="translate(0.29 -0.09)" fill="#bdcd31" stroke="#000" stroke-miterlimit="10" stroke-width="0.15"/><path d="M28.23,14.47h0c.16,0,.27-.11.28-.32a.28.28,0,0,0-.29-.27A.27.27,0,0,0,28,14a.32.32,0,0,0-.07.23.26.26,0,0,0,.28.24Z" transform="translate(0.29 -0.09)" fill="#bdcd31" stroke="#000" stroke-miterlimit="10" stroke-width="0.15"/><path d="M29,13.9h0a.27.27,0,0,0-.23.31.28.28,0,0,0,.29.25h0a.27.27,0,0,0,.25-.27C29.32,14,29.14,13.94,29,13.9Z" transform="translate(0.29 -0.09)" fill="#bdcd31" stroke="#000" stroke-miterlimit="10" stroke-width="0.15"/><path d="M8.14,22h0c-.19.05-.23.16-.23.25a.29.29,0,0,0,.07.2.31.31,0,0,0,.22.09h0a.27.27,0,0,0,.27-.26A.39.39,0,0,0,8.14,22Z" transform="translate(0.29 -0.09)" fill="#bdcd31" stroke="#000" stroke-miterlimit="10" stroke-width="0.15"/><path d="M19.76,22h-.07a.25.25,0,0,0-.23.29h0a.26.26,0,0,0,.27.24h.07a.26.26,0,0,0,.23-.28h0A.27.27,0,0,0,19.76,22Z" transform="translate(0.29 -0.09)" fill="#bdcd31" stroke="#000" stroke-miterlimit="10" stroke-width="0.15"/><path d="M12,22h0a.25.25,0,0,0-.27.23v0a.29.29,0,0,0,.27.29h0a.28.28,0,0,0,.26-.26.22.22,0,0,0-.08-.2A.3.3,0,0,0,12,22Z" transform="translate(0.29 -0.09)" fill="#bdcd31" stroke="#000" stroke-miterlimit="10" stroke-width="0.15"/><path d="M15.94,22h-.07a.29.29,0,0,0-.28.23v.05a.31.31,0,0,0,.23.25h.07a.27.27,0,1,0,0-.54Z" transform="translate(0.29 -0.09)" fill="#bdcd31" stroke="#000" stroke-miterlimit="10" stroke-width="0.15"/><path d="M23.59,22h0c-.19.05-.23.16-.23.25a.25.25,0,0,0,.07.2.31.31,0,0,0,.22.09h0a.27.27,0,0,0,.27-.26A.38.38,0,0,0,23.59,22Z" transform="translate(0.29 -0.09)" fill="#bdcd31" stroke="#000" stroke-miterlimit="10" stroke-width="0.15"/><path d="M27.53,22a.27.27,0,0,0-.33.19.06.06,0,0,0,0,0,.25.25,0,0,0,.19.3h.1a.3.3,0,0,0,.28-.22h0A.28.28,0,0,0,27.53,22Z" transform="translate(0.29 -0.09)" fill="#bdcd31" stroke="#000" stroke-miterlimit="10" stroke-width="0.15"/><path d="M23.6,6.33h0a.31.31,0,0,0,.2-.11.21.21,0,0,0,0-.19.28.28,0,0,0-.29-.24.24.24,0,0,0-.26.26.27.27,0,0,0,.25.29Z" transform="translate(0.29 -0.09)" fill="#bdcd31" stroke="#000" stroke-miterlimit="10" stroke-width="0.15"/><path d="M2,6.32H2a.28.28,0,0,0,.23-.09.26.26,0,0,0,0-.23.28.28,0,0,0-.31-.23A.29.29,0,0,0,1.69,6a.28.28,0,0,0,.06.18A.24.24,0,0,0,2,6.32Z" transform="translate(0.29 -0.09)" fill="#bdcd31" stroke="#000" stroke-miterlimit="10" stroke-width="0.15"/><path d="M25.19,5.79h-.05c-.08,0-.23,0-.27.27a.24.24,0,0,0,.2.27h.08a.29.29,0,0,0,.28-.23h0a.27.27,0,0,0-.23-.31Z" transform="translate(0.29 -0.09)" fill="#bdcd31" stroke="#000" stroke-miterlimit="10" stroke-width="0.15"/><path d="M8.09,14.47h0a.31.31,0,0,0,.32-.27.28.28,0,0,0,0-.18.32.32,0,0,0-.2-.12.3.3,0,0,0-.32.26.25.25,0,0,0,.18.31Z" transform="translate(0.29 -0.09)" fill="#bdcd31" stroke="#000" stroke-miterlimit="10" stroke-width="0.15"/><path d="M27.46,6.33h0a.25.25,0,0,0,.29-.2.35.35,0,0,0-.29-.38h0a.32.32,0,0,0-.22.1.2.2,0,0,0,0,.21A.26.26,0,0,0,27.46,6.33Z" transform="translate(0.29 -0.09)" fill="#bdcd31" stroke="#000" stroke-miterlimit="10" stroke-width="0.15"/><path d="M5.82,6.33h0a.28.28,0,0,0,.27-.28.28.28,0,0,0-.27-.26h0A.25.25,0,0,0,5.55,6v0a.27.27,0,0,0,.06.17A.32.32,0,0,0,5.82,6.33Z" transform="translate(0.29 -0.09)" fill="#bdcd31" stroke="#000" stroke-miterlimit="10" stroke-width="0.15"/><path d="M29.06,5.79H29c-.08,0-.22,0-.26.26a.21.21,0,0,0,.16.26H29a.28.28,0,0,0,.28-.24h0A.28.28,0,0,0,29.06,5.79Z" transform="translate(0.29 -0.09)" fill="#bdcd31" stroke="#000" stroke-miterlimit="10" stroke-width="0.15"/><path d="M19.7,14.48h0a.29.29,0,0,0,.27-.31h0a.26.26,0,0,0-.26-.25h0a.32.32,0,0,0-.27.3h0A.28.28,0,0,0,19.7,14.48Z" transform="translate(0.29 -0.09)" fill="#bdcd31" stroke="#000" stroke-miterlimit="10" stroke-width="0.15"/><path d="M18.17,14.47h0c.06,0,.23-.06.23-.34v-.05h0a.19.19,0,0,0-.24-.14h0a.27.27,0,1,0,0,.53Z" transform="translate(0.29 -0.09)" fill="#bdcd31" stroke="#000" stroke-miterlimit="10" stroke-width="0.15"/><path d="M8.15,6.33h0a.27.27,0,0,0,.21-.09.24.24,0,0,0,.05-.18.28.28,0,0,0-.26-.28A.29.29,0,0,0,7.87,6a.26.26,0,0,0,.06.21A.27.27,0,0,0,8.15,6.33Z" transform="translate(0.29 -0.09)" fill="#bdcd31" stroke="#000" stroke-miterlimit="10" stroke-width="0.15"/><path d="M22.05,13.91h0a.28.28,0,0,0-.28.26.35.35,0,0,0,.08.22.27.27,0,0,0,.19.08h0c.15,0,.24-.11.26-.29A.25.25,0,0,0,22.05,13.91Z" transform="translate(0.29 -0.09)" fill="#bdcd31" stroke="#000" stroke-miterlimit="10" stroke-width="0.15"/><path d="M9.74,5.79H9.69c-.08,0-.23,0-.27.26a.24.24,0,0,0,.2.27H9.7a.3.3,0,0,0,.3-.23V6A.28.28,0,0,0,9.74,5.79Z" transform="translate(0.29 -0.09)" fill="#bdcd31" stroke="#000" stroke-miterlimit="10" stroke-width="0.15"/><path d="M25.88,14.47h0a.27.27,0,0,0,.19-.08.29.29,0,0,0,.07-.22.24.24,0,0,0-.22-.26h-.06a.31.31,0,0,0-.26.28A.3.3,0,0,0,25.88,14.47Z" transform="translate(0.29 -0.09)" fill="#bdcd31" stroke="#000" stroke-miterlimit="10" stroke-width="0.15"/><path d="M12,6.33h0a.25.25,0,0,0,.27-.23v0h0A.26.26,0,0,0,12,5.82h0a.24.24,0,0,0-.21.08.31.31,0,0,0-.07.2A.28.28,0,0,0,12,6.33Z" transform="translate(0.29 -0.09)" fill="#bdcd31" stroke="#000" stroke-miterlimit="10" stroke-width="0.15"/><path d="M27.43,14.47h0a.33.33,0,0,0,.28-.3v-.06a.28.28,0,0,0-.26-.2h0a.3.3,0,0,0-.27.31.24.24,0,0,0,.23.25Z" transform="translate(0.29 -0.09)" fill="#bdcd31" stroke="#000" stroke-miterlimit="10" stroke-width="0.15"/><path d="M2.73,14.48h0A.29.29,0,0,0,3,14.2a.31.31,0,0,0-.07-.2.28.28,0,0,0-.4,0,.25.25,0,0,0-.07.2A.29.29,0,0,0,2.73,14.48Z" transform="translate(0.29 -0.09)" fill="#bdcd31" stroke="#000" stroke-miterlimit="10" stroke-width="0.15"/><path d="M13.55,5.79h0a.25.25,0,0,0-.2.09.32.32,0,0,0-.07.23.25.25,0,0,0,.26.22h.06a.26.26,0,0,0,.25-.27.13.13,0,0,0,0-.06A.28.28,0,0,0,13.55,5.79Z" transform="translate(0.29 -0.09)" fill="#bdcd31" stroke="#000" stroke-miterlimit="10" stroke-width="0.15"/><path d="M29.76,14.47h.06a.27.27,0,0,0,.22-.31.25.25,0,0,0-.26-.24h-.05a.26.26,0,0,0-.23.28.26.26,0,0,0,.25.27Z" transform="translate(0.29 -0.09)" fill="#bdcd31" stroke="#000" stroke-miterlimit="10" stroke-width="0.15"/><path d="M4.3,13.91h0a.32.32,0,0,0-.27.3H4a.26.26,0,0,0,.25.24h0a.27.27,0,0,0,.27-.29v0A.26.26,0,0,0,4.3,13.91Z" transform="translate(0.29 -0.09)" fill="#bdcd31" stroke="#000" stroke-miterlimit="10" stroke-width="0.15"/><path d="M15.85,6.33h0a.28.28,0,0,0,.27-.22h0a.31.31,0,0,0-.23-.28.26.26,0,0,0-.32.18.22.22,0,0,0,0,.08.24.24,0,0,0,.26.24Z" transform="translate(0.29 -0.09)" fill="#bdcd31" stroke="#000" stroke-miterlimit="10" stroke-width="0.15"/><path d="M17.4,6.33h0a.31.31,0,0,0,.22-.09A.3.3,0,0,0,17.7,6c0-.13-.11-.23-.29-.25a.3.3,0,0,0-.26.27.22.22,0,0,0,.05.19A.37.37,0,0,0,17.4,6.33Z" transform="translate(0.29 -0.09)" fill="#bdcd31" stroke="#000" stroke-miterlimit="10" stroke-width="0.15"/><path d="M15.84,14.47h0a.33.33,0,0,0,.29-.28h0a.28.28,0,0,0-.28-.24h0a.31.31,0,0,0-.29.3.24.24,0,0,0,.07.18A.23.23,0,0,0,15.84,14.47Z" transform="translate(0.29 -0.09)" fill="#bdcd31" stroke="#000" stroke-miterlimit="10" stroke-width="0.15"/><path d="M19.73,6.33h0A.27.27,0,0,0,20,6.08h0a.26.26,0,0,0-.25-.26h0a.27.27,0,0,0-.21.09.22.22,0,0,0-.07.2A.26.26,0,0,0,19.73,6.33Z" transform="translate(0.29 -0.09)" fill="#bdcd31" stroke="#000" stroke-miterlimit="10" stroke-width="0.15"/><path d="M21.21,6.32h.08a.28.28,0,0,0,.27-.23h0a.27.27,0,0,0-.24-.28h-.06c-.08,0-.22,0-.26.27A.25.25,0,0,0,21.21,6.32Z" transform="translate(0.29 -0.09)" fill="#bdcd31" stroke="#000" stroke-miterlimit="10" stroke-width="0.15"/><path d="M4.32,5.79h0a.24.24,0,0,0-.21.08.3.3,0,0,0-.08.2.28.28,0,0,0,.28.26h0a.27.27,0,0,0,.28-.24h0A.28.28,0,0,0,4.32,5.79Z" transform="translate(0.29 -0.09)" fill="#bdcd31" stroke="#000" stroke-miterlimit="10" stroke-width="0.15"/><path d="M6.84,14.07a.23.23,0,0,0-.26-.16.28.28,0,0,0-.26.27.27.27,0,0,0,.25.29h0a.31.31,0,0,0,.23-.33v-.07Z" transform="translate(0.29 -0.09)" fill="#bdcd31" stroke="#000" stroke-miterlimit="10" stroke-width="0.15"/><path d="M11.27,5.8h0a.26.26,0,0,0-.26.25.21.21,0,0,0,0,.19.25.25,0,0,0,.2.09h0a.25.25,0,0,0,.27-.23v0A.27.27,0,0,0,11.27,5.8Z" transform="translate(0.29 -0.09)" fill="#bdcd31" stroke="#000" stroke-miterlimit="10" stroke-width="0.15"/><path d="M12.79,6.33h0A.24.24,0,0,0,13,6.05a.26.26,0,0,0-.28-.25h0a.26.26,0,0,0-.25.28A.26.26,0,0,0,12.79,6.33Z" transform="translate(0.29 -0.09)" fill="#bdcd31" stroke="#000" stroke-miterlimit="10" stroke-width="0.15"/><path d="M15.14,5.8h0a.28.28,0,0,0-.26.3.24.24,0,0,0,0,.14.25.25,0,0,0,.2.09h0a.25.25,0,0,0,.27-.23v0A.27.27,0,0,0,15.14,5.8Z" transform="translate(0.29 -0.09)" fill="#bdcd31" stroke="#000" stroke-miterlimit="10" stroke-width="0.15"/><path d="M16.66,6.33h0a.29.29,0,0,0,.2-.09.31.31,0,0,0,0-.19.26.26,0,0,0-.26-.25h0a.26.26,0,0,0-.25.28A.3.3,0,0,0,16.66,6.33Z" transform="translate(0.29 -0.09)" fill="#bdcd31" stroke="#000" stroke-miterlimit="10" stroke-width="0.15"/><path d="M19,6.33h0a.27.27,0,0,0,.19-.08.25.25,0,0,0,0-.25h0A.28.28,0,0,0,19,5.8h0a.26.26,0,0,0-.25.28.24.24,0,0,0,.23.25Z" transform="translate(0.29 -0.09)" fill="#bdcd31" stroke="#000" stroke-miterlimit="10" stroke-width="0.15"/><path d="M20.51,5.8a.26.26,0,0,0-.26.25.22.22,0,0,0,.05.19.25.25,0,0,0,.19.09h0c.17,0,.26-.1.27-.28V6A.28.28,0,0,0,20.51,5.8Z" transform="translate(0.29 -0.09)" fill="#bdcd31" stroke="#000" stroke-miterlimit="10" stroke-width="0.15"/><path d="M22.82,6.33h0a.25.25,0,0,0,.27-.23v0a.27.27,0,0,0-.25-.27h0a.25.25,0,0,0-.25.25.19.19,0,0,0,.05.19A.26.26,0,0,0,22.82,6.33Z" transform="translate(0.29 -0.09)" fill="#bdcd31" stroke="#000" stroke-miterlimit="10" stroke-width="0.15"/><path d="M24.37,5.8a.26.26,0,0,0-.26.25.22.22,0,0,0,.05.19.28.28,0,0,0,.19.09h0c.17,0,.26-.1.27-.28V6A.3.3,0,0,0,24.37,5.8Z" transform="translate(0.29 -0.09)" fill="#bdcd31" stroke="#000" stroke-miterlimit="10" stroke-width="0.15"/><path d="M26.7,6.33h0A.32.32,0,0,0,27,6a.24.24,0,0,0-.26-.24h0a.26.26,0,0,0-.25.28.24.24,0,0,0,.18.29Z" transform="translate(0.29 -0.09)" fill="#bdcd31" stroke="#000" stroke-miterlimit="10" stroke-width="0.15"/><path d="M1.13,22H.91v.46h0a.48.48,0,0,0,.23.07c.06,0,.23,0,.24-.27a.21.21,0,0,0-.06-.2C1.32,22,1.21,22,1.13,22Z" transform="translate(0.29 -0.09)" fill="#006ae3"/><path d="M2,22H2a.24.24,0,0,0-.25.23v0a.34.34,0,0,0,.07.22.28.28,0,0,0,.18.06A.27.27,0,1,0,2,22Z" transform="translate(0.29 -0.09)" fill="#bdcd31" stroke="#000" stroke-miterlimit="10" stroke-width="0.15"/><path d="M2.72,22a.27.27,0,0,0-.24.28h0c0,.15.11.24.28.26h0A.26.26,0,0,0,3,22.29.24.24,0,0,0,2.82,22,.17.17,0,0,0,2.72,22Z" transform="translate(0.29 -0.09)" fill="#bdcd31" stroke="#000" stroke-miterlimit="10" stroke-width="0.15"/><path d="M28.24,6.33h0a.24.24,0,0,0,.25-.28.27.27,0,0,0-.27-.25h0a.28.28,0,0,0-.24.28.25.25,0,0,0,.25.25Z" transform="translate(0.29 -0.09)" fill="#bdcd31" stroke="#000" stroke-miterlimit="10" stroke-width="0.15"/><path d="M8.93,22a.25.25,0,0,0-.28.22v0a.27.27,0,0,0,.24.28h0a.26.26,0,0,0,.25-.24.21.21,0,0,0,0-.19A.24.24,0,0,0,8.93,22Z" transform="translate(0.29 -0.09)" fill="#bdcd31" stroke="#000" stroke-miterlimit="10" stroke-width="0.15"/><path d="M8.91,6.33h0a.25.25,0,0,0,.27-.23v0a.27.27,0,0,0-.25-.27h0a.26.26,0,0,0-.26.25.25.25,0,0,0,.05.19A.34.34,0,0,0,8.91,6.33Z" transform="translate(0.29 -0.09)" fill="#bdcd31" stroke="#000" stroke-miterlimit="10" stroke-width="0.15"/><path d="M10.44,22a.27.27,0,0,0-.24.29.27.27,0,0,0,.28.24h0c.09,0,.24,0,.25-.28S10.62,22,10.44,22Z" transform="translate(0.29 -0.09)" fill="#bdcd31" stroke="#000" stroke-miterlimit="10" stroke-width="0.15"/><path d="M1.13,6.33H1.2a.25.25,0,0,0,.2-.06.39.39,0,0,0,.06-.21.24.24,0,0,0-.25-.26A.83.83,0,0,0,1,5.86H1v.46h.13Z" transform="translate(0.29 -0.09)" fill="#bdcd31" stroke="#000" stroke-miterlimit="10" stroke-width="0.15"/><path d="M12.77,22h0a.3.3,0,0,0-.2.08.25.25,0,0,0-.05.19.26.26,0,0,0,.26.25h0a.26.26,0,0,0,.25-.28.24.24,0,0,0-.24-.24Z" transform="translate(0.29 -0.09)" fill="#bdcd31" stroke="#000" stroke-miterlimit="10" stroke-width="0.15"/><path d="M13.6,22h0a.24.24,0,0,0-.25.23v0a.29.29,0,0,0,.07.22.28.28,0,0,0,.18.06.27.27,0,1,0,0-.53Z" transform="translate(0.29 -0.09)" fill="#bdcd31" stroke="#000" stroke-miterlimit="10" stroke-width="0.15"/><path d="M14.32,22a.26.26,0,0,0-.26.25.27.27,0,0,0,.24.28h0a.26.26,0,0,0,.24-.25.25.25,0,0,0-.22-.28Z" transform="translate(0.29 -0.09)" fill="#bdcd31" stroke="#000" stroke-miterlimit="10" stroke-width="0.15"/><path d="M3.53,6.33h0a.25.25,0,0,0,.19-.09.31.31,0,0,0,0-.19.27.27,0,0,0-.27-.25h0a.29.29,0,0,0-.24.29A.31.31,0,0,0,3.53,6.33Z" transform="translate(0.29 -0.09)" fill="#bdcd31" stroke="#000" stroke-miterlimit="10" stroke-width="0.15"/><path d="M16.65,22c-.1,0-.25,0-.27.27h0a.29.29,0,0,0,.25.21h0a.25.25,0,0,0,.26-.24.29.29,0,0,0-.05-.2A.26.26,0,0,0,16.65,22Z" transform="translate(0.29 -0.09)" fill="#bdcd31" stroke="#000" stroke-miterlimit="10" stroke-width="0.15"/><path d="M17.47,22h0a.24.24,0,0,0-.25.23v0a.29.29,0,0,0,.07.22.27.27,0,0,0,.17.06.25.25,0,0,0,.28-.22v0a.27.27,0,0,0-.23-.29Z" transform="translate(0.29 -0.09)" fill="#bdcd31" stroke="#000" stroke-miterlimit="10" stroke-width="0.15"/><path d="M18.2,22a.27.27,0,0,0,0,.53h0a.23.23,0,0,0,.24-.22v0A.25.25,0,0,0,18.2,22Z" transform="translate(0.29 -0.09)" fill="#bdcd31" stroke="#000" stroke-miterlimit="10" stroke-width="0.15"/><path d="M9.69,22a.24.24,0,0,0-.18.07.26.26,0,0,0-.06.21.23.23,0,0,0,.21.25h0a.28.28,0,0,0,.25-.29h0A.28.28,0,0,0,9.69,22Z" transform="translate(0.29 -0.09)" fill="#bdcd31" stroke="#000" stroke-miterlimit="10" stroke-width="0.15"/><path d="M20.52,22c-.17,0-.27.09-.27.24a.25.25,0,0,0,.22.28h0c.06,0,.21,0,.26-.25a.36.36,0,0,0-.06-.2A.28.28,0,0,0,20.52,22Z" transform="translate(0.29 -0.09)" fill="#bdcd31" stroke="#000" stroke-miterlimit="10" stroke-width="0.15"/><path d="M21.33,22h0a.23.23,0,0,0-.25.21v0a.29.29,0,0,0,.07.22.27.27,0,0,0,.17.06.27.27,0,0,0,.28-.24h0a.25.25,0,0,0-.21-.29Z" transform="translate(0.29 -0.09)" fill="#bdcd31" stroke="#000" stroke-miterlimit="10" stroke-width="0.15"/><path d="M22.05,22a.26.26,0,0,0-.26.25.27.27,0,0,0,.24.28h0a.24.24,0,0,0,.24-.24h0a.25.25,0,0,0-.2-.28Z" transform="translate(0.29 -0.09)" fill="#bdcd31" stroke="#000" stroke-miterlimit="10" stroke-width="0.15"/><path d="M5.06,6.33h0a.27.27,0,0,0,.19-.08A.23.23,0,0,0,5.32,6a.23.23,0,0,0-.25-.24H5A.26.26,0,0,0,4.75,6a.24.24,0,0,0,.2.29Z" transform="translate(0.29 -0.09)" fill="#bdcd31" stroke="#000" stroke-miterlimit="10" stroke-width="0.15"/><path d="M24.37,22a.23.23,0,0,0-.26.2v0a.27.27,0,0,0,.24.28h0a.26.26,0,0,0,.27-.25h0a.25.25,0,0,0-.05-.19A.24.24,0,0,0,24.37,22Z" transform="translate(0.29 -0.09)" fill="#bdcd31" stroke="#000" stroke-miterlimit="10" stroke-width="0.15"/><path d="M25.14,22a.22.22,0,0,0-.17.07.29.29,0,0,0-.07.22.24.24,0,0,0,.24.24h0a.28.28,0,0,0,.25-.29h0A.29.29,0,0,0,25.14,22Z" transform="translate(0.29 -0.09)" fill="#bdcd31" stroke="#000" stroke-miterlimit="10" stroke-width="0.15"/><path d="M25.93,22h0a.28.28,0,0,0-.24.29.27.27,0,0,0,.28.24h0a.22.22,0,0,0,.17-.07.27.27,0,0,0,.07-.21A.23.23,0,0,0,26,22Z" transform="translate(0.29 -0.09)" fill="#bdcd31" stroke="#000" stroke-miterlimit="10" stroke-width="0.15"/><path d="M7.39,6.33h0a.3.3,0,0,0,.2-.08A.28.28,0,0,0,7.65,6a.23.23,0,0,0-.25-.24h0A.26.26,0,0,0,7.15,6a.23.23,0,0,0,.18.28Z" transform="translate(0.29 -0.09)" fill="#bdcd31" stroke="#000" stroke-miterlimit="10" stroke-width="0.15"/><path d="M28.25,22c-.17,0-.28.09-.28.24a.26.26,0,0,0,.25.28h0c.1,0,.22,0,.27-.26h0a.25.25,0,0,0-.24-.26Z" transform="translate(0.29 -0.09)" fill="#bdcd31" stroke="#000" stroke-miterlimit="10" stroke-width="0.15"/><path d="M29,22a.25.25,0,0,0-.28.2v.05a.31.31,0,0,0,.07.21.24.24,0,0,0,.18.07h0a.26.26,0,0,0,.28-.23h0A.27.27,0,0,0,29,22Z" transform="translate(0.29 -0.09)" fill="#bdcd31" stroke="#000" stroke-miterlimit="10" stroke-width="0.15"/><path d="M30,22.26a.25.25,0,0,0-.25-.22.27.27,0,0,0,0,.53h0c.1,0,.22,0,.24-.27h0Z" transform="translate(0.29 -0.09)" fill="#bdcd31" stroke="#000" stroke-miterlimit="10" stroke-width="0.15"/><path d="M14.3,6.32h0a.23.23,0,0,0,.24-.22v0c0-.1,0-.23-.26-.29h-.07A.29.29,0,0,0,14,6a.26.26,0,0,0,.24.28Z" transform="translate(0.29 -0.09)" fill="#bdcd31" stroke="#000" stroke-miterlimit="10" stroke-width="0.15"/><path d="M11.22,22h0a.24.24,0,0,0-.22.24.08.08,0,0,1,0,0,.25.25,0,0,0,.26.24h0a.25.25,0,0,0,.19-.09.31.31,0,0,0,.06-.19A.4.4,0,0,0,11.22,22Z" transform="translate(0.29 -0.09)" fill="#bdcd31" stroke="#000" stroke-miterlimit="10" stroke-width="0.15"/><path d="M10.44,6.32h.05c.07,0,.23,0,.23-.27V6a.27.27,0,0,0-.23-.21h0a.25.25,0,0,0-.29.2h0a.26.26,0,0,0,.19.31Z" transform="translate(0.29 -0.09)" fill="#bdcd31" stroke="#000" stroke-miterlimit="10" stroke-width="0.15"/><path d="M6.58,6.32h0c.11,0,.22-.06.23-.26a.27.27,0,0,0-.24-.26h0a.24.24,0,0,0-.23.2.26.26,0,0,0,.19.31Z" transform="translate(0.29 -0.09)" fill="#bdcd31" stroke="#000" stroke-miterlimit="10" stroke-width="0.15"/><path d="M22.82,22a.24.24,0,0,0-.19.08.21.21,0,0,0-.05.2.26.26,0,0,0,.25.24h0c.15,0,.24-.11.25-.29A.28.28,0,0,0,22.82,22Z" transform="translate(0.29 -0.09)" fill="#bdcd31" stroke="#000" stroke-miterlimit="10" stroke-width="0.15"/><path d="M2.76,6.33h0A.24.24,0,0,0,3,6.09v0a.27.27,0,0,0-.27-.26.25.25,0,0,0-.2.09.23.23,0,0,0,0,.2A.28.28,0,0,0,2.76,6.33Z" transform="translate(0.29 -0.09)" fill="#bdcd31" stroke="#000" stroke-miterlimit="10" stroke-width="0.15"/><path d="M29.79,6.32h0A.23.23,0,0,0,30,6.25.28.28,0,0,0,30,6a.25.25,0,0,0-.25-.23h0a.26.26,0,0,0-.24.28.27.27,0,0,0,.27.27Z" transform="translate(0.29 -0.09)" fill="#bdcd31" stroke="#000" stroke-miterlimit="10" stroke-width="0.15"/><path d="M15.13,22a.23.23,0,0,0-.28.25.26.26,0,0,0,.24.27h0a.27.27,0,0,0,.26-.23h0A.29.29,0,0,0,15.13,22Z" transform="translate(0.29 -0.09)" fill="#bdcd31" stroke="#000" stroke-miterlimit="10" stroke-width="0.15"/><path d="M7.37,22a.28.28,0,0,0-.2.08.23.23,0,0,0,0,.2.26.26,0,0,0,.25.24h0a.25.25,0,0,0,.19-.09.21.21,0,0,0,0-.19A.26.26,0,0,0,7.37,22Z" transform="translate(0.29 -0.09)" fill="#bdcd31" stroke="#000" stroke-miterlimit="10" stroke-width="0.15"/><path d="M26.68,22a.24.24,0,0,0-.19.08.23.23,0,0,0,0,.2.25.25,0,0,0,.26.24h0a.26.26,0,0,0,.24-.28h0a.25.25,0,0,0-.28-.23Z" transform="translate(0.29 -0.09)" fill="#bdcd31" stroke="#000" stroke-miterlimit="10" stroke-width="0.15"/><path d="M25.89,6.32h.05a.22.22,0,0,0,.23-.21v0a.26.26,0,0,0-.23-.28h0a.25.25,0,0,0-.26.24h0A.25.25,0,0,0,25.89,6.32Z" transform="translate(0.29 -0.09)" fill="#bdcd31" stroke="#000" stroke-miterlimit="10" stroke-width="0.15"/><path d="M22,6.32h0a.22.22,0,0,0,.23-.21v0A.27.27,0,0,0,22,5.8h0a.26.26,0,0,0-.25.24.25.25,0,0,0,.22.28Z" transform="translate(0.29 -0.09)" fill="#bdcd31" stroke="#000" stroke-miterlimit="10" stroke-width="0.15"/><path d="M18.2,6.32h0a.21.21,0,0,0,.18-.07A.28.28,0,0,0,18.44,6a.25.25,0,0,0-.25-.23h0a.34.34,0,0,0-.19.09.27.27,0,0,0,.06.38.28.28,0,0,0,.16,0Z" transform="translate(0.29 -0.09)" fill="#bdcd31" stroke="#000" stroke-miterlimit="10" stroke-width="0.15"/><path d="M19,22a.24.24,0,0,0-.28.26.27.27,0,0,0,.24.26h0a.24.24,0,0,0,.25-.23h0A.25.25,0,0,0,19,22Z" transform="translate(0.29 -0.09)" fill="#bdcd31" stroke="#000" stroke-miterlimit="10" stroke-width="0.15"/><path d="M27.61,10.22a1.68,1.68,0,0,0-2,.07,1.63,1.63,0,0,0-.52,2c.07.17,0,.22-.07.34-1.78,1.76-3.54,3.53-5.31,5.3-.06.07-.1.1-.13.1a.23.23,0,0,1-.12-.06,1.58,1.58,0,0,0-1.85,0,.35.35,0,0,1-.14.06s-.07,0-.14-.11l-3.12-3.11a.25.25,0,0,1-.08-.31,1.64,1.64,0,0,0-.62-1.91,1.67,1.67,0,0,0-1.93,0,1.64,1.64,0,0,0-.65,1.87.37.37,0,0,1-.13.43c-1.67,1.67-3.35,3.34-5,5a.43.43,0,0,1-.46.15,1.64,1.64,0,0,0-1.52.44A1.7,1.7,0,0,0,5,23.38h.18a1.79,1.79,0,0,0,1.26-.68,1.68,1.68,0,0,0,.29-1.32.44.44,0,0,1,.15-.48l3.71-3.7L12,15.79a.89.89,0,0,1,.61-.19,1,1,0,0,1,.62.19l1.08,1.09,2.28,2.28a1.24,1.24,0,0,1,.38.64,1.67,1.67,0,0,0,3.26,0,1,1,0,0,1,.27-.5l5.71-5.71a.58.58,0,0,1,.48-.21,1.69,1.69,0,0,0,1.74-1.64,1.67,1.67,0,0,0-.74-1.45Z" transform="translate(0.29 -0.09)" fill="#ff7f00" stroke="#000" stroke-miterlimit="10" stroke-width="0.5"/><polygon points="1.33 28.85 1.33 0.25 0.25 0.25 0.25 29.91 30.29 29.91 30.29 28.85 1.33 28.85" fill="#109ca6" stroke="#000" stroke-miterlimit="10" stroke-width="0.5"/><circle cx="5.37" cy="21.67" r="1.05" fill="#c70039"/><circle cx="12.73" cy="13.86" r="1.05" fill="#c70039"/><circle cx="18.74" cy="19.22" r="1.05" fill="#c70039"/><circle cx="26.99" cy="11.58" r="1.05" fill="#c70039"/></svg>