<svg id="Layer_1" data-name="Layer 1" xmlns="http://www.w3.org/2000/svg" width="24" height="24" viewBox="0 0 24 24"><path d="M12,12.1l2.92,11.35a12.15,12.15,0,0,1-2.92.4A11.75,11.75,0,0,1,12,.35Z" transform="translate(0 -0.1)" fill="#bdcd31" stroke="#000" stroke-miterlimit="10" stroke-width="0.5"/><path d="M13.06,11.21V.52h0A10.79,10.79,0,0,1,23.75,11.21Z" transform="translate(0 -0.1)" fill="#109ca6" stroke="#000" stroke-miterlimit="10" stroke-width="0.5"/><path d="M13.06,12l10.69-.08V12a10.53,10.53,0,0,1-2.91,7.3Z" transform="translate(0 -0.1)" fill="#f7c116" stroke="#000" stroke-miterlimit="10" stroke-width="0.5"/><path d="M13.06,12.91l7,8a9.74,9.74,0,0,1-1.87,1.29,9.08,9.08,0,0,1-2.1.89Z" transform="translate(0 -0.1)" fill="#c70039" stroke="#000" stroke-miterlimit="10" stroke-width="0.5"/></svg>