<svg id="Layer_1" data-name="Layer 1" xmlns="http://www.w3.org/2000/svg" width="24.01" height="24.13" viewBox="0 0 24.01 24.13"><polygon points="2.28 9.47 2.98 6.89 20.81 6.89 21.7 9.47 2.28 9.47" fill="#900c3f"/><path d="M20.63,7.11l.72,2.08H2.61l.56-2.08H20.63m.36-.5H2.79L2,9.69H22.06L21,6.61Z" transform="translate(0 0.04)"/><rect x="0.25" y="9.7" width="23.51" height="11.79" fill="#900c3f"/><path d="M23.51,9.91V21.2H.5V9.91h23m.5-.5H0V21.7H24V9.41Z" transform="translate(0 0.04)"/><polygon points="6.85 18.44 17.58 18.44 18.96 23.88 4.59 23.88 6.85 18.44" fill="#a7dbd8" stroke="#000" stroke-miterlimit="10" stroke-width="0.5"/><rect x="3.81" y="0.25" width="15.96" height="9.2" fill="#e0e4cc" stroke="#000" stroke-miterlimit="10" stroke-width="0.5"/><circle cx="19.77" cy="12.89" r="1.21" fill="#ffc300" stroke="#000" stroke-miterlimit="10" stroke-width="0.25"/><rect x="1.87" y="12.76" width="6.59" height="0.61" fill="#ffc300" stroke="#000" stroke-miterlimit="10" stroke-width="0.25"/><rect x="5.03" y="2.51" width="8.3" height="0.26" fill="#020201"/><rect x="15.2" y="2.38" width="3.45" height="0.26" fill="#020201"/><rect x="15.2" y="4.15" width="3.45" height="0.26" fill="#020201"/><rect x="15.2" y="5.79" width="3.45" height="0.26" fill="#020201"/><rect x="15.2" y="7.52" width="3.45" height="0.26" fill="#020201"/><rect x="5.03" y="4.28" width="8.3" height="0.26" fill="#020201"/><rect x="5.03" y="5.92" width="8.3" height="0.26" fill="#020201"/><rect x="5.17" y="7.52" width="8.3" height="0.26" fill="#020201"/></svg>