<svg id="BACKGROUND" xmlns="http://www.w3.org/2000/svg" width="23.82" height="23.84" viewBox="0 0 23.82 23.84"><path d="M14.81,6.76h6c1.76,0,2.2.32,2.85,2v9a2.43,2.43,0,0,1-1.86,1.93,8.66,8.66,0,0,1-1.44,0c.06,1.11.12,2.14.21,3.16,0,.35.06.74-.32.82a1,1,0,0,1-.76-.29q-1.64-1.62-3.21-3.29a1.1,1.1,0,0,0-.91-.37h-3.7a2.23,2.23,0,0,1-2.36-2.08V13.53" transform="translate(-0.09 -0.08)" fill="#c70039" stroke="#000" stroke-miterlimit="10" stroke-width="0.5"/><path d="M21.46,7.82" transform="translate(-0.09 -0.08)" fill="#c70039" stroke="#000" stroke-miterlimit="10" stroke-width="0.5"/><path d="M7.12,3.91a1.89,1.89,0,0,0-1.46.61,2.34,2.34,0,0,0-.55,1.66,2.49,2.49,0,0,0,.55,1.68,2,2,0,0,0,2.91,0,2.36,2.36,0,0,0,.52-1.68,2.43,2.43,0,0,0-.49-1.6A1.93,1.93,0,0,0,7.12,3.91Z" transform="translate(-0.09 -0.08)" fill="#ed8622" stroke="#000" stroke-miterlimit="10" stroke-width="0.5"/><path d="M14.71,10.56V2.45A2.11,2.11,0,0,0,12.62.33H2.44A2.11,2.11,0,0,0,.34,2.45v8.11a2.81,2.81,0,0,0,2.79,2.83h0s-.15,1.76-.2,2.92.37,1.3.93.8L6.92,14c.81-.82,1-.59,2.66-.63h3.51c.83,0,1.51,0,1.56-.87S14.71,10.56,14.71,10.56ZM8.94,11.64l-1-1.42a4.21,4.21,0,0,1-.87.09,4.11,4.11,0,0,1-2-.54A3.88,3.88,0,0,1,3.5,8.27,4.3,4.3,0,0,1,3,6.13,4.16,4.16,0,0,1,3.5,4,3.88,3.88,0,0,1,5,2.5,4.24,4.24,0,0,1,9,2.53,4.12,4.12,0,0,1,10.53,4,4.27,4.27,0,0,1,11,6.16a4.27,4.27,0,0,1-.41,1.93,3.83,3.83,0,0,1-1.17,1.5l1.78,2.14Z" transform="translate(-0.09 -0.08)" fill="#ed8622" stroke="#000" stroke-miterlimit="10" stroke-width="0.5"/><path d="M20.08,14.35a1.81,1.81,0,0,1-.24,2.38,2.65,2.65,0,0,1-1.66.48H14.71V10.49H18.1a2.54,2.54,0,0,1,1.58.45,1.52,1.52,0,0,1,.61,1.29,1.58,1.58,0,0,1-.31,1,1.38,1.38,0,0,1-.81.53A1.62,1.62,0,0,1,20.08,14.35Zm-3.29-1.24h.8A.63.63,0,0,0,18,13a.4.4,0,0,0,.14-.35.43.43,0,0,0-.14-.36.63.63,0,0,0-.42-.12h-.8Zm1.4,2.29a.38.38,0,0,0,.13-.35c0-.32-.18-.49-.55-.49h-.94v1h.94a.65.65,0,0,0,.41-.11Z" transform="translate(-0.09 -0.08)" fill="#69d2e7" stroke="#000" stroke-miterlimit="10" stroke-width="0.5"/></svg>