<svg id="Layer_1" data-name="Layer 1" xmlns="http://www.w3.org/2000/svg" width="14.7" height="23.9" viewBox="0 0 14.7 23.9"><path d="M10,10.05c.11-.1,2.75-3.27,2.86-3.39a1,1,0,0,0-1.44-1.35l-.54.52V1.9a1,1,0,0,0-1-1H9.83a1,1,0,0,0-.38.1,1,1,0,1,0-2,0,1,1,0,0,0-1.37.36h0A1.19,1.19,0,0,0,6,1.52,1.21,1.21,0,0,0,6,1.9v.4a1,1,0,0,0-1.31.54h0v.1a1,1,0,0,0-.06.35V8.81a1.75,1.75,0,0,0,.55,1.27,1.29,1.29,0,0,0-.55,1.05V23.55A.35.35,0,0,0,5,23.9H5a.35.35,0,0,0,.35-.35h0v-11H9.88v11a.35.35,0,0,0,.35.35h0a.35.35,0,0,0,.35-.35h0V11.13A1.31,1.31,0,0,0,10,10.05Z" transform="translate(-4.63 0)" fill="#020202"/><path d="M5.25,3.29a.38.38,0,0,1,.75,0H6V4.87a.35.35,0,0,0,.35.34.34.34,0,0,0,.34-.34h0v-3a.33.33,0,0,1,.66,0h0v3a.35.35,0,0,0,.7,0V1.15a.35.35,0,1,1,.7,0h0V4.87a.35.35,0,1,0,.7,0h0v-3a.34.34,0,0,1,.33-.35h0a.35.35,0,0,1,.35.35h0V6.28a.49.49,0,0,0,.49.49A.44.44,0,0,0,11,6.66l.9-.85a.29.29,0,0,1,.42.4h0L9.57,9.48a1,1,0,0,1-.8.38H6.29a1,1,0,0,1-1-1V3.29Z" transform="translate(-4.63 0)" fill="#ffc300"/><path d="M9.88,11.91H5.25v-.78a.58.58,0,0,1,.58-.58H9.3a.58.58,0,0,1,.58.58Z" transform="translate(-4.63 0)" fill="#bdcd31"/><path d="M19.23,13.77a1,1,0,0,0-.48-1.33,1,1,0,0,0-.91,0l-.49.46V9.24a1,1,0,0,0-1-1A1,1,0,0,0,16,8.3a1,1,0,1,0-2,0,1,1,0,0,0-1.29.58h0a1,1,0,0,0-.06.35V9.6a1,1,0,0,0-1.27.62h0a1.71,1.71,0,0,0,0,.32v5.25A1.66,1.66,0,0,0,11.9,17a1.24,1.24,0,0,0-.52,1v5.53a.35.35,0,1,0,.7,0V19.43h3.33a.35.35,0,0,0,.35-.35h0a.35.35,0,0,0-.35-.35H12V18a.56.56,0,0,1,.53-.54h3.31a.56.56,0,0,1,.53.54v5.53a.35.35,0,0,0,.7,0h0V18a1.22,1.22,0,0,0-.56-1C16.62,16.9,19.14,13.88,19.23,13.77Z" transform="translate(-4.63 0)" fill="#020202"/><path d="M16.09,16.43a1,1,0,0,1-.75.35H13a1,1,0,0,1-1-1V10.56a.31.31,0,0,1,.3-.32h0a.33.33,0,0,1,.32.31h0v1.5a.35.35,0,1,0,.7,0V9.24a.32.32,0,0,1,.31-.33h0a.33.33,0,0,1,.32.31v2.84a.35.35,0,1,0,.7,0V8.53A.32.32,0,0,1,15,8.2h0a.33.33,0,0,1,.32.31v3.55a.35.35,0,0,0,.69.13h0a.24.24,0,0,0,0-.12V9.24a.32.32,0,0,1,.64,0h0v4.18a.47.47,0,0,0,.46.48h0a.51.51,0,0,0,.33-.13l.84-.8a.27.27,0,0,1,.37,0,.27.27,0,0,1,0,.34Z" transform="translate(-4.63 0)" fill="#ffc300"/><rect x="0.72" y="12.32" width="4.53" height="11.33" fill="#bdcd31"/><path d="M12,18.73s-.22-1.27.53-1.27h3.31s.87-.15.53,1.39l0,4.89H12l.08-4.31h3.33s.58-.66,0-.7S12,18.73,12,18.73Z" transform="translate(-4.63 0)" fill="#109ca6"/></svg>