<svg id="Layer_1" data-name="Layer 1" xmlns="http://www.w3.org/2000/svg" width="23.92" height="23.82" viewBox="0 0 23.92 23.82"><path d="M1.83,1.83H19.56a2.91,2.91,0,0,1,2.92,2.91V22.23H1.83V1.83Z" transform="translate(-0.09 -0.09)" fill="#bdcd31"/><path d="M11.2,4.31c2.39,0,3.62,1.44,3.62,3.94v.5H12.5V8.1c0-1.12-.45-1.54-1.23-1.54S10,7,10,8.1c0,3.21,4.81,3.82,4.81,8.3,0,2.5-1.26,3.91-3.68,3.91s-3.66-1.43-3.66-3.93v-1H9.84v1.12c0,1.11.5,1.51,1.27,1.51s1.28-.4,1.28-1.51c0-3.23-4.81-3.82-4.81-8.3C7.58,5.75,8.8,4.31,11.2,4.31Z" transform="translate(-0.09 -0.09)" fill="#f77f00" stroke="#000" stroke-miterlimit="10" stroke-width="0.5"/><path d="M19.23,1.83l2.92,3a.23.23,0,0,1,.06.16V22.17H1.81V1.83H19.23M19.44.34H.34V23.66H23.66c.13,0,.1-15.24.09-18.69a1.65,1.65,0,0,0-.5-1.18L20.11.64A1,1,0,0,0,19.44.34Z" transform="translate(-0.09 -0.09)" fill="#f77f00" stroke="#000" stroke-miterlimit="10" stroke-width="0.5"/><path d="M22.21,6.8h-3.8A1.41,1.41,0,0,1,17,5.38V1.83h1.39V5.38h3.8Z" transform="translate(-0.09 -0.09)" fill="#f77f00" stroke="#000" stroke-miterlimit="10" stroke-width="0.5"/></svg>