<svg id="Layer_1" data-name="Layer 1" xmlns="http://www.w3.org/2000/svg" width="23.8" height="23.6" viewBox="0 0 23.8 23.6"><rect width="23.8" height="23.6" fill="#d3dd8a" opacity="0.85"/><path d="M3.3,1.8A3.42,3.42,0,0,0,.1,5.38,3.44,3.44,0,0,0,3.3,9,3.44,3.44,0,0,0,6.5,5.38h0A3.42,3.42,0,0,0,3.3,1.8ZM3.3,8A2.44,2.44,0,0,1,1,5.46a.22.22,0,0,0,0-.08A2.44,2.44,0,0,1,3.27,2.8h0A2.43,2.43,0,0,1,5.6,5.35v0h0A2.37,2.37,0,0,1,3.46,8H3.3Z" transform="translate(0 0)"/><ellipse cx="3.3" cy="5.49" rx="1.4" ry="1.66" fill="#c70039"/><path d="M23.1,3.52H8.8a.37.37,0,0,0-.4.34V4.8a.44.44,0,0,0,.4.42H23a.53.53,0,0,0,.4-.52V4C23.5,3.83,23.3,3.62,23.1,3.52Z" transform="translate(0 0)" fill="#f7c116" stroke="#000" stroke-miterlimit="10" stroke-width="0.5"/><path d="M16.6,6.21H8.8c-.3,0-.4.21-.4.52h0v.72A.69.69,0,0,0,8.8,8h7.8a.37.37,0,0,0,.4-.34V7.56h0V6.73C17.1,6.52,16.9,6.31,16.6,6.21Z" transform="translate(0 0)" fill="#f7c116" stroke="#000" stroke-miterlimit="10" stroke-width="0.5"/><path d="M3.3,14.49A3.43,3.43,0,0,0,.1,18.11a3.44,3.44,0,0,0,3.2,3.63,3.44,3.44,0,0,0,3.2-3.63h0A3.36,3.36,0,0,0,3.39,14.5Zm0,6.21A2.43,2.43,0,0,1,1,18.15v0a2.43,2.43,0,0,1,2.25-2.58h0a2.41,2.41,0,0,1,2.3,2.53v.05h0A2.43,2.43,0,0,1,3.34,20.7Z" transform="translate(0 0)"/><path d="M23.1,16.15H8.8a.37.37,0,0,0-.4.34v.07h0v.73a.43.43,0,0,0,.4.41H23a.37.37,0,0,0,.4-.34v-.8C23.5,16.46,23.3,16.25,23.1,16.15Z" transform="translate(0 0)" fill="#f7c116" stroke="#000" stroke-miterlimit="10" stroke-width="0.5"/><path d="M16.6,18.94H8.8a.38.38,0,0,0-.4.36v.06h0v.72a.43.43,0,0,0,.4.41h7.8c.3,0,.4-.2.4-.51h0v-.73C17.1,19.15,16.9,18.94,16.6,18.94Z" transform="translate(0 0)" fill="#f7c116" stroke="#000" stroke-miterlimit="10" stroke-width="0.5"/></svg>