<svg id="Layer_1" data-name="Layer 1" xmlns="http://www.w3.org/2000/svg" width="23.78" height="23.56" viewBox="0 0 23.78 23.56"><rect x="0.75" y="6.62" width="21.87" height="15.78" rx="1.07" fill="#a7dbd8"/><path d="M3.51,3.47h17A2.58,2.58,0,0,1,23.15,6V20.7a2.58,2.58,0,0,1-2.64,2.52h-17A2.58,2.58,0,0,1,.87,20.7h0V6A2.58,2.58,0,0,1,3.51,3.47Z" transform="translate(-0.12 -0.41)" fill="none" stroke="#000" stroke-miterlimit="10" stroke-width="1.5"/><line x1="0.75" y1="6.62" x2="23.03" y2="6.62" fill="none" stroke="#000" stroke-miterlimit="10" stroke-width="1.5"/><rect x="16.55" y="0.28" width="2.27" height="4.56" fill="#f7c116" stroke="#003049" stroke-miterlimit="10" stroke-width="0.5"/><rect x="10.73" y="0.25" width="2.26" height="4.56" fill="#f7c116" stroke="#003049" stroke-miterlimit="10" stroke-width="0.5"/><rect x="4.76" y="0.31" width="2.27" height="4.56" fill="#f7c116" stroke="#003049" stroke-miterlimit="10" stroke-width="0.5"/><polygon points="7.09 8.56 7.87 9.09 8.78 8.47 8.38 9.4 9.18 9.93 8.13 9.98 7.73 10.9 7.47 10.02 6.42 10.06 7.33 9.46 7.09 8.56" fill="#f7c116" stroke="#003049" stroke-miterlimit="10" stroke-width="0.25"/><polygon points="17.36 9.61 18.32 9.76 18.87 8.84 18.9 9.84 19.86 9.99 18.93 10.46 18.98 11.46 18.36 10.76 17.44 11.24 17.98 10.32 17.36 9.61" fill="#f7c116" stroke="#003049" stroke-miterlimit="10" stroke-width="0.25"/><path d="M5.17,11.86C5,13.48,6.17,13.6,5.17,11.86Z" transform="translate(-0.12 -0.41)" fill="none" stroke="#d62828" stroke-miterlimit="10" stroke-width="0.5"/><path d="M4,13.77C5.7,13.82,5.76,12.7,4,13.77Z" transform="translate(-0.12 -0.41)" fill="none" stroke="#d62828" stroke-miterlimit="10" stroke-width="0.5"/><path d="M7,13C5.3,12.91,5.2,14,7,13Z" transform="translate(-0.12 -0.41)" fill="none" stroke="#d62828" stroke-miterlimit="10" stroke-width="0.5"/><path d="M20.15,13.33C19.15,15.33,20.54,16.11,20.15,13.33Z" transform="translate(-0.12 -0.41)" fill="none" stroke="#d62828" stroke-miterlimit="10" stroke-width="0.5"/><path d="M17.62,15.24C19.79,16.14,20.49,14.73,17.62,15.24Z" transform="translate(-0.12 -0.41)" fill="none" stroke="#d62828" stroke-miterlimit="10" stroke-width="0.5"/><path d="M21.77,15.69C19.84,14.82,19.17,16.07,21.77,15.69Z" transform="translate(-0.12 -0.41)" fill="none" stroke="#d62828" stroke-miterlimit="10" stroke-width="0.5"/><polygon points="7.75 16.48 8.45 15.93 8.97 16.72 8.31 17.18 7.75 16.48" stroke="#000" stroke-miterlimit="10" stroke-width="0.5"/><path d="M8.78,18.17l.66-.4,1,1.74-.91.6a5.28,5.28,0,0,0-.78-1.94Z" transform="translate(-0.12 -0.41)" stroke="#000" stroke-miterlimit="10" stroke-width="0.5"/><polygon points="6.4 14.27 7.91 15.41 7.25 15.88 6.4 14.27" fill="none" stroke="#003049" stroke-miterlimit="10" stroke-width="0.5"/><polygon points="6.02 18.42 6.45 17.88 7.15 18.54 6.73 19.03 6.02 18.42" stroke="#000" stroke-miterlimit="10" stroke-width="0.5"/><path d="M7.18,19.81l.42-.43,1.07,1-.8.63A5.5,5.5,0,0,0,7.18,19.81Z" transform="translate(-0.12 -0.41)" stroke="#000" stroke-miterlimit="10" stroke-width="0.5"/><polygon points="4.74 17.05 6.09 17.48 5.51 18.04 4.74 17.05" stroke="#000" stroke-miterlimit="10" stroke-width="0.5"/><polygon points="11.94 14.61 12.74 14.8 12.56 15.84 11.85 15.82 11.94 14.61" stroke="#000" stroke-miterlimit="10" stroke-width="0.5"/><path d="M11.65,16.94l.87.07-.21,2.85-1,.06a13.75,13.75,0,0,0,.29-3Z" transform="translate(-0.12 -0.41)" stroke="#000" stroke-miterlimit="10" stroke-width="0.5"/><polygon points="12.89 12.59 12.91 14.22 12.15 14.08 12.89 12.59" stroke="#000" stroke-miterlimit="10" stroke-width="0.5"/><polygon points="16.58 16.54 17.17 17.1 16.47 17.73 15.87 17.24 16.58 16.54" stroke="#000" stroke-miterlimit="10" stroke-width="0.5"/><path d="M15.38,18.08l.67.48-1.79,2.25-.85-.41a16.33,16.33,0,0,0,2-2.32Z" transform="translate(-0.12 -0.41)" stroke="#000" stroke-miterlimit="10" stroke-width="0.5"/><polygon points="18.68 15.83 17.71 16.91 17.09 16.29 18.68 15.83" stroke="#000" stroke-miterlimit="10" stroke-width="0.5"/><polygon points="12.03 9.62 13.37 10.22 14.59 9.09 14.19 10.6 15.53 11.2 13.95 11.52 13.57 13.02 12.99 11.72 11.41 12.04 12.62 10.91 12.03 9.62" fill="#f7c116" stroke="#003049" stroke-miterlimit="10" stroke-width="0.25"/><path d="M6,14.91C6.11,13.29,4.94,13.18,6,14.91Z" transform="translate(-0.12 -0.41)" fill="none" stroke="#d62828" stroke-miterlimit="10" stroke-width="0.5"/><path d="M19.49,17.67C20.49,15.62,19.07,14.91,19.49,17.67Z" transform="translate(-0.12 -0.41)" fill="none" stroke="#d62828" stroke-miterlimit="10" stroke-width="0.5"/><polygon points="1.81 15.85 2.93 16.1 3.65 15.06 3.6 16.24 4.72 16.49 3.59 16.98 3.57 18.15 2.9 17.28 1.78 17.76 2.5 16.74 1.81 15.85" fill="#f7c116" stroke="#003049" stroke-miterlimit="10" stroke-width="0.25"/></svg>