<svg id="Layer_1" data-name="Layer 1" xmlns="http://www.w3.org/2000/svg" width="24.14" height="24" viewBox="0 0 24.14 24"><path d="M10.42,23.75c5.67,0,10.16-5.27,10.16-11.8S16,.25,10.42.25.25,5.52.25,12.05,4.85,23.75,10.42,23.75Z" fill="#003049" stroke="#000" stroke-miterlimit="10" stroke-width="0.5"/><path d="M10.52,21.33c4.39,0,8-4.22,8-9.28s-3.64-9.27-8-9.27-8,4.21-8,9.27S6.14,21.33,10.52,21.33Z" fill="#69d2e7" stroke="#69d2e7" stroke-miterlimit="10" stroke-width="1.5"/><path d="M10.52,17.74c2.79,0,4.93-2.53,4.93-5.69S13.2,6.36,10.52,6.36,5.6,8.89,5.6,12.05,7.74,17.74,10.52,17.74Z" fill="#ffc300" stroke="#ffc300" stroke-miterlimit="10" stroke-width="1.5"/><path d="M10.52,15.21a3,3,0,0,0,2.79-3.16,3,3,0,0,0-2.79-3.16,3.06,3.06,0,0,0-2.78,3.16A3,3,0,0,0,10.52,15.21Z" fill="#d62828" stroke="#d62828" stroke-miterlimit="10" stroke-width="1.5"/><polygon points="12.29 11.54 17.98 11.54 20.08 10.24 23.66 10.33 21.21 12.05 23.75 13.86 20.16 13.86 18.07 12.57 12.29 12.57 12.29 13.86 9.58 12.05 12.29 10.33 12.29 11.54" stroke="#000" stroke-miterlimit="10" stroke-width="0.25" fill-rule="evenodd"/></svg>