<svg id="Layer_1" data-name="Layer 1" xmlns="http://www.w3.org/2000/svg" width="24.05" height="23.58" viewBox="0 0 24.05 23.58"><path d="M8.37,15.67A15,15,0,0,0,11,20.1L11.33,18l-.93-1.45v-.4a5.32,5.32,0,0,0,3.3,0v.4L12.87,18l.21,2a12.7,12.7,0,0,0,2.79-4.43c2.58,1.54,5.32.4,7.83,4.73-8,4.55-15.77,4-23.4.11,1.44-4.13,5.46-3.1,8-4.74Z" transform="translate(0.01 -0.21)" fill="#109ca6" stroke="#000" stroke-miterlimit="10" stroke-width="0.5"/><path d="M7.23,7.32a26,26,0,0,1,9.8,0l.11,1.13a3.19,3.19,0,0,1-.62,3.92,5.37,5.37,0,0,1-4.43,3.4A4.89,4.89,0,0,1,8,12.48a3.33,3.33,0,0,1-.73-3.93Z" transform="translate(0.01 -0.21)" fill="#f38630" stroke="#000" stroke-miterlimit="10" stroke-width="0.5"/><path d="M2.18,2.05,14.46.47,22,4.9l-2.07.42V6.85l.41,3.51a1.23,1.23,0,0,1-1.44,0l.51-3.51V5.45l-2.57.33.11.42a20,20,0,0,0-9.29,0l.18-.64Z" transform="translate(0.01 -0.21)" fill="#109ca6" stroke="#000" stroke-miterlimit="10" stroke-width="0.5"/></svg>