<svg id="Layer_1" data-name="Layer 1" xmlns="http://www.w3.org/2000/svg" width="23.05" height="23.58" viewBox="0 0 23.05 23.58"><path d="M19,8.76,18,7.22a2.34,2.34,0,1,1,3.81-1.8,2.14,2.14,0,0,1-.45,1.34l-1,2Z" transform="translate(-0.63 -0.08)" fill="#f7c116"/><path d="M19.47,3.32a2.1,2.1,0,0,1,2.09,2.1,1.91,1.91,0,0,1-.38,1.17l-.05,0,0,.07-.93,1.8H19.11l-.9-1.42,0-.07-.06,0a2,2,0,0,1-.71-1.55,2.09,2.09,0,0,1,2.07-2.1m0-.5a2.58,2.58,0,0,0-2.57,2.6,2.51,2.51,0,0,0,.89,1.93l1,1.66h1.64l1.06-2.07,0,0a2.46,2.46,0,0,0,.5-1.5,2.59,2.59,0,0,0-2.59-2.6Z" transform="translate(-0.63 -0.08)"/><rect x="18.19" y="8.77" width="1.67" height="0.59" fill="#e0e4cc" stroke="#000" stroke-miterlimit="10" stroke-width="0.5"/><rect x="18.19" y="9.53" width="1.67" height="0.59" fill="#e0e4cc" stroke="#000" stroke-miterlimit="10" stroke-width="0.5"/><path d="M19.65,10.4l.21,0v0a.21.21,0,0,1-.21.21.22.22,0,0,1-.21-.21Z" transform="translate(-0.63 -0.08)" fill="#e0e4cc" stroke="#000" stroke-miterlimit="10" stroke-width="0.5"/><line x1="14.81" y1="2.37" x2="15.79" y2="3.03" fill="#e0e4cc" stroke="#000" stroke-linecap="round" stroke-miterlimit="10" stroke-width="0.5"/><line x1="22.41" y1="2.37" x2="21.43" y2="3.03" fill="#e0e4cc" stroke="#000" stroke-linecap="round" stroke-miterlimit="10" stroke-width="0.5"/><line x1="19.03" y1="0.25" x2="19.03" y2="1.43" fill="#e0e4cc" stroke="#000" stroke-linecap="round" stroke-miterlimit="10" stroke-width="0.5"/><circle cx="8.89" cy="6.37" r="3.74" fill="#f38630"/><path d="M9.52,3A3.5,3.5,0,1,1,6,6.44,3.5,3.5,0,0,1,9.52,3m0-.5a4,4,0,1,0,4,4,4,4,0,0,0-4-4Z" transform="translate(-0.63 -0.08)"/><path d="M7,10.15h4.16A4.82,4.82,0,0,1,16,15v4.81a0,0,0,0,1,0,0H2.2a0,0,0,0,1,0,0V15A4.82,4.82,0,0,1,7,10.15Z" fill="#f38630" stroke="#000" stroke-miterlimit="10" stroke-width="0.5"/><polygon points="8.8 15.21 0.3 12.1 1.56 21.25 8.8 22.84 8.8 15.21" fill="#bdcd31" stroke="#000" stroke-miterlimit="10" stroke-width="0.5"/><polygon points="8.99 15.21 17.48 12.1 16.23 21.25 8.99 22.84 8.99 15.21" fill="#bdcd31" stroke="#000" stroke-miterlimit="10" stroke-width="0.5"/><rect x="15.17" y="21.02" width="7.63" height="2.32" fill="#f9f8f7" stroke="#000" stroke-miterlimit="10" stroke-width="0.5"/><path d="M13.92,18.08h7.41a0,0,0,0,1,0,0v2.43a0,0,0,0,1,0,0H13.22a0,0,0,0,1,0,0V18.78A.7.7,0,0,1,13.92,18.08Z" fill="#f9f8f7" stroke="#000" stroke-miterlimit="10" stroke-width="0.5"/><path d="M15.4,15.37h6.11a.78.78,0,0,1,.78.78V17.8a0,0,0,0,1,0,0H15.4a0,0,0,0,1,0,0V15.37A0,0,0,0,1,15.4,15.37Z" fill="#f9f8f7" stroke="#000" stroke-miterlimit="10" stroke-width="0.5"/><line x1="16.25" y1="16.21" x2="21.61" y2="16.21" fill="#f9f8f7" stroke="#000" stroke-miterlimit="10" stroke-width="0.15"/><line x1="15.71" y1="19.29" x2="21.08" y2="19.29" fill="#f9f8f7" stroke="#000" stroke-miterlimit="10" stroke-width="0.15"/><line x1="16.92" y1="22.17" x2="22.29" y2="22.17" fill="#f9f8f7" stroke="#000" stroke-miterlimit="10" stroke-width="0.15"/></svg>