<svg id="Layer_1" data-name="Layer 1" xmlns="http://www.w3.org/2000/svg" width="24" height="24.25" viewBox="0 0 24 24.25"><path d="M2.33,11.23H7.74a1,1,0,0,1,1,1v.36a1,1,0,0,1-1,1.06H2.33a1,1,0,0,1-1-1.06v-.36A1,1,0,0,1,2.33,11.23Z" fill="#ec8f71" stroke="#000" stroke-miterlimit="10" stroke-width="0.5"/><path d="M12,20c-.3-11.91,9.5-14.76,9.8,0" fill="#c70039" stroke="#000" stroke-miterlimit="10" stroke-width="0.5"/><path d="M17.2,9.73c1.3,0,2.4-2.1,2.4-4.74S18.5.25,17.2.25,14.8,2.36,14.8,5,15.9,9.73,17.2,9.73Z" fill="#ed8622" stroke="#000" stroke-miterlimit="10" stroke-width="0.5"/><line y1="23.75" x2="24" y2="23.75" fill="none" stroke="#000" stroke-miterlimit="10"/><path d="M1.63,13.7H7a1,1,0,0,1,1,1.05v.36a1,1,0,0,1-1,1.05H1.63a1,1,0,0,1-1-1.05v-.36A1,1,0,0,1,1.63,13.7Z" fill="#f77f00" stroke="#000" stroke-miterlimit="10" stroke-width="0.5"/><path d="M2.33,16.16H7.74a1,1,0,0,1,1,1.06v1.06a1,1,0,0,1-1,1H2.33a1,1,0,0,1-1-1V17.22A1,1,0,0,1,2.33,16.16Z" fill="#fcbf49" stroke="#000" stroke-miterlimit="10" stroke-width="0.5"/><line y1="19.96" x2="24" y2="19.96" fill="none" stroke="#000" stroke-miterlimit="10"/><polygon points="6.96 12.27 6.96 12.92 7.44 12.69 7.8 13.09 7.8 12.17 6.96 12.27" fill="#003049" stroke="#003049" stroke-miterlimit="10" stroke-width="0.15"/><rect y="20.37" width="24" height="2.87" fill="#69d2e7"/><line x1="2.38" y1="12" x2="6.41" y2="12" fill="#69d2e7" stroke="#000" stroke-miterlimit="10" stroke-width="0.15"/><line x1="2.09" y1="12.46" x2="6.12" y2="12.46" fill="#69d2e7" stroke="#000" stroke-miterlimit="10" stroke-width="0.15"/><line x1="2.32" y1="12.93" x2="6.35" y2="12.93" fill="#69d2e7" stroke="#000" stroke-miterlimit="10" stroke-width="0.15"/><line x1="2.7" y1="17.28" x2="8.04" y2="17.28" fill="#69d2e7" stroke="#000" stroke-miterlimit="10" stroke-width="0.15"/><line x1="2.32" y1="17.75" x2="7.66" y2="17.75" fill="#69d2e7" stroke="#000" stroke-miterlimit="10" stroke-width="0.15"/><line x1="2.62" y1="18.21" x2="7.96" y2="18.21" fill="#69d2e7" stroke="#000" stroke-miterlimit="10" stroke-width="0.15"/></svg>