<svg id="Layer_1" data-name="Layer 1" xmlns="http://www.w3.org/2000/svg" width="23.54" height="24.01" viewBox="0 0 23.54 24.01"><path d="M4.73.58H15.92a3.35,3.35,0,0,1,3.35,3.34v19.5H8.08a3.35,3.35,0,0,1-3.35-3.34V.58Z" transform="translate(-0.23 0)" fill="#f7c116" stroke="#000" stroke-miterlimit="10" stroke-width="0.25"/><path d="M22.44,19.47v2.78a.19.19,0,0,1-.05.13,1.91,1.91,0,0,1-.6.4.66.66,0,0,1-.64,0,1.71,1.71,0,0,1-.47-.42.17.17,0,0,1,0-.1V19.47c0-.09,0-.09.09-.09h1.58C22.44,19.38,22.44,19.4,22.44,19.47Z" transform="translate(-0.23 0)" fill="#ffc300"/><path d="M2.93,1.72V4.36s0,.16,0,.16H1.19c0-.19,0-.4,0-.6l0-.11v-2a.17.17,0,0,1,0-.14,2.71,2.71,0,0,1,.49-.47.68.68,0,0,1,.86.06,2.53,2.53,0,0,1,.37.36A.19.19,0,0,1,2.93,1.72Z" transform="translate(-0.23 0)" fill="#ffc300"/><path d="M18.47,22.66V3.37a.67.67,0,0,0,0-.2,2.8,2.8,0,0,0-1.38-1.74,5.69,5.69,0,0,0-.87-.4.38.38,0,0,0-.15,0H5.26c-.1,0-.09.14-.1.23V21a1.25,1.25,0,0,0,.1.27A3.31,3.31,0,0,0,6.55,22.6a2.4,2.4,0,0,0,1.22.33H18.41c.07,0,.11,0,.06-.08A.61.61,0,0,1,18.47,22.66Zm4-1.81V19.47c0-.07,0-.09-.1-.09H20.76c-.07,0-.09,0-.09.09v2.79a.17.17,0,0,0,0,.1,1.71,1.71,0,0,0,.47.42.66.66,0,0,0,.64,0,1.91,1.91,0,0,0,.6-.4.19.19,0,0,0,.05-.13ZM2.93,4.36V1.72a.19.19,0,0,0,0-.15,2.53,2.53,0,0,0-.37-.36.68.68,0,0,0-.86-.06,2.71,2.71,0,0,0-.49.47.17.17,0,0,0,0,.14V3.81l0,.11c0,.2,0,.41,0,.6H2.93S2.93,4.4,2.93,4.36ZM4.22,1.45A.49.49,0,0,0,4,1L3.53.69a4.87,4.87,0,0,1,.4.5.28.28,0,0,1,0,.16V5.48c0,.07,0,.09-.08.09H.32c-.08,0-.09,0-.09-.09V1.33a.31.31,0,0,1,.06-.19A4.44,4.44,0,0,1,1.06.41,1.71,1.71,0,0,1,2.62.13s0,0,0,0L2.48,0H16.37a4.35,4.35,0,0,1,2,1.12,3.68,3.68,0,0,1,1,2,.89.89,0,0,1,0,.23v19a.52.52,0,0,0,.41.53.53.53,0,0,1-.1-.44v-4c0-.13,0-.13.12-.13h3.45c.09,0,.11,0,.11.12v4.15a.29.29,0,0,1-.07.16,3.65,3.65,0,0,1-.77.75l.44.11.78.19V24H21c-4.46-.07-8.93,0-13.39,0a3,3,0,0,1-1.26-.28,4.18,4.18,0,0,1-2-2v-.1A1.24,1.24,0,0,1,4.22,21Z" transform="translate(-0.23 0)"/><path d="M15.44,8.56a1,1,0,0,1-.38.67,1.14,1.14,0,0,1-.79.27H8.38a1.16,1.16,0,0,1-1-.52,1,1,0,0,1-.17-.59V3.6a1.1,1.1,0,0,1,.93-1.08h6.3a1.1,1.1,0,0,1,.94.93V8.56Zm-5-5.19H8.32a.22.22,0,0,0-.23.22h0V8.35a.19.19,0,0,0,.14.21h.7c.08,0,.09,0,.09-.09V6.82a.46.46,0,0,1,.14-.36A1.44,1.44,0,0,1,10.32,6h.43a1.58,1.58,0,0,1-.32-2.64ZM12.64,6h.28a2.26,2.26,0,0,1,.52,0,1.26,1.26,0,0,1,.7.52.28.28,0,0,1,0,.13V8.42c0,.19,0,.19.17.16a.22.22,0,0,0,.23-.22V3.6a.2.2,0,0,0-.15-.21.33.33,0,0,0-.14,0H12.91a1.6,1.6,0,0,1,.18,2.25A1.55,1.55,0,0,1,12.64,6Zm-1,2h1.59c.08,0,.1,0,.1-.09V7c0-.09,0-.1-.11-.11h-3A.59.59,0,0,0,10,7a.12.12,0,0,0-.07.11v.8c0,.07,0,.09.09.09C10.53,8,11.06,8,11.6,8Zm.07-4.14a1.08,1.08,0,0,0-.6.18.64.64,0,0,0-.26.85.61.61,0,0,0,.12.16,1.06,1.06,0,0,0,1.49,0,.6.6,0,0,0,0-.84h0A1.07,1.07,0,0,0,11.67,3.84Z" transform="translate(-0.23 0)" fill="#ff5733" stroke="#000" stroke-miterlimit="10" stroke-width="0.25" fill-rule="evenodd"/><path d="M12.09,12.13H6.6c-.17,0-.17,0-.17-.09v-.47c0-.06,0-.06.13-.06H17.63c.11,0,.13,0,.13.06v.5s0,.06-.13.06Z" transform="translate(-0.23 0)" fill="#109ca6" stroke="#000" stroke-miterlimit="10" stroke-width="0.25" fill-rule="evenodd"/><path d="M6.54,16.87h9.69v.6c0,.09,0,.09-.11.09H6.62c-.06,0-.08,0-.08-.06Z" transform="translate(-0.23 0)" fill="#109ca6" stroke="#000" stroke-miterlimit="10" stroke-width="0.25" fill-rule="evenodd"/><path d="M13.09,20.06H6.55c-.12,0-.11,0-.11-.1v-.49s0-.07.06-.08h6.63s.07,0,.07.06h0v.48C13.2,20.07,13.21,20.07,13.09,20.06Z" transform="translate(-0.23 0)" fill="#109ca6" stroke="#000" stroke-miterlimit="10" stroke-width="0.25" fill-rule="evenodd"/><path d="M6.14,14.19a.07.07,0,0,1,.07-.06h6.6a.08.08,0,0,1,.08,0v.6c0,.09,0,.09-.13.09H6.22s-.08,0-.08-.06Z" transform="translate(-0.23 0)" fill="#109ca6" stroke="#000" stroke-miterlimit="10" stroke-width="0.25" fill-rule="evenodd"/><path d="M15.81,14.87H14c-.08,0-.1,0-.1-.07v-.6s0-.07.09-.07h3.72c.07,0,.09,0,.09.07v.6c0,.06,0,.07-.1.07Z" transform="translate(-0.23 0)" fill="#109ca6" stroke="#000" stroke-miterlimit="10" stroke-width="0.25" fill-rule="evenodd"/><path d="M15.81,20.07H14c-.07,0-.09,0-.09-.07v-.56s0-.06.08-.06h3.74c.06,0,.08,0,.08.05V20c0,.05,0,.07-.09.07Z" transform="translate(-0.23 0)" fill="#109ca6" stroke="#000" stroke-miterlimit="10" stroke-width="0.25" fill-rule="evenodd"/></svg>