<svg id="Layer_1" data-name="Layer 1" xmlns="http://www.w3.org/2000/svg" width="23.92" height="23.98" viewBox="0 0 23.92 23.98"><path d="M1.46,14.63a4.44,4.44,0,0,1,.37-1.24,4.34,4.34,0,0,1,1.35-1.65,7.35,7.35,0,0,1,2.16-1.1,13.73,13.73,0,0,1,2.17-.53L8.3,10,8,9.71A5.7,5.7,0,0,1,6.57,7.42a8.44,8.44,0,0,1-.44-3.07c0-.08,0-.11-.09-.12L4.45,3.88H4.38s0,0,0,.06v2a.31.31,0,0,0,.06.16c.5.75,1,1.51,1.48,2.27.09.14.18.28.28.42s0,.07,0,.07l-1.83.08L1.45,9s-.1,0-.12,0,0-.09,0-.13L2.86,6.08a.28.28,0,0,0,0-.13V3.63a.11.11,0,0,0,0-.09l-.06,0L.31,3h0V2.85l.06,0L3,2.15l3.62-.89L10.17.38c.2,0,.41-.09.61-.16h.66A3.58,3.58,0,0,0,12,.36L14.52,1,17,1.64l2.55.64,2.3.58.11,0L21.35,3l-2.43.57-2.23.52c-.1,0-.13,0-.14.15a10.3,10.3,0,0,1-1.13,3.86,6,6,0,0,1-1.36,1.73L14,9.93v0l.66.1a13.21,13.21,0,0,1,2.24.51,7.94,7.94,0,0,1,1.91.9,5.07,5.07,0,0,1,1.74,1.88,4.71,4.71,0,0,1,.37.94,3.45,3.45,0,0,1,.21,1.28,1.62,1.62,0,0,0,0,.22c0,.13,0,.13-.13.13H1.54c-.09,0-.11,0-.11-.11s0-.59,0-.66A4.36,4.36,0,0,1,1.46,14.63Zm10-.29a.24.24,0,0,1-.29,0l0,0L8.43,11.62a.34.34,0,0,0-.33-.11,14,14,0,0,0-2.3.56,5.69,5.69,0,0,0-1.64.85,2.84,2.84,0,0,0-1,1.48c0,.1.07.12.1.12h16.2a.1.1,0,0,0,.09-.12A3.35,3.35,0,0,0,18.46,13a5.52,5.52,0,0,0-1.61-.89,11.42,11.42,0,0,0-2.39-.58.08.08,0,0,0-.09,0l-1.86,1.78C12.15,13.65,11.79,14,11.44,14.34Zm-.26-4.78a3.12,3.12,0,0,0,1.16-.24,3.69,3.69,0,0,0,1.44-1.19,7.15,7.15,0,0,0,1.24-3s0-.06,0-.05l-.47.1-2.69.58a1.37,1.37,0,0,1-.67,0C10,5.56,8.92,5.32,7.8,5.07c-.07,0-.09,0-.09.08A7.08,7.08,0,0,0,8,6.61,4.46,4.46,0,0,0,9.21,8.72,3,3,0,0,0,11.18,9.56ZM9.6,10.7l0,.05,1.61,1.61c.05.05.08.05.13,0l1.68-1.62.13-.12.12-.11,0,0a4.22,4.22,0,0,1-3.69.21Z" transform="translate(-0.03 0.03)" fill="#c70039" stroke="#000" stroke-miterlimit="10" stroke-width="0.5" fill-rule="evenodd"/><path d="M19.42,16.78s0,0,0,0V19c0,.05,0,.2,0,.2h.44s0,0,0-.06V16.87c0-.13,0-.14.15-.13s.06,0,.08,0-.12.08-.12.16v2.16a.14.14,0,0,0,.16.16h1.09a.14.14,0,0,0,.15-.15V16.86a.1.1,0,0,0-.06-.1s0,0,0,0h1.06s0,.06,0,.1v2.4c0,.09,0,.11-.11.11H11.77s-.06,0-.09,0,0,0,0-.07V17s0-.26.21-.26h7.44s.09,0,.11,0A0,0,0,0,1,19.42,16.78Z" transform="translate(-0.03 0.03)" fill="#ffc300"/><path d="M23.34,20.22a2.2,2.2,0,0,1,.13.36h0v2.13a.29.29,0,0,1,0,.14h0s0-.08,0-.09h0c0-.68,0-1.36,0-2a1,1,0,0,0-.11-.44.36.36,0,0,0,0-.09A0,0,0,0,1,23.34,20.22Z" transform="translate(-0.03 0.03)" fill="#02070c"/><path d="M22.31,21.94c.1,0,.12,0,.12-.11s-.08-.08-.13-.08H10.58s0,0,0,0a.34.34,0,0,0,.2,0H22.27c.13,0,.15,0,.15-.14h0a.5.5,0,0,0,0,.12.45.45,0,0,1,0,.11,1.27,1.27,0,0,1,0,.28h0s0,0,0-.06-.07,0-.12,0,.08,0,.08.07,0,.06-.06.05,0-.1-.08-.09H10.76c-.07,0-.1,0-.08.09s-.06,0-.06.05,0,0,.06,0H22.31v0H10.7c-.13,0-.13,0-.13-.12s0-.18.18-.18Z" transform="translate(-0.03 0.03)" fill="#02070c"/><path d="M10.25,23.47c-.11.05-.15,0-.21-.06.11-.14.27-.1.41-.1H22.2a.66.66,0,0,0,.54-.33s0-.08.09-.09a.7.7,0,0,1-.15.25h0l0,0h0l0,0h0a.34.34,0,0,1-.14.08,1.09,1.09,0,0,1-.31,0H10.24a.1.1,0,0,0-.09,0s0,0,0,0,0,0,0,0h.09Z" transform="translate(-0.03 0.03)" fill="#02070c"/><path d="M23.28,20.19a.07.07,0,0,1,.06,0,2.2,2.2,0,0,1,.13.36,2.2,2.2,0,0,0-.13-.36,0,0,0,0,0-.06,0Z" transform="translate(-0.03 0.03)" fill="#02070c"/><path d="M22.65,23.18l0,0Z" transform="translate(-0.03 0.03)" fill="#02070c"/><path d="M22.13,20.54a.18.18,0,0,1,.17.06s0,0,0,0H10.75c-.18,0-.18,0-.17.19v0c0,.1.06.07.1.07H22.35s.07,0,.08.07-.07,0-.11,0H10.74c-.17,0-.17,0-.17.18s0,.13.13.13H22.38s.05,0,.05,0,0,.05-.05.05H11c-.11,0-.22,0-.34,0s-.11,0-.08.1v0a.09.09,0,0,0,0,.07h0v.08H22.31c.05,0,.12,0,.12.08s0,.12-.11.12H10.75c-.18,0-.18,0-.18.18s0,.13.13.13H22.35s.08,0,.08.05,0,.05-.08.05H10.76c-.19,0-.19,0-.19.19s0,.11.11.11H22.24c.05,0,.1,0,.14,0v0h0a.24.24,0,0,1-.25.15c-3.83,0-7.67,0-11.51,0h-.15V20.57s0,0,.06,0Z" transform="translate(-0.03 0.03)" fill="#f0f7fb"/><path d="M10.61,21.76Z" transform="translate(-0.03 0.03)" fill="#02070c"/><path d="M19.48,16.81v2.26s0,.07,0,.07,0,0,0,0h.23s0,0,0,0,0,0,0,0h.07v.08s0,.06-.05.06h-.44c-.05,0,0-.15,0-.2V16.79h.06Z" transform="translate(-0.03 0.03)" fill="#02070c"/><path d="M21.43,16.7s-.07,0-.07.05h0s0,0,0,0,0,0,0,0,0,.06,0,.06a.15.15,0,0,0-.09,0h-.62a3.38,3.38,0,0,0-.45,0s0-.07,0-.09-.05,0-.08,0-.14,0-.14.13v2.22h-.07V16.81s0-.06,0-.07h-.29s0,0,0,.05h-.06a.08.08,0,0,0,0,0c0-.06-.07,0-.11,0H11.85c-.23,0-.21.24-.21.27v2.29s0,.06,0,.07.07,0,.1,0H22.32c.08,0,.11,0,.11-.11v-2.4s0-.07,0-.1,0,0-.06,0ZM10.29,23.46a0,0,0,0,1,0,0,.17.17,0,0,0,.12,0H22.37l.2,0h.11a.47.47,0,0,0,.56-.24h0s.06-.07,0-.11h0s0,0,.07,0,0-.13.06-.19h0a.58.58,0,0,0,.08-.18c0-.71,0-1.43,0-2.14h0a2.2,2.2,0,0,0-.13-.36.07.07,0,0,0-.06,0h0a1.31,1.31,0,0,0-.3-.32c-.05-.07-.12-.06-.19-.06H10.1a.08.08,0,0,0-.07.05c0,.07.08.17.16.17h.13c0,.06.08,0,.12,0H22.07a.55.55,0,0,1,.22,0,0,0,0,0,0,0,0,.11.11,0,0,1,.08,0c0,.06.06.08.11,0a.46.46,0,0,1,.17.14,1.13,1.13,0,0,1,.25.72v1.41a1.05,1.05,0,0,1-.1.49c-.06,0-.07.06-.09.09a.66.66,0,0,1-.54.33H10.45c-.15,0-.3,0-.41.1.06.1.1.11.21.06Zm.18-2.33c-.05,0,0,.05,0,.08v1.28s0,.06,0,.07v0a.19.19,0,0,0,0,.23v0s0,.07,0,.05.17,0,.26,0H21.4a7.48,7.48,0,0,0,.82,0c.15,0,.16,0,.16-.17h0v0s0,0,0,0-.05,0-.06,0,0-.05,0-.05,0,0,0-.07,0,0-.06,0h0c0-.06-.07,0-.11,0H10.73s0,0,0,0h0s-.07,0-.08,0,.08-.05.13-.05H22.26a.19.19,0,0,1,.17.08.24.24,0,0,1,0-.1.07.07,0,0,0,0-.11.16.16,0,0,1,0-.12v0a2.48,2.48,0,0,0,0-.27s0-.08,0-.12a.5.5,0,0,1,0-.12.26.26,0,0,1,0-.11.14.14,0,0,0,0-.11.6.6,0,0,1,0-.35c0-.08,0-.11-.09-.1H11a1.08,1.08,0,0,0-.18,0,.37.37,0,0,1-.23,0v0h.09l0,0s.08,0,.12,0H22.3c.06,0,.06,0,.07-.08s0-.07-.07-.06v-.08s0,0,0,0a.19.19,0,0,0-.17-.06H10.53s-.06,0-.07,0a.05.05,0,0,0,0,.05v.43s0,.05,0,.05A0,0,0,0,1,10.47,21.13Zm13.47-.4c0,.64,0,1.28,0,1.92a1.51,1.51,0,0,1-.69,1.22l-.11.05H10a.29.29,0,0,1-.16,0h0l-.13-.1a.38.38,0,0,1-.09-.44s0-.07,0-.1a.51.51,0,0,1,.26-.3.1.1,0,0,0,.06-.11V20.56a.12.12,0,0,0-.05-.11.74.74,0,0,1-.35-.59.63.63,0,0,1,.22-.49s.07,0,.11,0h1.18c.08,0,.1,0,.1-.11v-2.4a.59.59,0,0,1,.2-.52.68.68,0,0,1,.31-.08h10.7a.71.71,0,0,1,.29.05.52.52,0,0,1,.26.51c0,.82,0,1.63,0,2.44,0,.08,0,.11.09.13a1.15,1.15,0,0,1,.68.58A1.42,1.42,0,0,1,23.94,20.73Z" transform="translate(-0.03 0.03)" fill="#02070c"/><rect x="23.38" y="22.8" fill="#ce9515"/><path d="M10.15,23.38a.12.12,0,0,1,.09,0h11.9a1.09,1.09,0,0,0,.31,0,.29.29,0,0,0,.14-.08h0l0,0h0l0,0h0a.79.79,0,0,0,.15-.25,1.05,1.05,0,0,0,.1-.49V21a1.13,1.13,0,0,0-.25-.72.39.39,0,0,0-.17-.14s-.06-.05-.11,0a.11.11,0,0,0-.08,0,.5.5,0,0,0-.21,0H10.19l0,0a.14.14,0,0,1-.07-.13s.09,0,.13,0H22.61a.92.92,0,0,1,.37,0,1,1,0,0,1,.3.32h0a.36.36,0,0,1,0,.09,1,1,0,0,1,.11.44c0,.68,0,1.36,0,2h0a1.22,1.22,0,0,1-.14.35h0a.56.56,0,0,1-.41.31H10.17s-.05,0-.05,0S10.13,23.4,10.15,23.38Z" transform="translate(-0.03 0.03)" fill="#ffc300"/><path d="M23.47,20.59c0,.71,0,1.43,0,2.13a.54.54,0,0,1-.08.19h0s0,0,0,0h0a.33.33,0,0,0,0-.14C23.47,22,23.48,21.3,23.47,20.59Z" transform="translate(-0.03 0.03)" fill="#02070c"/><path d="M23.42,22.77s0,.1,0,.09,0,0,0,0,0-.08,0-.1v0Z" transform="translate(-0.03 0.03)" fill="#02070c"/><path d="M23.28,23.12a2.32,2.32,0,0,0,.14-.35v0s0,.08,0,.1a.85.85,0,0,1-.06.19S23.32,23.14,23.28,23.12Z" transform="translate(-0.03 0.03)" fill="#02070c"/><path d="M23.28,23.13s0,.07,0,.11,0-.06,0-.11Z" transform="translate(-0.03 0.03)" fill="#02070c"/><path d="M22.65,23.19l0,0Z" transform="translate(-0.03 0.03)" fill="#02070c"/><path d="M23.24,23.24a.47.47,0,0,1-.56.24h-.11v0h.3a.56.56,0,0,0,.41-.31c0,.05,0,.07,0,.11Z" transform="translate(-0.03 0.03)" fill="#02070c"/><path d="M22.4,20.1c.05,0,.07,0,.11,0S22.42,20.15,22.4,20.1Z" transform="translate(-0.03 0.03)" fill="#02070c"/><path d="M22.59,23.24a.29.29,0,0,1-.14.08A.34.34,0,0,0,22.59,23.24Z" transform="translate(-0.03 0.03)" fill="#02070c"/><path d="M22.35,16.7s.06,0,.07,0H21.36c0-.05,0-.05.07-.05Z" transform="translate(-0.03 0.03)"/><path d="M20.12,17a.21.21,0,0,1,.05-.16,3.38,3.38,0,0,1,.45,0h.62a.15.15,0,0,1,.09,0c0,.73,0,1.45,0,2.18,0,.09,0,.12-.12.11h-1c-.09,0-.12,0-.11-.11Z" transform="translate(-0.03 0.03)" fill="#1f4e93"/><path d="M21.33,16.85s.09,0,0-.06,0,0,0,0,.05.06.05.1v2.23a.14.14,0,0,1-.15.15H20.18a.14.14,0,0,1-.16-.16V16.93c0-.09.06-.12.12-.17s0,.06,0,.09a.21.21,0,0,0-.05.16v2c0,.09,0,.11.11.11h1c.09,0,.12,0,.12-.11C21.32,18.3,21.32,17.58,21.33,16.85Z" transform="translate(-0.03 0.03)" fill="#02070c"/><path d="M19.85,19.07v0s0,.05,0,.05h0v-2.4c.05,0,0,0,0,.07Z" transform="translate(-0.03 0.03)"/><polygon points="19.78 19.17 19.78 19.17 19.78 19.17 19.78 19.17" fill="#3f67a0"/><polygon points="19.78 19.17 19.78 19.17 19.78 19.17 19.78 19.17" fill="#3f67a0"/><path d="M19.52,19.14h.3s0,0,0,0h-.23S19.52,19.16,19.52,19.14Z" transform="translate(-0.03 0.03)"/><path d="M19.52,19.14v-2.4h.3v2.4Z" transform="translate(-0.03 0.03)" fill="#1f4e93"/><path d="M19.52,19.14c-.05,0,0,0,0-.07V16.79s0,0,0-.05Z" transform="translate(-0.03 0.03)"/><path d="M22.38,20.78s0,.09-.08.09H10.81s-.08,0-.11,0H22.29s0,0,0-.05,0,0,0-.05H10.7s.08,0,.12,0H22.3C22.35,20.72,22.39,20.73,22.38,20.78Z" transform="translate(-0.03 0.03)" fill="#02070c"/><path d="M22.3,21.25v0H10.79s-.08,0-.09,0H22.3Z" transform="translate(-0.03 0.03)" fill="#02070c"/><path d="M10.81,22.41H22.19s.09,0,.11,0H10.7s0,0,0,0Z" transform="translate(-0.03 0.03)" fill="#02070c"/><path d="M22.3,22.15c0,.05,0,0-.07,0a1.62,1.62,0,0,1-.22,0H10.81s-.09,0-.11,0H22.3Z" transform="translate(-0.03 0.03)" fill="#02070c"/><path d="M22.3,21.54H10.7s0,0,0,0H22.19S22.28,21.48,22.3,21.54Z" transform="translate(-0.03 0.03)" fill="#02070c"/><path d="M22.21,20.74h.08s0,0,0,0,0,.05,0,.05H10.7l0,0v-.07l0,0H22.21Z" transform="translate(-0.03 0.03)" fill="#f0f7fb"/><path d="M10.68,21.25c0-.08,0-.1.08-.1h11.5c.08,0,.08,0,0,.1H10.7S10.69,21.24,10.68,21.25Z" transform="translate(-0.03 0.03)" fill="#f0f7fb"/><path d="M22.16,22.05h.08c.07,0,.1,0,.08.1H10.68c0-.08,0-.1.08-.1h11.4Z" transform="translate(-0.03 0.03)" fill="#f0f7fb"/><path d="M22.3,21.54h0c0,.07,0,.1-.08.09H10.77c-.08,0-.11,0-.09-.09H22.3Z" transform="translate(-0.03 0.03)" fill="#f0f7fb"/><path d="M22.32,22.45c0,.07,0,.1-.08.1H10.76c-.07,0-.1,0-.08-.09H22.32Z" transform="translate(-0.03 0.03)" fill="#f0f7fb"/><path d="M10.68,21.32s0,0-.06,0,0,0,.06,0,0,0,0,0,.06,0,.09,0H22.3a.1.1,0,0,0,.08-.1c0-.05,0-.05-.07-.07s.09,0,.11,0a.15.15,0,0,1-.08.18H10.68Z" transform="translate(-0.03 0.03)" fill="#02070c"/><path d="M22.23,22.18s.06,0,.07,0h0s.06,0,.06-.06,0-.08-.08-.07.1-.05.12,0,0,0,0,.06a.12.12,0,0,1-.09.13H10.68s0,0,0,0,0,0,0,0h0c0,.06.07,0,.11,0H22A1.62,1.62,0,0,0,22.23,22.18Z" transform="translate(-0.03 0.03)" fill="#02070c"/><path d="M22,21.66H11a.76.76,0,0,0-.3,0,.1.1,0,0,1-.12-.05.05.05,0,0,1,.06-.08c0,.07,0,.09.08.09H22.24c.07,0,.1,0,.08-.09s.06,0,.06.06,0,.05-.06.05Z" transform="translate(-0.03 0.03)" fill="#02070c"/><path d="M10.61,20.78c0-.07,0-.1.09-.1a1.77,1.77,0,0,0,.23,0H22.17s.08-.06.06,0H10.82s-.09,0-.12,0l0,0S10.63,20.77,10.61,20.78Z" transform="translate(-0.03 0.03)" fill="#02070c"/><path d="M10.58,21.74h0Z" transform="translate(-0.03 0.03)" fill="#f0f7fb"/><path d="M10.58,21.69v0Z" transform="translate(-0.03 0.03)" fill="#f0f7fb"/><path d="M10.58,21.74v0h0S10.58,21.73,10.58,21.74Z" transform="translate(-0.03 0.03)" fill="#f0f7fb"/><path d="M22.42,21.59c0,.12,0,.14-.15.14H10.78a.44.44,0,0,1-.2,0h0v0h0a.08.08,0,0,0,0-.07s0,0,0,0,.13-.08.22-.08H22.27c.12,0,.14,0,.15.11Zm0,0s0-.07-.06-.06h0c0-.06-.07,0-.11,0H10.73a0,0,0,0,0,0,0h0a.06.06,0,0,0-.07.08s.09.07.12.05a.83.83,0,0,1,.31,0H22.31S22.38,21.65,22.38,21.61Z" transform="translate(-0.03 0.03)" fill="#02070c"/><path d="M21.86,20.94H10.68s-.13,0-.1-.07a.34.34,0,0,0,.22,0,1.21,1.21,0,0,1,.19,0H22.36c.08,0,.1,0,.09.09h0c0-.05,0-.07-.08-.07Z" transform="translate(-0.03 0.03)" fill="#02070c"/><path d="M10.61,20.78s0,0,.06,0v.07h-.09c0-.18,0-.19.17-.19H22.3v.07h-.07c0-.09-.05,0-.06,0H10.93a1.77,1.77,0,0,1-.23,0C10.63,20.68,10.6,20.71,10.61,20.78Z" transform="translate(-0.03 0.03)" fill="#02070c"/><path d="M10.57,21.59a.06.06,0,0,1,0,.07A.2.2,0,0,1,10.57,21.59Z" transform="translate(-0.03 0.03)" fill="#567aad"/><path d="M10.57,21.54c0-.07,0-.1.09-.1H22.38s.05,0,.05-.06,0-.05-.05,0H10.7c-.13,0-.13,0-.13-.13s0-.17.17-.17H22.32s.09,0,.11,0h0a.73.73,0,0,0,0,.36.12.12,0,0,1,0,.1.27.27,0,0,0,0,.12h0c0-.09,0-.11-.15-.11H10.79C10.7,21.47,10.62,21.46,10.57,21.54Zm11.73-.29c.05-.06,0-.1,0-.1H10.76c-.08,0-.1,0-.08.1s-.06,0-.06,0,0,0,.06,0H22.33a.13.13,0,0,0,.08-.18c0-.07-.06,0-.1,0s.07,0,.07.07a.1.1,0,0,1-.08.1Z" transform="translate(-0.03 0.03)" fill="#02070c"/><path d="M10.73,22.37s-.1,0-.13.05.05,0,.08,0,0,.1.08.09H22.24c.07,0,.1,0,.08-.1s.06,0,.06,0,0,.06,0,.07,0,0,0,0,0,0,.06,0,0,0,0,0-.1,0-.15,0H10.68c-.09,0-.12,0-.11-.11s0-.19.19-.19H22.35s.08,0,.08-.06,0,0-.08,0a0,0,0,0,0,0,0v0h0a.12.12,0,0,0,.09-.13h0v0a.17.17,0,0,0,0,.12.08.08,0,0,1,0,.11.11.11,0,0,0,0,.1.17.17,0,0,0-.17-.08Z" transform="translate(-0.03 0.03)" fill="#02070c"/><path d="M10.77,22.88c-.09,0-.17,0-.26,0s0,0,0-.05h.15c3.84,0,7.68,0,11.52,0a.23.23,0,0,0,.24-.15c0,.16,0,.15-.16.16a7.48,7.48,0,0,1-.82,0Z" transform="translate(-0.03 0.03)" fill="#02070c"/><path d="M10.47,21.1a.05.05,0,0,1,0-.05v-.44a0,0,0,0,1,0,0Z" transform="translate(-0.03 0.03)" fill="#02070c"/><path d="M10.47,21.13v1.43c-.05,0,0,0,0-.07V21.21S10.42,21.14,10.47,21.13Z" transform="translate(-0.03 0.03)" fill="#02070c"/><path d="M10.47,22.82a.18.18,0,0,1,0-.22Z" transform="translate(-0.03 0.03)" fill="#02070c"/><path d="M10.44,20.08s-.09,0-.12,0H22.11a.51.51,0,0,1,.21,0s0,0,0,0a.81.81,0,0,0-.22,0Z" transform="translate(-0.03 0.03)" fill="#02070c"/><path d="M22.57,23.47l-.2,0H10.43a.17.17,0,0,1-.12,0,0,0,0,0,0,0,0H22.57v0Z" transform="translate(-0.03 0.03)" fill="#02070c"/><path d="M23,19.88a.93.93,0,0,0-.37,0H10.22c-.05,0-.11,0-.13,0a.14.14,0,0,0,.07.13l0,0c-.08,0-.18-.1-.16-.17a.08.08,0,0,1,.07-.05H22.79C22.86,19.82,22.93,19.81,23,19.88Z" transform="translate(-0.03 0.03)" fill="#02070c"/><path d="M23,23.91H10a.47.47,0,0,1-.17,0,.41.41,0,0,0,.16,0H23Z" transform="translate(-0.03 0.03)" fill="#02070c"/><path d="M9.87,23.88a.47.47,0,0,0,.17,0H23.13a.48.48,0,0,1-.24,0H10.1a.56.56,0,0,1-.37-.11.46.46,0,0,1-.09-.6.34.34,0,0,1,0,.1.37.37,0,0,0,.09.43.47.47,0,0,0,.13.11Z" transform="translate(-0.03 0.03)" fill="#02070c"/></svg>