<svg id="Layer_1" data-name="Layer 1" xmlns="http://www.w3.org/2000/svg" width="23.31" height="23.78" viewBox="0 0 23.31 23.78"><path d="M12.88.56h1.64a2,2,0,0,1,1.81,2.1v20.6H11.07V2.64A2,2,0,0,1,12.88.56Z" transform="translate(-0.37 -0.18)" fill="#f77f00" stroke="#000" stroke-miterlimit="10" stroke-width="0.75"/><path d="M2.55.56H4.18A2,2,0,0,1,6,2.64V23.26H.74V2.64A2,2,0,0,1,2.55.56Z" transform="translate(-0.37 -0.18)" fill="#eae2b7" stroke="#000" stroke-miterlimit="10" stroke-width="0.75"/><path d="M7.8.56H9.43a2,2,0,0,1,1.81,2.1v20.6H6V2.64A2,2,0,0,1,7.8.56Z" transform="translate(-0.37 -0.18)" fill="#fcbf49" stroke="#000" stroke-miterlimit="10" stroke-width="0.75"/><path d="M18,.74,19.58.56a1.91,1.91,0,0,1,2,1.85v0L23.27,23h0L18,23.54h0L16.32,3A2,2,0,0,1,18,.74Z" transform="translate(-0.37 -0.18)" fill="#ec8f71" stroke="#000" stroke-miterlimit="10" stroke-width="0.75"/><path d="M7.82,2.37h.69A1.38,1.38,0,0,1,9.89,3.76v19a0,0,0,0,1,0,0H6.44a0,0,0,0,1,0,0v-19A1.38,1.38,0,0,1,7.82,2.37Z" fill="#fca049"/><path d="M13.07,2.37h.69a1.38,1.38,0,0,1,1.38,1.38v19a0,0,0,0,1,0,0H11.68a0,0,0,0,1,0,0v-19a1.38,1.38,0,0,1,1.38-1.38Z" fill="#964d11"/><path d="M22.41,22.59,19,23,17.18,4.41A1.55,1.55,0,0,1,18.4,2.65l.69-.09A1.45,1.45,0,0,1,20.62,4Z" transform="translate(-0.37 -0.18)" fill="#e5cebd"/><path d="M2.84,2.37H3A1.65,1.65,0,0,1,4.65,4V22.71a0,0,0,0,1,0,0H1.19a0,0,0,0,1,0,0V4A1.65,1.65,0,0,1,2.84,2.37Z" fill="#ded1b5"/><rect x="1.21" y="4.01" width="1.18" height="18.7" fill="none" stroke="#003049" stroke-miterlimit="10" stroke-width="0.25"/><rect x="1.8" y="4.01" width="1.18" height="18.7" fill="none" stroke="#003049" stroke-miterlimit="10" stroke-width="0.25"/><rect x="2.92" y="4.01" width="1.18" height="18.7" fill="none" stroke="#003049" stroke-miterlimit="10" stroke-width="0.25"/><rect x="3.51" y="4.01" width="1.18" height="18.7" fill="none" stroke="#003049" stroke-miterlimit="10" stroke-width="0.25"/><rect x="11.6" y="4.01" width="1.18" height="18.7" fill="none" stroke="#003049" stroke-miterlimit="10" stroke-width="0.25"/><rect x="12.19" y="4.01" width="1.18" height="18.7" fill="none" stroke="#003049" stroke-miterlimit="10" stroke-width="0.25"/><rect x="13.3" y="4.01" width="1.18" height="18.7" fill="none" stroke="#003049" stroke-miterlimit="10" stroke-width="0.25"/><rect x="13.89" y="4.01" width="1.18" height="18.7" fill="none" stroke="#003049" stroke-miterlimit="10" stroke-width="0.25"/></svg>