<svg id="Layer_1" data-name="Layer 1" xmlns="http://www.w3.org/2000/svg" width="23.91" height="24.01" viewBox="0 0 23.91 24.01"><path d="M16.3,14a1.45,1.45,0,0,1,.52-1.78,2.15,2.15,0,0,1,1.56-1,2.28,2.28,0,0,0-1.46,1A1.49,1.49,0,0,0,16.4,14a1.73,1.73,0,0,0,.42,2.2,2.75,2.75,0,0,0,.73,1.16v.94c.63.21.95.74,1.05,1.68l.32,3.35a.4.4,0,0,1-.11.25.52.52,0,0,0,0-.35l-.31-3.15c-.11-1-.32-1.46-.84-1.67l-3.88-1.68V15.46a3.93,3.93,0,0,0,.94-1.57,2,2,0,0,0,.21-.2l0,.05,0,0,1.26.53Z" transform="translate(-0.11 -0.01)" fill="#a7dbd8"/><path d="M9.69,13.78a5.8,5.8,0,0,0,1.05,1.58v1.25L7,18.29l-.22.11-.3-.11v-.94a2.47,2.47,0,0,0,.73-1.16,1.77,1.77,0,0,0,.42-2.09V14l.21.52,1.79-.74a2.66,2.66,0,0,1-.71-1.18h0A2.34,2.34,0,0,0,9.69,13.78Z" transform="translate(-0.11 -0.01)" fill="#a7dbd8"/><path d="M20,17.35v.94l2.93,1.26c.42.21.63.52.63,1.26l.21,2.41c.1.31-.1.42-.52.42H18.77s0,0,0,0a.05.05,0,0,0,0,0,.4.4,0,0,0,.11-.25L18.6,20c-.1-.94-.42-1.47-1.05-1.68v-.94a2.75,2.75,0,0,1-.73-1.16A1.73,1.73,0,0,1,16.4,14a1.49,1.49,0,0,1,.52-1.78,2.28,2.28,0,0,1,1.46-1h.16a3.07,3.07,0,0,1,1.95,1l0-.07.08.07c.53.31.63,1,.53,1.89a1.78,1.78,0,0,1-.42,2.09A2.47,2.47,0,0,1,20,17.35Z" transform="translate(-0.11 -0.01)" fill="#69d2e7"/><path d="M7.59,14h0v.1a1.77,1.77,0,0,1-.42,2.09,2.47,2.47,0,0,1-.73,1.16v.94l.3.11,0,0a.77.77,0,0,0-.43.61,1.73,1.73,0,0,0,0,.41L5.92,23c-.09.25-.11.5,0,.59s0,0,0,0l0,0H.88c-.42,0-.52,0-.52-.42l.21-2.83a.8.8,0,0,1,.63-.84L4,18.29v-.94a2.78,2.78,0,0,1-.74-1.16A1.74,1.74,0,0,1,2.88,14a1.49,1.49,0,0,1,.52-1.78,2.09,2.09,0,0,1,1.89-.94A2.76,2.76,0,0,1,7.51,13.2,3.25,3.25,0,0,1,7.59,14Z" transform="translate(-0.11 -0.01)" fill="#69d2e7"/><path d="M6.74,18.4,7,18.29l3.78-1.68V15.36a5.8,5.8,0,0,1-1.05-1.58,2.34,2.34,0,0,1-.79-1.19A2.19,2.19,0,0,1,9.17,11,2.2,2.2,0,0,1,9.9,8.54c1.47-1.78,3-1.68,4.72,0a2.63,2.63,0,0,1,.73,2.52,2.27,2.27,0,0,1-.42,2.63,2,2,0,0,1-.21.2,3.93,3.93,0,0,1-.94,1.57v1.26l3.88,1.68c.52.21.73.63.84,1.67l.31,3.15a.52.52,0,0,1,0,.35.05.05,0,0,1,0,0,.09.09,0,0,1-.07,0h.06c-.1.12-.29.16-.59.1H6.54c-.3,0-.5,0-.59-.1H6l-.09,0s0,0,0,0a.59.59,0,0,1,0-.38l.31-3.78a1.73,1.73,0,0,1,0-.41.93.93,0,0,1,.43-.61Z" transform="translate(-0.11 -0.01)" fill="#109ca6"/><path d="M16.82,12.21A1.45,1.45,0,0,0,16.3,14l-.11.32-1.26-.53,0,0a2,2,0,0,0,.7-1.32c2.51-2.73,2-5-.11-7.34-4.93-3.46-11.32,2.1-6.71,7.44a.26.26,0,0,0,0,.08,2.66,2.66,0,0,0,.71,1.18l-1.79.74L7.59,14a2.9,2.9,0,0,0-.08-.8,2.54,2.54,0,0,0-2.22-2,7.84,7.84,0,0,1,0-4.4l-1.37-1L5.39,3.19,7,3.82a9.72,9.72,0,0,1,3.67-2L11,.26h2.93L14.2,2a6.87,6.87,0,0,1,3.56,2l1.58-.63L20.8,5.81,19.44,7a7.18,7.18,0,0,1-.1,4l1.25,1-.08.24a2.91,2.91,0,0,0-2-.91h-.16A2.15,2.15,0,0,0,16.82,12.21Z" transform="translate(-0.11 -0.01)" fill="#ffc300"/><path d="M18.54,11.23a3.07,3.07,0,0,1,1.95,1l0-.07.08-.24-1.25-1a7.18,7.18,0,0,0,.1-4L20.8,5.81,19.34,3.4,17.76,4A6.87,6.87,0,0,0,14.2,2L13.88.26H11l-.32,1.57A9.72,9.72,0,0,0,7,3.82L5.39,3.19,3.92,5.71l1.37,1a7.84,7.84,0,0,0,0,4.4,2.54,2.54,0,0,1,2.22,2,3.25,3.25,0,0,1,.08.79h0l.21.52,1.79-.74a2.66,2.66,0,0,1-.71-1.18.26.26,0,0,1,0-.08c-4.61-5.34,1.78-10.9,6.71-7.44,2.1,2.31,2.62,4.61.11,7.34a2,2,0,0,1-.7,1.32l0,0,1.26.53L16.3,14a1.45,1.45,0,0,1,.52-1.78,2.15,2.15,0,0,1,1.56-1" transform="translate(-0.11 -0.01)" fill="none" stroke="#000" stroke-miterlimit="10" stroke-width="0.5"/><path d="M5.93,23.62l.09,0H.88c-.42,0-.52,0-.52-.42l.21-2.83a.8.8,0,0,1,.63-.84L4,18.29v-.94a2.78,2.78,0,0,1-.74-1.16A1.74,1.74,0,0,1,2.88,14a1.49,1.49,0,0,1,.52-1.78,2.09,2.09,0,0,1,1.89-.94A2.76,2.76,0,0,1,7.51,13.2a2.9,2.9,0,0,1,.08.8v.1a1.77,1.77,0,0,1-.42,2.09,2.47,2.47,0,0,1-.73,1.16v.94l.3.11" transform="translate(-0.11 -0.01)" fill="none" stroke="#000" stroke-miterlimit="10" stroke-width="0.5"/><path d="M6.23,19.44,5.92,23c-.09.25-.11.5,0,.59" transform="translate(-0.11 -0.01)" fill="none" stroke="#000" stroke-miterlimit="10" stroke-width="0.5"/><path d="M6.7,18.42a.77.77,0,0,0-.43.61" transform="translate(-0.11 -0.01)" fill="none" stroke="#000" stroke-miterlimit="10" stroke-width="0.5"/><line x1="6.64" y1="18.39" x2="6.63" y2="18.39" fill="none" stroke="#000" stroke-miterlimit="10" stroke-width="0.5"/><path d="M18.81,23.57a.4.4,0,0,0,.11-.25L18.6,20c-.1-.94-.42-1.47-1.05-1.68v-.94a2.75,2.75,0,0,1-.73-1.16A1.73,1.73,0,0,1,16.4,14a1.49,1.49,0,0,1,.52-1.78,2.28,2.28,0,0,1,1.46-1h.16a2.91,2.91,0,0,1,2,.91l.08.07c.53.31.63,1,.53,1.89a1.78,1.78,0,0,1-.42,2.09A2.47,2.47,0,0,1,20,17.35v.94l2.93,1.26c.42.21.63.52.63,1.26l.21,2.41c.1.31-.1.42-.52.42H18.71a.09.09,0,0,0,.07,0" transform="translate(-0.11 -0.01)" fill="none" stroke="#000" stroke-miterlimit="10" stroke-width="0.5"/><path d="M6.23,19.44a1.73,1.73,0,0,1,0-.41.93.93,0,0,1,.43-.61l0,0L7,18.29l3.78-1.68V15.36a5.8,5.8,0,0,1-1.05-1.58,2.34,2.34,0,0,1-.79-1.19A2.19,2.19,0,0,1,9.17,11,2.2,2.2,0,0,1,9.9,8.54c1.47-1.78,3-1.68,4.72,0a2.63,2.63,0,0,1,.73,2.52,2.27,2.27,0,0,1-.42,2.63,2,2,0,0,1-.21.2,3.93,3.93,0,0,1-.94,1.57v1.26l3.88,1.68c.52.21.73.63.84,1.67l.31,3.15a.52.52,0,0,1,0,.35.05.05,0,0,1,0,0s0,0,0,0-.29.16-.59.1H6.54c-.3,0-.5,0-.59-.1l0,0s0,0,0,0a.59.59,0,0,1,0-.38Z" transform="translate(-0.11 -0.01)" fill="none" stroke="#000" stroke-miterlimit="10" stroke-width="0.5"/></svg>