<svg id="Layer_1" data-name="Layer 1" xmlns="http://www.w3.org/2000/svg" width="24.03" height="23.62" viewBox="0 0 24.03 23.62"><path d="M16.58.25h2.2V1a2.41,2.41,0,0,1,1.88.63l.84-.52,1.15.83-.57.63a2,2,0,0,1,.68,1.32h1.15V5.38H22.76a1.82,1.82,0,0,1-.68,1.49l.73.53L21.34,8l-.83-.42a4.22,4.22,0,0,1-2.1.63l-.1.73H16.37V8.31c-.42.11-1,.11-.94-.21.21-.73-1.26-3.87-3.25-4.29,0-.63.21-.84.84-1.36l-.73-.53L13.76,1l1,.63A2.83,2.83,0,0,1,16.69.87Z" transform="translate(0 -0.12)" fill="#f7c116" stroke="#000" stroke-miterlimit="10" stroke-width="0.25"/><path d="M17.63,6.64c1.78,0,3.14-.95,3.14-2.2s-1.36-2.1-3.14-2.1-3.14,1-3.14,2.2S15.85,6.64,17.63,6.64Z" transform="translate(0 -0.12)" fill="none" stroke="#000" stroke-miterlimit="10" stroke-width="0.25"/><path d="M13.69,12.07l-3.21.18L6.92,12,4.75,13c.32.73.84,2.51,2.41,2.51h6.18c1.46,0,2.09-1.88,2.4-2.51Z" transform="translate(0 -0.12)" fill="none"/><path d="M19.93,22.44c0,.21-.21.21-.42.21H1.3c-.21,0-.42-.1-.42-.21V15.87c0-.11.21-.21.42-.21H19.41c.21,0,.42.1.42.21Z" transform="translate(0 -0.12)" fill="#69d2e7" stroke="#000" stroke-miterlimit="10" stroke-width="0.5"/><path d="M12.39,19.09c0,.53-.94,1.05-2.09,1.05s-2.09-.42-2.09-1.05.94-1,2.09-1S12.39,18.57,12.39,19.09Z" transform="translate(0 -0.12)" fill="none" stroke="#000" stroke-miterlimit="10" stroke-width="0.5"/><path d="M.25,22.65v.53c0,.21.31.31.63.31H19.93c.42,0,.63-.21.63-.31v-.53Z" transform="translate(0 -0.12)" fill="#69d2e7" stroke="#000" stroke-miterlimit="10" stroke-width="0.5"/><line x1="18.24" y1="5.16" x2="18.24" y2="3.27" fill="none" stroke="#396bb4" stroke-miterlimit="10" stroke-width="0.5"/><line x1="17.32" y1="5.16" x2="17.32" y2="4.53" fill="none" stroke="#396bb4" stroke-miterlimit="10" stroke-width="1.5"/><line x1="16.58" y1="4.11" x2="16.58" y2="5.16" fill="none" stroke="#396bb4" stroke-miterlimit="10" stroke-width="0.5"/><path d="M2.52,15.43l.22-1.24A6.25,6.25,0,0,1,6.5,12l2.29,3.52H11.7L14,12s3.15.51,3.78,2.16L18,15.53Z" transform="translate(0 -0.12)" fill="#c70039" stroke="#000" stroke-miterlimit="10" stroke-width="0.5"/><circle cx="10.24" cy="7.31" r="5.09" fill="#ec8f71" stroke="#000" stroke-miterlimit="10" stroke-width="0.5"/></svg>