<svg id="Layer_1" data-name="Layer 1" xmlns="http://www.w3.org/2000/svg" width="24.25" height="24.11" viewBox="0 0 24.25 24.11"><rect x="0.02" y="13.72" width="24.13" height="10.37" fill="#a7dbd8"/><path d="M15.57,4.86a.1.1,0,0,0-.1.09h0a.12.12,0,0,0,.1.11h0a.1.1,0,0,0,.09-.1h0A.1.1,0,0,0,15.57,4.86Z" transform="translate(0.02 0.08)" fill="#bdcd31" stroke="#000" stroke-miterlimit="10" stroke-width="0.15"/><path d="M20.25,4.85h0a.1.1,0,0,0-.1.1h0V5h.07s.08,0,.09-.11,0-.09-.08-.1h0Z" transform="translate(0.02 0.08)" fill="#bdcd31" stroke="#000" stroke-miterlimit="10" stroke-width="0.15"/><path d="M21.61,4.85h0a.1.1,0,0,0-.1.1h0a.14.14,0,0,0,0,.09h.08A.09.09,0,0,0,21.67,5h0A.07.07,0,0,0,21.61,4.85Z" transform="translate(0.02 0.08)" fill="#bdcd31" stroke="#000" stroke-miterlimit="10" stroke-width="0.15"/><path d="M18.86,4.85h0a.11.11,0,0,0-.07.12.1.1,0,0,0,.08.09h0a.11.11,0,0,0,.08,0A.14.14,0,0,0,19,5,.12.12,0,0,0,18.86,4.85Z" transform="translate(0.02 0.08)" fill="#bdcd31" stroke="#000" stroke-miterlimit="10" stroke-width="0.15"/><path d="M15.3,4.85a.1.1,0,0,0-.1.1.11.11,0,0,0,0,.08h.07c.05,0,.08,0,.09-.1a.12.12,0,0,0-.09-.11Z" transform="translate(0.02 0.08)" fill="#bdcd31" stroke="#000" stroke-miterlimit="10" stroke-width="0.15"/><path d="M13.93,4.85h-.07v.2H14a.11.11,0,0,0,0-.13A.12.12,0,0,0,13.93,4.85Z" transform="translate(0.02 0.08)" fill="#bdcd31" stroke="#000" stroke-miterlimit="10" stroke-width="0.15"/><path d="M19.41,4.85h0a.1.1,0,0,0-.1.1h0V5h.07c.05,0,.08,0,.09-.11S19.44,4.87,19.41,4.85Z" transform="translate(0.02 0.08)" fill="#bdcd31" stroke="#000" stroke-miterlimit="10" stroke-width="0.15"/><path d="M17,4.86a.09.09,0,0,0-.11.06h0a.09.09,0,0,0,.06.12h0S17,5.05,17,5a.11.11,0,0,0-.08-.11h0Z" transform="translate(0.02 0.08)" fill="#bdcd31" stroke="#000" stroke-miterlimit="10" stroke-width="0.15"/><path d="M14.75,4.85h0a.1.1,0,0,0-.08.11h0a.11.11,0,0,0,.09.09h0a.18.18,0,0,0,.07,0,.11.11,0,0,0,0-.08A.1.1,0,0,0,14.75,4.85Z" transform="translate(0.02 0.08)" fill="#bdcd31" stroke="#000" stroke-miterlimit="10" stroke-width="0.15"/><path d="M19.7,4.86h0a.09.09,0,0,0-.07,0,.06.06,0,0,0,0,.06.1.1,0,0,0,.11.1h0a.09.09,0,0,0,.09-.09A.11.11,0,0,0,19.7,4.86Z" transform="translate(0.02 0.08)" fill="#bdcd31" stroke="#000" stroke-miterlimit="10" stroke-width="0.15"/><path d="M14.25,4.86a.11.11,0,0,0-.1.08h0a.11.11,0,0,0,.09.11h0s.08,0,.09-.1h0A.09.09,0,0,0,14.25,4.86Z" transform="translate(0.02 0.08)" fill="#bdcd31" stroke="#000" stroke-miterlimit="10" stroke-width="0.15"/><path d="M16.13,4.85a.09.09,0,0,0-.09.09h0a.1.1,0,0,0,.08.1h0s.08,0,.09-.12A.11.11,0,0,0,16.13,4.85Z" transform="translate(0.02 0.08)" fill="#bdcd31" stroke="#000" stroke-miterlimit="10" stroke-width="0.15"/><path d="M16.7,4.85h0a.09.09,0,0,0-.09.09.07.07,0,0,0,0,.09h.07a.09.09,0,0,0,.09-.09h0a.09.09,0,0,0-.08-.11h0Z" transform="translate(0.02 0.08)" fill="#bdcd31" stroke="#000" stroke-miterlimit="10" stroke-width="0.15"/><path d="M20.78,5.07h0a.11.11,0,0,0,.07-.13v0a.09.09,0,0,0-.07,0,.11.11,0,0,0-.11.08.11.11,0,0,0,.11.12h0Z" transform="translate(0.02 0.08)" fill="#bdcd31" stroke="#000" stroke-miterlimit="10" stroke-width="0.15"/><path d="M21.05,4.86h0A.07.07,0,0,0,21,5V5a.1.1,0,0,0,.1.08h0A.11.11,0,0,0,21.15,5,.22.22,0,0,0,21.05,4.86Z" transform="translate(0.02 0.08)" fill="#bdcd31" stroke="#000" stroke-miterlimit="10" stroke-width="0.15"/><path d="M23,4.85h0A.09.09,0,0,0,22.9,5h0s0,.08.08.09h0l.08,0a.11.11,0,0,0,0-.08S23,4.86,23,4.85Z" transform="translate(0.02 0.08)" fill="#bdcd31" stroke="#000" stroke-miterlimit="10" stroke-width="0.15"/><path d="M23.52,5.06h0c.06,0,.1,0,.1-.12a.1.1,0,0,0-.1-.09h0a.1.1,0,0,0-.08.05,0,0,0,0,0,0,.07.08.08,0,0,0,.08.09h0Z" transform="translate(0.02 0.08)" fill="#bdcd31" stroke="#000" stroke-miterlimit="10" stroke-width="0.15"/><path d="M23.8,4.86h0a.09.09,0,0,0-.09.1h0a.12.12,0,0,0,.1.09h0a.13.13,0,0,0,.1-.1S23.84,4.87,23.8,4.86Z" transform="translate(0.02 0.08)" fill="#bdcd31" stroke="#000" stroke-miterlimit="10" stroke-width="0.15"/><path d="M16.39,7.75h0a.09.09,0,0,0-.09.1.12.12,0,0,0,.11.1h0a.1.1,0,0,0,.1-.09A.15.15,0,0,0,16.39,7.75Z" transform="translate(0.02 0.08)" fill="#bdcd31" stroke="#000" stroke-miterlimit="10" stroke-width="0.15"/><path d="M20.51,7.75h0a.1.1,0,0,0-.08.1h0a.09.09,0,0,0,.09.09h0a.1.1,0,0,0,.08-.1h0A.11.11,0,0,0,20.51,7.75Z" transform="translate(0.02 0.08)" fill="#bdcd31" stroke="#000" stroke-miterlimit="10" stroke-width="0.15"/><path d="M17.76,7.75h0a.12.12,0,0,0-.1.09h0a.1.1,0,0,0,.1.1h0a.07.07,0,0,0,.09-.07v0a0,0,0,0,0,0-.07A.08.08,0,0,0,17.76,7.75Z" transform="translate(0.02 0.08)" fill="#bdcd31" stroke="#000" stroke-miterlimit="10" stroke-width="0.15"/><path d="M19.16,7.75h0a.12.12,0,0,0-.1.09h0a.12.12,0,0,0,.08.09h0a.1.1,0,0,0,.1-.1.11.11,0,0,0-.1-.09Z" transform="translate(0.02 0.08)" fill="#bdcd31" stroke="#000" stroke-miterlimit="10" stroke-width="0.15"/><path d="M21.87,7.75h0a.1.1,0,0,0-.08.1h0a0,0,0,0,0,0,.07h.08a.1.1,0,0,0,.09-.1h0A.18.18,0,0,0,21.87,7.75Z" transform="translate(0.02 0.08)" fill="#bdcd31" stroke="#000" stroke-miterlimit="10" stroke-width="0.15"/><path d="M23.28,7.75a.12.12,0,0,0-.13.08h0a.08.08,0,0,0,.07.1h0a.1.1,0,0,0,.1-.07h0A.12.12,0,0,0,23.28,7.75Z" transform="translate(0.02 0.08)" fill="#bdcd31" stroke="#000" stroke-miterlimit="10" stroke-width="0.15"/><path d="M21.88,2.14H22V2.08A.09.09,0,0,0,21.86,2h0a.07.07,0,0,0-.08.07h0a.09.09,0,0,0,.08.1h0Z" transform="translate(0.02 0.08)" fill="#bdcd31" stroke="#000" stroke-miterlimit="10" stroke-width="0.15"/><path d="M14.25,2.14h.08a.09.09,0,0,0,0-.07.09.09,0,0,0-.1-.09h0a.11.11,0,0,0-.08.09.06.06,0,0,0,0,.06A.09.09,0,0,0,14.25,2.14Z" transform="translate(0.02 0.08)" fill="#bdcd31" stroke="#000" stroke-miterlimit="10" stroke-width="0.15"/><path d="M22.45,2h0a.1.1,0,0,0-.1.1.08.08,0,0,0,.06.09h0a.1.1,0,0,0,.1-.07h0A.1.1,0,0,0,22.44,2Z" transform="translate(0.02 0.08)" fill="#bdcd31" stroke="#000" stroke-miterlimit="10" stroke-width="0.15"/><path d="M16.37,5.06h0a.1.1,0,0,0,.11-.1h0a0,0,0,1,0-.06-.06A.1.1,0,0,0,16.3,5h0a.1.1,0,0,0,0,.1h0Z" transform="translate(0.02 0.08)" fill="#bdcd31" stroke="#000" stroke-miterlimit="10" stroke-width="0.15"/><path d="M23.25,2.14h0a.08.08,0,0,0,.1-.06h0a.13.13,0,0,0-.1-.15h-.08a.06.06,0,0,0,0,.08.1.1,0,0,0,0,.12Z" transform="translate(0.02 0.08)" fill="#bdcd31" stroke="#000" stroke-miterlimit="10" stroke-width="0.15"/><path d="M15.57,2.14h0a.09.09,0,0,0,.09-.09.1.1,0,0,0-.09-.1h0a.08.08,0,0,0-.09.06s0,0,0,0h0v.05A.11.11,0,0,0,15.57,2.14Z" transform="translate(0.02 0.08)" fill="#bdcd31" stroke="#000" stroke-miterlimit="10" stroke-width="0.15"/><path d="M23.81,2h0s-.07,0-.09.1a.07.07,0,0,0,0,.08h0s.08,0,.09-.07h0A.1.1,0,0,0,23.81,2Z" transform="translate(0.02 0.08)" fill="#bdcd31" stroke="#000" stroke-miterlimit="10" stroke-width="0.15"/><path d="M20.49,5.07h0a.12.12,0,0,0,.1-.12h0a.09.09,0,0,0-.09-.08h0s-.08,0-.09.1h0A.13.13,0,0,0,20.49,5.07Z" transform="translate(0.02 0.08)" fill="#bdcd31" stroke="#000" stroke-miterlimit="10" stroke-width="0.15"/><path d="M19.91,5.06h0s.08,0,.08-.13h0s0-.06-.07,0h0A.11.11,0,0,0,19.8,5a.12.12,0,0,0,.08.12h0Z" transform="translate(0.02 0.08)" fill="#bdcd31" stroke="#000" stroke-miterlimit="10" stroke-width="0.15"/><path d="M16.4,2.14h.06a0,0,0,0,0,0-.06A.09.09,0,0,0,16.38,2a.11.11,0,0,0-.1.09.09.09,0,0,0,0,.07A.1.1,0,0,0,16.4,2.14Z" transform="translate(0.02 0.08)" fill="#bdcd31" stroke="#000" stroke-miterlimit="10" stroke-width="0.15"/><path d="M21.32,4.86h0a.09.09,0,0,0-.09.09h0a.11.11,0,0,0,0,.08h.07c.05,0,.08,0,.09-.11a.11.11,0,0,0-.09-.09Z" transform="translate(0.02 0.08)" fill="#bdcd31" stroke="#000" stroke-miterlimit="10" stroke-width="0.15"/><path d="M17,2h0a.11.11,0,0,0-.1.1.09.09,0,0,0,.08.09h0a.11.11,0,0,0,.14-.08h0A.1.1,0,0,0,17,2Z" transform="translate(0.02 0.08)" fill="#bdcd31" stroke="#000" stroke-miterlimit="10" stroke-width="0.15"/><path d="M22.74,5.06h.06a.06.06,0,0,0,0-.08.07.07,0,0,0-.07-.09h0A.1.1,0,0,0,22.6,5a.09.09,0,0,0,.07.13h.06Z" transform="translate(0.02 0.08)" fill="#bdcd31" stroke="#000" stroke-miterlimit="10" stroke-width="0.15"/><path d="M17.76,2.14h0a.09.09,0,0,0,.1-.06h0A.09.09,0,0,0,17.78,2h0a.11.11,0,0,0-.08,0V2A.1.1,0,0,0,17.76,2.14Z" transform="translate(0.02 0.08)" fill="#bdcd31" stroke="#000" stroke-miterlimit="10" stroke-width="0.15"/><path d="M23.24,5.06h0a.1.1,0,0,0,.09-.1h0a.08.08,0,0,0-.08-.07h0a.13.13,0,0,0-.11.11.09.09,0,0,0,.09.09h0Z" transform="translate(0.02 0.08)" fill="#bdcd31" stroke="#000" stroke-miterlimit="10" stroke-width="0.15"/><path d="M14.47,5.07h0a.13.13,0,0,0,.1-.11.06.06,0,0,0,0-.06s-.1-.05-.13,0h0a.06.06,0,0,0,0,.06A.12.12,0,0,0,14.47,5.07Z" transform="translate(0.02 0.08)" fill="#bdcd31" stroke="#000" stroke-miterlimit="10" stroke-width="0.15"/><path d="M18.31,2h0a.09.09,0,0,0-.07,0,.08.08,0,0,0,0,.09.07.07,0,0,0,.07.07h0A.09.09,0,0,0,18.41,2h0A.1.1,0,0,0,18.31,2Z" transform="translate(0.02 0.08)" fill="#bdcd31" stroke="#000" stroke-miterlimit="10" stroke-width="0.15"/><path d="M24.06,5.06h0A.09.09,0,0,0,24.13,5s0-.08-.08-.08h0a.08.08,0,0,0-.08.07V5a.1.1,0,0,0,.08.1h0Z" transform="translate(0.02 0.08)" fill="#bdcd31" stroke="#000" stroke-miterlimit="10" stroke-width="0.15"/><path d="M15,4.86h0a.12.12,0,0,0-.09.11h0a.12.12,0,0,0,.09.09h0a.12.12,0,0,0,.1-.11h0A.11.11,0,0,0,15,4.86Z" transform="translate(0.02 0.08)" fill="#bdcd31" stroke="#000" stroke-miterlimit="10" stroke-width="0.15"/><path d="M19.13,2.14h0a.1.1,0,0,0,.09-.07h0A.12.12,0,0,0,19.14,2,.09.09,0,0,0,19,2h0a.08.08,0,0,0,.09.08h0Z" transform="translate(0.02 0.08)" fill="#bdcd31" stroke="#000" stroke-miterlimit="10" stroke-width="0.15"/><path d="M19.68,2.14h.08a.11.11,0,0,0,0-.08.11.11,0,0,0-.11-.1.13.13,0,0,0-.09.1.09.09,0,0,0,0,.07A.1.1,0,0,0,19.68,2.14Z" transform="translate(0.02 0.08)" fill="#bdcd31" stroke="#000" stroke-miterlimit="10" stroke-width="0.15"/><path d="M19.13,5.06h0a.13.13,0,0,0,.1-.1h0a.1.1,0,0,0-.1-.08h0A.1.1,0,0,0,19,5h0a.09.09,0,0,0,0,.07A.09.09,0,0,0,19.13,5.06Z" transform="translate(0.02 0.08)" fill="#bdcd31" stroke="#000" stroke-miterlimit="10" stroke-width="0.15"/><path d="M20.5,2.14h0a.1.1,0,0,0,.1-.08h0a.1.1,0,0,0-.08-.1h0a.09.09,0,0,0-.1.09v0A.1.1,0,0,0,20.5,2.14Z" transform="translate(0.02 0.08)" fill="#bdcd31" stroke="#000" stroke-miterlimit="10" stroke-width="0.15"/><path d="M21,2.14h0a.11.11,0,0,0,.1-.08h0A.11.11,0,0,0,21,2h0S21,2,21,2.06a.08.08,0,0,0,.08.08Z" transform="translate(0.02 0.08)" fill="#bdcd31" stroke="#000" stroke-miterlimit="10" stroke-width="0.15"/><path d="M15,2H15V2a.1.1,0,0,0,.1.09h0a.1.1,0,0,0,.1-.08h0a.08.08,0,0,0-.08-.1h0Z" transform="translate(0.02 0.08)" fill="#bdcd31" stroke="#000" stroke-miterlimit="10" stroke-width="0.15"/><path d="M15.93,4.92a.07.07,0,0,0-.09-.06h0a.11.11,0,0,0-.08.09.08.08,0,0,0,.06.1h0a.11.11,0,0,0,.09-.12h0Z" transform="translate(0.02 0.08)" fill="#bdcd31" stroke="#000" stroke-miterlimit="10" stroke-width="0.15"/><path d="M17.5,2h0a.1.1,0,0,0-.09.1h0a.06.06,0,0,0,0,.06.09.09,0,0,0,.07,0h0a.08.08,0,0,0,.1-.07h0A.12.12,0,0,0,17.5,2Z" transform="translate(0.02 0.08)" fill="#bdcd31" stroke="#000" stroke-miterlimit="10" stroke-width="0.15"/><path d="M18,2.14h0a.08.08,0,0,0,.08-.07v0h0A.11.11,0,0,0,18,2h0a.1.1,0,0,0-.08.1h0a.09.09,0,0,0,.09.09Z" transform="translate(0.02 0.08)" fill="#bdcd31" stroke="#000" stroke-miterlimit="10" stroke-width="0.15"/><path d="M18.87,2h0s-.09.06-.08.11h.06A.08.08,0,0,0,18.94,2s0,0,0,0h0A.11.11,0,0,0,18.87,2Z" transform="translate(0.02 0.08)" fill="#bdcd31" stroke="#000" stroke-miterlimit="10" stroke-width="0.15"/><path d="M19.42,2.14h.06a.06.06,0,0,0,0-.06.08.08,0,0,0-.07-.1h0a.11.11,0,0,0-.09.1h0A.11.11,0,0,0,19.42,2.14Z" transform="translate(0.02 0.08)" fill="#bdcd31" stroke="#000" stroke-miterlimit="10" stroke-width="0.15"/><path d="M20.25,2.14h.06a.06.06,0,0,0,0-.08h0A.09.09,0,0,0,20.25,2h0a.1.1,0,0,0-.1.1h0a.09.09,0,0,0,.09.08h0Z" transform="translate(0.02 0.08)" fill="#bdcd31" stroke="#000" stroke-miterlimit="10" stroke-width="0.15"/><path d="M20.79,2a.1.1,0,0,0-.1.08v0a.06.06,0,0,0,0,.06.09.09,0,0,0,.07,0h0A.07.07,0,0,0,20.85,2V2h0A.11.11,0,0,0,20.79,2Z" transform="translate(0.02 0.08)" fill="#bdcd31" stroke="#000" stroke-miterlimit="10" stroke-width="0.15"/><path d="M21.6,2.14h0a.09.09,0,0,0,.1-.06h0A.11.11,0,0,0,21.61,2h0a.11.11,0,0,0-.09.1.06.06,0,0,0,0,.06A.08.08,0,0,0,21.6,2.14Z" transform="translate(0.02 0.08)" fill="#bdcd31" stroke="#000" stroke-miterlimit="10" stroke-width="0.15"/><path d="M22.15,2a.09.09,0,0,0-.09.08v0a.06.06,0,0,0,0,.06.08.08,0,0,0,.07,0h0A.08.08,0,0,0,22.22,2V2h0A.12.12,0,0,0,22.15,2Z" transform="translate(0.02 0.08)" fill="#bdcd31" stroke="#000" stroke-miterlimit="10" stroke-width="0.15"/><path d="M23,2.14h0A.11.11,0,0,0,23.09,2h0A.09.09,0,0,0,23,1.94h0a.09.09,0,0,0-.09.08V2h0a.08.08,0,0,0,.06.1Z" transform="translate(0.02 0.08)" fill="#bdcd31" stroke="#000" stroke-miterlimit="10" stroke-width="0.15"/><path d="M13.9,7.75h-.08v.17h.09s.07,0,.08-.1a.08.08,0,0,0,0-.07Z" transform="translate(0.02 0.08)" fill="#006ae3" stroke="#000" stroke-miterlimit="10" stroke-width="0.15"/><path d="M14.25,7.75h0a.09.09,0,0,0-.09.09h0v.08h.07a.1.1,0,0,0,.12-.06h0a.09.09,0,0,0,0-.12h0Z" transform="translate(0.02 0.08)" fill="#bdcd31" stroke="#000" stroke-miterlimit="10" stroke-width="0.15"/><path d="M14.46,7.75a.13.13,0,0,0-.08.11h0c0,.06,0,.08.1.09h0a.09.09,0,0,0,.09-.09.1.1,0,0,0-.07-.11h0Z" transform="translate(0.02 0.08)" fill="#bdcd31" stroke="#000" stroke-miterlimit="10" stroke-width="0.15"/><path d="M23.52,2.14h0a.07.07,0,0,0,.09-.05,0,0,0,0,0,0,0h0a.13.13,0,0,0-.1-.1h0a.1.1,0,0,0-.09.08s0,0,0,0a.08.08,0,0,0,.08.08h0Z" transform="translate(0.02 0.08)" fill="#bdcd31" stroke="#000" stroke-miterlimit="10" stroke-width="0.15"/><path d="M16.67,7.75a.11.11,0,0,0-.1.09h0a.09.09,0,0,0,.08.09h0a.1.1,0,0,0,.1-.08.09.09,0,0,0,0-.07A.11.11,0,0,0,16.67,7.75Z" transform="translate(0.02 0.08)" fill="#bdcd31" stroke="#000" stroke-miterlimit="10" stroke-width="0.15"/><path d="M16.66,2.14h0a.07.07,0,0,0,.09-.05,0,0,0,0,0,0,0h0A.12.12,0,0,0,16.67,2h0a.09.09,0,0,0-.09.1h0a.06.06,0,0,0,0,.06Z" transform="translate(0.02 0.08)" fill="#bdcd31" stroke="#000" stroke-miterlimit="10" stroke-width="0.15"/><path d="M17.21,7.75a.11.11,0,0,0-.07.13.1.1,0,0,0,.07.07h0a.09.09,0,0,0,.09-.1C17.31,7.75,17.27,7.75,17.21,7.75Z" transform="translate(0.02 0.08)" fill="#bdcd31" stroke="#000" stroke-miterlimit="10" stroke-width="0.15"/><path d="M13.9,2.14h0a0,0,0,0,0,.07,0,.09.09,0,0,0,0-.07A.09.09,0,0,0,13.9,2h-.07v.17Z" transform="translate(0.02 0.08)" fill="#bdcd31" stroke="#000" stroke-miterlimit="10" stroke-width="0.15"/><path d="M18,7.75H18a.11.11,0,0,0,0,.08.08.08,0,0,0,.08.09h0a.1.1,0,0,0,.08-.1h0a.07.07,0,0,0-.07-.09h0Z" transform="translate(0.02 0.08)" fill="#bdcd31" stroke="#000" stroke-miterlimit="10" stroke-width="0.15"/><path d="M18.33,7.75h0a.09.09,0,0,0-.09.09h0a.11.11,0,0,0,0,.08h.06a.11.11,0,0,0,.11-.08.1.1,0,0,0-.05-.11h0Z" transform="translate(0.02 0.08)" fill="#bdcd31" stroke="#000" stroke-miterlimit="10" stroke-width="0.15"/><path d="M18.59,7.75a.11.11,0,0,0-.1.1h0a.12.12,0,0,0,.09.1h0a.1.1,0,0,0,.08-.09A.09.09,0,0,0,18.59,7.75Z" transform="translate(0.02 0.08)" fill="#bdcd31" stroke="#000" stroke-miterlimit="10" stroke-width="0.15"/><path d="M14.76,2.14h.06a.06.06,0,0,0,0-.06.11.11,0,0,0-.09-.1h0a.11.11,0,0,0-.09.1A.1.1,0,0,0,14.76,2.14Z" transform="translate(0.02 0.08)" fill="#bdcd31" stroke="#000" stroke-miterlimit="10" stroke-width="0.15"/><path d="M19.41,7.75a.11.11,0,0,0-.1.11h0a.11.11,0,0,0,.1.07h0a.07.07,0,0,0,.08-.08h0a.06.06,0,0,0,0-.08A.08.08,0,0,0,19.41,7.75Z" transform="translate(0.02 0.08)" fill="#bdcd31" stroke="#000" stroke-miterlimit="10" stroke-width="0.15"/><path d="M19.7,7.75h0a.08.08,0,0,0-.08.09h0a.06.06,0,0,0,0,.08.1.1,0,0,0,.13,0l0,0h0a.11.11,0,0,0-.08-.11Z" transform="translate(0.02 0.08)" fill="#bdcd31" stroke="#000" stroke-miterlimit="10" stroke-width="0.15"/><path d="M20,7.75a.09.09,0,0,0-.07.11h0A.08.08,0,0,0,20,8h0a.1.1,0,0,0,.09-.08h0a.08.08,0,0,0-.06-.1h0Z" transform="translate(0.02 0.08)" fill="#bdcd31" stroke="#000" stroke-miterlimit="10" stroke-width="0.15"/><path d="M16.94,7.75h-.06a.11.11,0,0,0,0,.08.09.09,0,0,0,.08.09h0a.1.1,0,0,0,.09-.1h0A.14.14,0,0,0,16.94,7.75Z" transform="translate(0.02 0.08)" fill="#bdcd31" stroke="#000" stroke-miterlimit="10" stroke-width="0.15"/><path d="M20.79,7.75a.1.1,0,0,0-.1.1.09.09,0,0,0,.1.09h0a.1.1,0,0,0,.09-.08.11.11,0,0,0,0-.08Z" transform="translate(0.02 0.08)" fill="#bdcd31" stroke="#000" stroke-miterlimit="10" stroke-width="0.15"/><path d="M21.07,7.75h0a.11.11,0,0,0-.09.08h0v.09H21a.12.12,0,0,0,.1-.09h0a.09.09,0,0,0-.07-.1h0Z" transform="translate(0.02 0.08)" fill="#bdcd31" stroke="#000" stroke-miterlimit="10" stroke-width="0.15"/><path d="M21.32,7.75a.1.1,0,0,0-.06.13.09.09,0,0,0,.06.07h0a.09.09,0,0,0,.09-.09h0a.1.1,0,0,0-.08-.1Z" transform="translate(0.02 0.08)" fill="#bdcd31" stroke="#000" stroke-miterlimit="10" stroke-width="0.15"/><path d="M15.3,2.14h.06a.06.06,0,0,0,0-.08A.08.08,0,0,0,15.3,2h0a.09.09,0,0,0-.09.09h0a.08.08,0,0,0,.06.1h0Z" transform="translate(0.02 0.08)" fill="#bdcd31" stroke="#000" stroke-miterlimit="10" stroke-width="0.15"/><path d="M22.15,7.75a.11.11,0,0,0-.09.08h0a.11.11,0,0,0,.08.1h0a.09.09,0,0,0,.1-.09h0a.09.09,0,0,0,0-.07A.15.15,0,0,0,22.15,7.75Z" transform="translate(0.02 0.08)" fill="#bdcd31" stroke="#000" stroke-miterlimit="10" stroke-width="0.15"/><path d="M22.43,7.75h-.07a.11.11,0,0,0,0,.08.09.09,0,0,0,.09.09h0a.11.11,0,0,0,.08-.1h0A.14.14,0,0,0,22.43,7.75Z" transform="translate(0.02 0.08)" fill="#bdcd31" stroke="#000" stroke-miterlimit="10" stroke-width="0.15"/><path d="M22.74,7.75h0a.1.1,0,0,0-.07.13.1.1,0,0,0,.07.07h.06V7.88a.11.11,0,0,0-.08-.1h0Z" transform="translate(0.02 0.08)" fill="#bdcd31" stroke="#000" stroke-miterlimit="10" stroke-width="0.15"/><path d="M16.13,2.14h.07a.06.06,0,0,0,0-.08A.08.08,0,0,0,16.15,2h0a.09.09,0,0,0-.08.09h0a.08.08,0,0,0,.06.09h0Z" transform="translate(0.02 0.08)" fill="#bdcd31" stroke="#000" stroke-miterlimit="10" stroke-width="0.15"/><path d="M23.53,7.75a.1.1,0,0,0-.1.09h0a.08.08,0,0,0,.08.09h0a.11.11,0,0,0,.1-.09h0a.12.12,0,0,0-.09-.1Z" transform="translate(0.02 0.08)" fill="#bdcd31" stroke="#000" stroke-miterlimit="10" stroke-width="0.15"/><path d="M23.8,7.75a.11.11,0,0,0-.11.08h0a.11.11,0,0,0,0,.08h.07a.09.09,0,0,0,.09-.09h0a.09.09,0,0,0-.07-.11h0Z" transform="translate(0.02 0.08)" fill="#bdcd31" stroke="#000" stroke-miterlimit="10" stroke-width="0.15"/><path d="M24.15,7.85a.09.09,0,0,0-.09-.08.1.1,0,0,0-.08.11h0a.11.11,0,0,0,.08.07h0s.07,0,.08-.09h0Z" transform="translate(0.02 0.08)" fill="#bdcd31" stroke="#000" stroke-miterlimit="10" stroke-width="0.15"/><path d="M18.58,2.14h0a.08.08,0,0,0,.08-.07h0A.11.11,0,0,0,18.57,2h0a.08.08,0,0,0-.08.07.09.09,0,0,0,.08.09h0Z" transform="translate(0.02 0.08)" fill="#bdcd31" stroke="#000" stroke-miterlimit="10" stroke-width="0.15"/><path d="M17.48,7.75h0a.1.1,0,0,0-.07.1h0a.08.08,0,0,0,.08.08h0a.09.09,0,0,0,.07,0V7.87A.16.16,0,0,0,17.48,7.75Z" transform="translate(0.02 0.08)" fill="#bdcd31" stroke="#000" stroke-miterlimit="10" stroke-width="0.15"/><path d="M17.21,2.14h0a.08.08,0,0,0,.08-.09h0A.08.08,0,0,0,17.21,2h0a.08.08,0,0,0-.1.06h0a.08.08,0,0,0,.05.11h.05Z" transform="translate(0.02 0.08)" fill="#bdcd31" stroke="#000" stroke-miterlimit="10" stroke-width="0.15"/><path d="M15.83,2.14h0c.05,0,.09,0,.09-.09a.12.12,0,0,0-.09-.1h0a.09.09,0,0,0-.08.08.09.09,0,0,0,.06.1h0Z" transform="translate(0.02 0.08)" fill="#bdcd31" stroke="#000" stroke-miterlimit="10" stroke-width="0.15"/><path d="M21.6,7.75a.09.09,0,0,0-.09.09v0a.1.1,0,0,0,.1.08h0s.08,0,.08-.1A.12.12,0,0,0,21.6,7.75Z" transform="translate(0.02 0.08)" fill="#bdcd31" stroke="#000" stroke-miterlimit="10" stroke-width="0.15"/><path d="M14.48,2.14h0a.09.09,0,0,0,.09-.08h0a.13.13,0,0,0-.1-.1.09.09,0,0,0-.07,0,.09.09,0,0,0,0,.07A.1.1,0,0,0,14.48,2.14Z" transform="translate(0.02 0.08)" fill="#bdcd31" stroke="#000" stroke-miterlimit="10" stroke-width="0.15"/><path d="M24.08,2.14h.07a.11.11,0,0,0,0-.08c0-.05,0-.08-.09-.09h0a.11.11,0,0,0-.09.1h0a.11.11,0,0,0,.1.09h0Z" transform="translate(0.02 0.08)" fill="#bdcd31" stroke="#000" stroke-miterlimit="10" stroke-width="0.15"/><path d="M18.87,7.75a.08.08,0,0,0-.09.06h0a.07.07,0,0,0,.07.09h0A.09.09,0,0,0,19,7.83h0S19,7.77,18.87,7.75Z" transform="translate(0.02 0.08)" fill="#bdcd31" stroke="#000" stroke-miterlimit="10" stroke-width="0.15"/><path d="M16.13,7.75h-.06a.11.11,0,0,0,0,.08.09.09,0,0,0,.08.09h.07a.08.08,0,0,0,0-.07A.11.11,0,0,0,16.13,7.75Z" transform="translate(0.02 0.08)" fill="#bdcd31" stroke="#000" stroke-miterlimit="10" stroke-width="0.15"/><path d="M23,7.75H22.9a.11.11,0,0,0,0,.08.12.12,0,0,0,.09.09h0a.09.09,0,0,0,.09-.09h0A.08.08,0,0,0,23,7.74h0Z" transform="translate(0.02 0.08)" fill="#bdcd31" stroke="#000" stroke-miterlimit="10" stroke-width="0.15"/><path d="M22.74,2.14h0a.07.07,0,0,0,.07-.07h0A.09.09,0,0,0,22.74,2h0a.11.11,0,0,0-.1.09h0a.1.1,0,0,0,.1.09Z" transform="translate(0.02 0.08)" fill="#bdcd31" stroke="#000" stroke-miterlimit="10" stroke-width="0.15"/><path d="M21.31,2.14h0a.07.07,0,0,0,.08-.07h0A.1.1,0,0,0,21.32,2h0a.12.12,0,0,0-.09.09.1.1,0,0,0,.08.1h0Z" transform="translate(0.02 0.08)" fill="#bdcd31" stroke="#000" stroke-miterlimit="10" stroke-width="0.15"/><path d="M20,2.14H20V2.06A.12.12,0,0,0,19.93,2h-.07a.12.12,0,0,0,0,.14h.06Z" transform="translate(0.02 0.08)" fill="#bdcd31" stroke="#000" stroke-miterlimit="10" stroke-width="0.15"/><path d="M20.25,7.75a.12.12,0,0,0-.11.08h0a.09.09,0,0,0,.09.09h0a.09.09,0,0,0,.09-.08h0a.09.09,0,0,0-.07-.1Z" transform="translate(0.02 0.08)" fill="#bdcd31" stroke="#000" stroke-miterlimit="10" stroke-width="0.15"/><path d="M23.3,3.54a.6.6,0,0,0-.85,0,.59.59,0,0,0-.09.76v.13c-.63.62-1.25,1.26-1.89,1.88h0a.57.57,0,0,0-.66,0h0L18.55,5.18a.09.09,0,0,1,0-.1.6.6,0,0,0-.25-.73.57.57,0,0,0-.68,0,.59.59,0,0,0-.24.67.13.13,0,0,1-.05.15L15.56,7A.15.15,0,0,1,15.4,7a.55.55,0,0,0-.54.16.62.62,0,0,0,0,.86.6.6,0,0,0,.42.18h.06A.66.66,0,0,0,15.79,8a.56.56,0,0,0,.1-.47A.15.15,0,0,1,16,7.33L17.26,6l.5-.5A.34.34,0,0,1,18,5.42a.42.42,0,0,1,.23.08l.38.39.81.82a.42.42,0,0,1,.13.22.6.6,0,0,0,.71.46.59.59,0,0,0,.45-.46.36.36,0,0,1,.1-.18l2-2A.25.25,0,0,1,23,4.63a.6.6,0,0,0,.62-.58h0a.59.59,0,0,0-.26-.52Z" transform="translate(0.02 0.08)" fill="#ff5733" stroke="#000" stroke-miterlimit="10" stroke-width="0.15"/><polygon points="13.89 10.32 13.89 0.07 13.5 0.07 13.5 10.7 24.16 10.7 24.16 10.32 13.89 10.32" fill="#109ca6" stroke="#000" stroke-miterlimit="10" stroke-width="0.15"/><circle cx="15.32" cy="7.74" r="0.38" fill="#bdcd31" stroke="#000" stroke-miterlimit="10" stroke-width="0.15"/><circle cx="17.94" cy="4.95" r="0.38" fill="#bdcd31" stroke="#000" stroke-miterlimit="10" stroke-width="0.15"/><circle cx="20.17" cy="6.87" r="0.38" fill="#bdcd31" stroke="#000" stroke-miterlimit="10" stroke-width="0.15"/><circle cx="23.01" cy="4.03" r="0.38" fill="#bdcd31" stroke="#000" stroke-miterlimit="10" stroke-width="0.15"/><circle cx="7.84" cy="6.82" r="4.82" fill="#ffc300" stroke="#000" stroke-miterlimit="10" stroke-width="0.5"/><path d="M8.17,12.9h0a7.94,7.94,0,0,1,7.93,7.94v2.94H.23V20.84A7.94,7.94,0,0,1,8.17,12.9Z" transform="translate(0.02 0.08)" fill="#ffc300" stroke="#000" stroke-miterlimit="10" stroke-width="0.5"/></svg>