<svg id="Layer_1" data-name="Layer 1" xmlns="http://www.w3.org/2000/svg" width="23.94" height="23.96" viewBox="0 0 23.94 23.96"><path d="M2.2,8.5H22.06V2.85H20.22c.07-1.63-.16-2.7-1-2.56l.08,4.62c-.76,0-1.26-.6-1-2.06H16.68c0-1.69-.28-2.6-1-2.52l.06,4.58c-.8.1-1.31-.58-1.16-2.06H13.07c0-1.59-.21-2.62-1-2.47l.06,4.53c-.81-.07-1.24-.72-1-2.06H9.47C9.64.74,9.23.25,8.6.38V4.91c-.77,0-1.29-.59-1.09-2.05l-1.6,0C6,1.34,5.79.39,5,.29V4.91c-.78,0-1.27-.59-1.09-2.06H2.2Z" transform="translate(-0.07 -0.01)" fill="#f7c116" stroke="#000" stroke-miterlimit="10" stroke-width="0.5"/><polygon points="7.58 20.35 7.58 11.78 6.24 11.78 6.24 10.01 9.48 10.01 9.48 20.35 7.58 20.35" fill="#ed8622" stroke="#003049" stroke-miterlimit="10" stroke-width="0.15"/><polygon points="15.56 20.35 15.56 11.78 14.24 11.78 14.24 10.01 17.45 10.01 17.45 20.35 15.56 20.35" fill="#ed8622" stroke="#003049" stroke-miterlimit="10" stroke-width="0.15"/><rect x="3.43" y="5.75" width="4.73" height="1.11" fill="#fafeff"/><polygon points="0.25 2.84 2.13 2.84 2.13 22.04 21.92 22 21.99 2.84 23.62 2.84 23.69 23.71 2.13 23.71 0.25 23.71 0.25 2.84" fill="#396bb4" stroke="#000" stroke-miterlimit="10" stroke-width="0.5" fill-rule="evenodd"/></svg>