<svg id="Layer_1" data-name="Layer 1" xmlns="http://www.w3.org/2000/svg" width="23.29" height="22.53" viewBox="0 0 23.29 22.53"><path d="M20.54,3.05a7.37,7.37,0,0,1,1.24.07,2.21,2.21,0,0,1,1.86,2.16V20.93A2.25,2.25,0,0,1,22,23.18a2.82,2.82,0,0,1-.65.08H2.67A2.26,2.26,0,0,1,.35,21.08V5.39A2.27,2.27,0,0,1,2.54,3.07h.9V1.52A.78.78,0,1,1,5,1.5H5V3h6.21V1.54A.79.79,0,0,1,12,.74h0a.78.78,0,0,1,.8.76h0a.06.06,0,0,1,0,.06V3.05H19V1.56a.77.77,0,0,1,.73-.81h0a.76.76,0,0,1,.81.71h0C20.55,2,20.54,2.53,20.54,3.05Z" transform="translate(-0.35 -0.73)"/><path d="M3.46,4.62H2.78c-.62,0-.87.26-.87.89V20.82c0,.63.24.88.87.88H21.22c.62,0,.87-.26.87-.89V5.37a.66.66,0,0,0-.56-.72,8.34,8.34,0,0,0-1,0V6.2a.81.81,0,0,1-.78.77A.76.76,0,0,1,19,6.2v0h0V4.67H12.78V6.15a1.16,1.16,0,0,1-.23.59.65.65,0,0,1-.81.19.72.72,0,0,1-.5-.71V4.67H5V6.14a.78.78,0,0,1-1.55.13V4.62Z" transform="translate(-0.35 -0.73)" fill="#bdcd31"/><path d="M11.22,11.56l-.6.28a1.05,1.05,0,0,1-1.34-.49A1,1,0,0,1,9.74,10h0c.68-.36,1.34-.71,2.07-1a1,1,0,0,1,1.34.41,1,1,0,0,1,.12.55V20.3a1,1,0,0,1-1,1,1.06,1.06,0,0,1-1.07-1V11.56Z" transform="translate(-0.35 -0.73)" fill="#d62828"/><rect x="1.53" y="6.33" width="20.21" height="1.3" fill="#eae2b7"/></svg>