<svg id="Layer_1" data-name="Layer 1" xmlns="http://www.w3.org/2000/svg" width="24.33" height="24.1" viewBox="0 0 24.33 24.1"><path d="M16.62,5.57c2.94,2.53,3.48,5.27,0,8.22l-1.09,1.37,2.72.95,1.2-.84,2.28.73,2.07-2.74-2.07-1.15a6.8,6.8,0,0,0,.11-4.43l1.85-1.26L21.84,3.68l-2.28.63a10,10,0,0,0-5-2.21L14.23.2h-4L9.77,2A14.84,14.84,0,0,0,4.66,4.2L2.38,3.47.31,6.31l2,1.16a6.18,6.18,0,0,0-.11,4.42l-2,1.16,2,2.74,2.39-.73,1.31,1,2.61-.84L7.38,13.9C.74,8,9.77,1.78,16.62,5.57Z" transform="translate(0.16 0.05)" fill="#f77f00" stroke="#020202" stroke-miterlimit="10" stroke-width="0.5"/><path d="M3,19a1.24,1.24,0,0,1,1.09-1.26L9.66,15.9l.11-1.37a7.2,7.2,0,0,1-1.52-1.69C7.05,12,6.62,11,7.49,9.68a2.13,2.13,0,0,1,1-2.63c2.06-2,4.45-1.79,7,0a2.66,2.66,0,0,1,1.08,2.74,2.14,2.14,0,0,1-.78,3l-.09.05a4.35,4.35,0,0,1-1.41,1.69V15.9l5.65,1.89c.77.22,1.09.74,1.2,1.9l.44,3.48c.1.52-.22.63-1,.63H3.46c-.76-.11-1-.11-1-.63Z" transform="translate(0.16 0.05)" fill="#69d2e7" stroke="#000" stroke-miterlimit="10" stroke-width="0.5"/></svg>