<svg id="Layer_1" data-name="Layer 1" xmlns="http://www.w3.org/2000/svg" width="24.5" height="24.5" viewBox="0 0 24.5 24.5"><rect x="1.72" y="1.75" width="21.6" height="21.34" fill="#a7dbd8"/><path d="M22.53,1.5V21A1.51,1.51,0,0,1,21,22.5H3A1.51,1.51,0,0,1,1.47,21V3A1.51,1.51,0,0,1,3,1.5H22.53M23.76,0H3A3,3,0,0,0,0,3H0V21a3,3,0,0,0,3,3H21a3,3,0,0,0,3-3V.27A.27.27,0,0,0,23.76,0Z" transform="translate(0.25 0.25)" fill="#ffc300" stroke="#000" stroke-miterlimit="10" stroke-width="0.5"/><path d="M9.22,14l1.17-8H11.8l-1.51,9.79H8L6.49,6H8Z" transform="translate(0.25 0.25)" fill="#c70039" stroke="#000" stroke-miterlimit="10" stroke-width="0.5"/><path d="M14.58,5.89c1.5,0,2.27.9,2.27,2.46v.3H15.39v-.4c0-.7-.28-1-.76-1s-.77.27-.77,1c0,2,3,2.39,3,5.18,0,1.57-.78,2.46-2.29,2.46s-2.29-.89-2.29-2.46v-.6h1.45v.7c0,.7.31,1,.8,1s.8-.25.8-1c0-2-3-2.39-3-5.18C12.32,6.78,13.09,5.89,14.58,5.89Z" transform="translate(0.25 0.25)" fill="#c70039" stroke="#000" stroke-miterlimit="10" stroke-width="0.5"/><rect x="1.46" y="18.31" width="21.07" height="1.5" transform="translate(0.22 0.27) rotate(-0.08)" fill="#ffc300" stroke="#000" stroke-miterlimit="10" stroke-width="0.5"/></svg>