<svg id="Layer_1" data-name="Layer 1" xmlns="http://www.w3.org/2000/svg" width="23.91" height="24" viewBox="0 0 23.91 24"><rect x="8.95" y="11.88" width="14.71" height="11.87" fill="#69d2e7" stroke="#000" stroke-miterlimit="10" stroke-width="0.5"/><rect x="19.38" y="19.5" width="2.51" height="2.55" fill="#f9f9f9" stroke="#003049" stroke-miterlimit="10" stroke-width="0.5"/><rect x="15.05" y="19.55" width="2.5" height="2.55" fill="#f9f9f9" stroke="#003049" stroke-miterlimit="10" stroke-width="0.5"/><rect x="19.46" y="15.61" width="2.5" height="2.55" fill="#f9f9f9" stroke="#003049" stroke-miterlimit="10" stroke-width="0.5"/><rect x="14.97" y="15.55" width="2.5" height="2.55" fill="#f9f9f9" stroke="#003049" stroke-miterlimit="10" stroke-width="0.5"/><rect x="10.62" y="19.55" width="2.5" height="2.55" fill="#f9f9f9" stroke="#003049" stroke-miterlimit="10" stroke-width="0.5"/><rect x="10.59" y="15.56" width="2.51" height="2.55" fill="#f9f9f9" stroke="#003049" stroke-miterlimit="10" stroke-width="0.5"/><rect x="11.46" y="10.24" width="1.61" height="2.19" fill="none" stroke="#000309" stroke-miterlimit="10"/><rect x="19.45" y="10.43" width="1.61" height="2.19" fill="none" stroke="#000309" stroke-miterlimit="10"/><polygon points="0.25 2.28 19.84 2.28 19.87 0.55 23.43 3.69 19.84 6.68 19.84 5.02 0.25 5.02 0.25 2.28" fill="#d62828" stroke="#000" stroke-miterlimit="10" stroke-width="0.5"/><path d="M8.1,17.4C-3.84,19.1.52,1.15,10.7,9.68" transform="translate(0 0)" fill="none" stroke="#f7c116" stroke-miterlimit="10" stroke-width="1.5"/><polyline points="3.9 13.49 6.04 12.44 6.04 8.66" fill="none" stroke="#000309" stroke-miterlimit="10"/></svg>