<svg id="Layer_1" data-name="Layer 1" xmlns="http://www.w3.org/2000/svg" width="23.95" height="23.86" viewBox="0 0 23.95 23.86"><path d="M12.47,22.89A10.89,10.89,0,1,1,23.35,12,10.9,10.9,0,0,1,12.47,22.89Z" transform="translate(0.01 0.02)" fill="#109ca6"/><path d="M12.47,1.37A10.64,10.64,0,1,1,1.83,12,10.64,10.64,0,0,1,12.47,1.37m0-.5A11.14,11.14,0,1,0,23.6,12,11.14,11.14,0,0,0,12.47.87Z" transform="translate(0.01 0.02)"/><text transform="translate(6.66 9.41)" font-size="5.95" fill="#fff" font-family="Rockwell-ExtraBold, Rockwell Extra Bold" font-weight="800">365<tspan x="-2.52" y="7.14" letter-spacing="-0.03em">D</tspan><tspan x="2.52" y="7.14" letter-spacing="-0.05em">A</tspan><tspan x="6.74" y="7.14">YS</tspan></text><path d="M11.56,2.41" transform="translate(0.01 0.02)" fill="#c70039"/><path d="M11.56.19V2.41a9.57,9.57,0,0,1,9.69,3.12l-1.77.66,4,3.57.37-5.29-1.27.62S19.51-.65,11.56.19Z" transform="translate(0.01 0.02)" fill="#fa6900" stroke="#000" stroke-linecap="round" stroke-linejoin="round" stroke-width="0.25"/><path d="M11.56,2.41l3.15,1.07a8.52,8.52,0,0,1,6.54,2.05S18.24.88,11.56,2.41Z" transform="translate(0.01 0.02)" fill="#f38630" stroke="#000" stroke-linecap="round" stroke-linejoin="round" stroke-width="0.25"/><path d="M23.47,17.85l-1.6-1.54a9.56,9.56,0,0,1-9,4.82l.74-1.73-5.31.38,3.55,3.94.44-1.35S18.57,24.16,23.47,17.85Z" transform="translate(0.01 0.02)" fill="#fa6900" stroke="#000" stroke-linecap="round" stroke-linejoin="round" stroke-width="0.25"/><path d="M21.87,16.31l-3,1.53a8.45,8.45,0,0,1-6,3.29S18.35,22.18,21.87,16.31Z" transform="translate(0.01 0.02)" fill="#f38630" stroke="#000" stroke-linecap="round" stroke-linejoin="round" stroke-width="0.25"/><path d="M1.43,18.83l2.22-.75A10.12,10.12,0,0,1,3.49,7.33L4.76,8.87,7,3.7,1.56,5.12l1,1.06S-2.11,11.16,1.43,18.83Z" transform="translate(0.01 0.02)" fill="#fa6900" stroke="#000" stroke-linecap="round" stroke-linejoin="round" stroke-width="0.25"/><path d="M3.65,18.08V14.56S2,11.68,3.49,7.33C3.49,7.33-.14,11.91,3.65,18.08Z" transform="translate(0.01 0.02)" fill="#f38630" stroke="#000" stroke-linecap="round" stroke-linejoin="round" stroke-width="0.25"/></svg>